G75*
G70*
%OFA0B0*%
%FSLAX24Y24*%
%IPPOS*%
%LPD*%
%AMOC8*
5,1,8,0,0,1.08239X$1,22.5*
%
%ADD10C,0.0000*%
%ADD11R,0.0600X0.0600*%
%ADD12R,0.0276X0.0787*%
%ADD13R,0.0512X0.0630*%
%ADD14R,0.0433X0.0394*%
%ADD15R,0.0394X0.0433*%
%ADD16R,0.0217X0.0472*%
%ADD17R,0.0512X0.0591*%
%ADD18R,0.0630X0.0512*%
D10*
X000534Y000171D02*
X000534Y019856D01*
X020219Y019856D01*
X020211Y000171D01*
X000534Y000171D01*
X000709Y000671D02*
X000746Y000822D01*
X000849Y000938D01*
X000995Y000994D01*
X001149Y000975D01*
X001277Y000887D01*
X001350Y000749D01*
X001350Y000593D01*
X001277Y000455D01*
X001149Y000367D01*
X000995Y000348D01*
X000849Y000404D01*
X000746Y000520D01*
X000709Y000671D01*
X000709Y019349D02*
X000746Y019500D01*
X000849Y019616D01*
X000995Y019672D01*
X001149Y019653D01*
X001277Y019565D01*
X001350Y019427D01*
X001350Y019271D01*
X001277Y019133D01*
X001149Y019045D01*
X000995Y019026D01*
X000849Y019082D01*
X000746Y019198D01*
X000709Y019349D01*
X019386Y019349D02*
X019423Y019500D01*
X019526Y019616D01*
X019672Y019672D01*
X019826Y019653D01*
X019954Y019565D01*
X020027Y019427D01*
X020027Y019271D01*
X019954Y019133D01*
X019826Y019045D01*
X019672Y019026D01*
X019526Y019082D01*
X019423Y019198D01*
X019386Y019349D01*
X019386Y000671D02*
X019423Y000822D01*
X019526Y000938D01*
X019672Y000994D01*
X019826Y000975D01*
X019954Y000887D01*
X020027Y000749D01*
X020027Y000593D01*
X019954Y000455D01*
X019826Y000367D01*
X019672Y000348D01*
X019526Y000404D01*
X019423Y000520D01*
X019386Y000671D01*
D11*
X018349Y003467D03*
X017449Y003467D03*
X002047Y006952D03*
X001270Y006972D03*
X001626Y006238D03*
X001626Y005338D03*
X002047Y007852D03*
X001270Y007872D03*
X001710Y002810D03*
X001710Y001910D03*
D12*
X009106Y007760D03*
X009500Y007760D03*
X009893Y007760D03*
D13*
X006382Y013021D03*
X005634Y013021D03*
X003286Y014493D03*
X002538Y014493D03*
D14*
X002483Y009943D03*
X003152Y009943D03*
D15*
X000999Y002396D03*
X000999Y001726D03*
D16*
X000975Y011285D03*
X001723Y011285D03*
X001723Y012309D03*
X001349Y012309D03*
X000975Y012309D03*
D17*
X001050Y009809D03*
X001798Y009809D03*
X002172Y008746D03*
X001424Y008746D03*
D18*
X003995Y011872D03*
X003995Y012620D03*
X004802Y012620D03*
X004802Y011872D03*
M02*
