G75*
G70*
%OFA0B0*%
%FSLAX24Y24*%
%IPPOS*%
%LPD*%
%AMOC8*
5,1,8,0,0,1.08239X$1,22.5*
%
%ADD10C,0.0000*%
%ADD11C,0.0170*%
%ADD12R,0.0440X0.0700*%
%ADD13R,0.0600X0.0600*%
%ADD14C,0.0520*%
%ADD15R,0.0787X0.0276*%
%ADD16R,0.0780X0.0400*%
%ADD17R,0.0800X0.0600*%
%ADD18R,0.0800X0.1500*%
%ADD19C,0.0740*%
%ADD20R,0.0740X0.0740*%
%ADD21R,0.0472X0.0709*%
%ADD22R,0.0236X0.0610*%
%ADD23OC8,0.0600*%
%ADD24R,0.0433X0.0394*%
%ADD25C,0.0740*%
%ADD26R,0.0790X0.0430*%
%ADD27R,0.0394X0.0433*%
%ADD28C,0.0098*%
%ADD29C,0.0242*%
%ADD30C,0.0118*%
D10*
X000534Y000171D02*
X000534Y019856D01*
X020219Y019856D01*
X020211Y000171D01*
X000534Y000171D01*
X000709Y000671D02*
X000746Y000822D01*
X000849Y000938D01*
X000995Y000994D01*
X001149Y000975D01*
X001277Y000887D01*
X001350Y000749D01*
X001350Y000593D01*
X001277Y000455D01*
X001149Y000367D01*
X000995Y000348D01*
X000849Y000404D01*
X000746Y000520D01*
X000709Y000671D01*
X000709Y019349D02*
X000746Y019500D01*
X000849Y019616D01*
X000995Y019672D01*
X001149Y019653D01*
X001277Y019565D01*
X001350Y019427D01*
X001350Y019271D01*
X001277Y019133D01*
X001149Y019045D01*
X000995Y019026D01*
X000849Y019082D01*
X000746Y019198D01*
X000709Y019349D01*
X019386Y019349D02*
X019423Y019500D01*
X019526Y019616D01*
X019672Y019672D01*
X019826Y019653D01*
X019954Y019565D01*
X020027Y019427D01*
X020027Y019271D01*
X019954Y019133D01*
X019826Y019045D01*
X019672Y019026D01*
X019526Y019082D01*
X019423Y019198D01*
X019386Y019349D01*
X019386Y000671D02*
X019423Y000822D01*
X019526Y000938D01*
X019672Y000994D01*
X019826Y000975D01*
X019954Y000887D01*
X020027Y000749D01*
X020027Y000593D01*
X019954Y000455D01*
X019826Y000367D01*
X019672Y000348D01*
X019526Y000404D01*
X019423Y000520D01*
X019386Y000671D01*
D11*
X012364Y005927D02*
X011834Y005927D01*
X011834Y006247D02*
X012364Y006247D01*
X012364Y006567D02*
X011834Y006567D01*
X011834Y006877D02*
X012364Y006877D01*
X012364Y007187D02*
X011834Y007187D01*
X011834Y007507D02*
X012364Y007507D01*
X012364Y007817D02*
X011834Y007817D01*
X011834Y008137D02*
X012364Y008137D01*
X011629Y008342D02*
X011629Y008872D01*
X011314Y008872D02*
X011314Y008342D01*
X010999Y008342D02*
X010999Y008872D01*
X010684Y008872D02*
X010684Y008342D01*
X010369Y008342D02*
X010369Y008872D01*
X010054Y008872D02*
X010054Y008342D01*
X009740Y008342D02*
X009740Y008872D01*
X009425Y008872D02*
X009425Y008342D01*
X009214Y008137D02*
X008684Y008137D01*
X008684Y007817D02*
X009214Y007817D01*
X009214Y007507D02*
X008684Y007507D01*
X008684Y007187D02*
X009214Y007187D01*
X009214Y006877D02*
X008684Y006877D01*
X008684Y006567D02*
X009214Y006567D01*
X009214Y006247D02*
X008684Y006247D01*
X008680Y005929D02*
X009210Y005929D01*
X009429Y005722D02*
X009429Y005192D01*
X009740Y005194D02*
X009740Y005724D01*
X010054Y005724D02*
X010054Y005194D01*
X010369Y005194D02*
X010369Y005724D01*
X010684Y005724D02*
X010684Y005194D01*
X010999Y005194D02*
X010999Y005724D01*
X011314Y005724D02*
X011314Y005194D01*
X011629Y005194D02*
X011629Y005724D01*
X005880Y005906D02*
X005350Y005906D01*
X005348Y006217D02*
X005878Y006217D01*
X005878Y006532D02*
X005348Y006532D01*
X005348Y006847D02*
X005878Y006847D01*
X005878Y007161D02*
X005348Y007161D01*
X005348Y007476D02*
X005878Y007476D01*
X005878Y007791D02*
X005348Y007791D01*
X005348Y008106D02*
X005878Y008106D01*
X005145Y008311D02*
X005145Y008841D01*
X004825Y008841D02*
X004825Y008311D01*
X004505Y008311D02*
X004505Y008841D01*
X004195Y008841D02*
X004195Y008311D01*
X003885Y008311D02*
X003885Y008841D01*
X003565Y008841D02*
X003565Y008311D01*
X003255Y008311D02*
X003255Y008841D01*
X002935Y008841D02*
X002935Y008311D01*
X002730Y008106D02*
X002200Y008106D01*
X002200Y007791D02*
X002730Y007791D01*
X002730Y007476D02*
X002200Y007476D01*
X002200Y007161D02*
X002730Y007161D01*
X002730Y006847D02*
X002200Y006847D01*
X002200Y006532D02*
X002730Y006532D01*
X002730Y006217D02*
X002200Y006217D01*
X002200Y005902D02*
X002730Y005902D01*
X002935Y005691D02*
X002935Y005161D01*
X003255Y005161D02*
X003255Y005691D01*
X003565Y005691D02*
X003565Y005161D01*
X003885Y005161D02*
X003885Y005691D01*
X004195Y005691D02*
X004195Y005161D01*
X004505Y005161D02*
X004505Y005691D01*
X004825Y005691D02*
X004825Y005161D01*
X005143Y005158D02*
X005143Y005688D01*
D12*
X003969Y015749D03*
X003913Y016700D03*
X002869Y015749D03*
X002813Y016700D03*
D13*
X006947Y017803D03*
X007847Y017803D03*
X000964Y004692D03*
X000964Y003792D03*
X002637Y003642D03*
X002637Y002742D03*
X002593Y001597D03*
X002593Y000697D03*
D14*
X006398Y013930D02*
X006398Y014450D01*
X007398Y014450D02*
X007398Y013930D01*
X008398Y013930D02*
X008398Y014450D01*
X009398Y014450D02*
X009398Y013930D01*
X010398Y013930D02*
X010398Y014450D01*
X011398Y014450D02*
X011398Y013930D01*
X012398Y013930D02*
X012398Y014450D01*
X013398Y014450D02*
X013398Y013930D01*
X019109Y014165D02*
X019629Y014165D01*
X019629Y015165D02*
X019109Y015165D01*
X019109Y016165D02*
X019629Y016165D01*
X019629Y017165D02*
X019109Y017165D01*
X019109Y018165D02*
X019629Y018165D01*
X019629Y013165D02*
X019109Y013165D01*
X007710Y018706D02*
X007710Y019226D01*
X006710Y019226D02*
X006710Y018706D01*
X005710Y018706D02*
X005710Y019226D01*
X004710Y019226D02*
X004710Y018706D01*
X003710Y018706D02*
X003710Y019226D01*
X002710Y019226D02*
X002710Y018706D01*
D15*
X001510Y006310D03*
X001510Y005916D03*
X001510Y005522D03*
D16*
X001765Y002983D03*
X001765Y001408D03*
D17*
X002840Y011047D03*
X002840Y011947D03*
X002840Y012847D03*
D18*
X005440Y011947D03*
D19*
X009180Y017041D03*
X010180Y017041D03*
X010219Y018439D03*
X009219Y018439D03*
X011219Y018439D03*
X012219Y018439D03*
X013219Y018439D03*
X014219Y018439D03*
X015644Y016833D03*
X015644Y015833D03*
X015644Y014833D03*
X017011Y017974D03*
X017011Y018974D03*
X019503Y008400D03*
X019503Y007400D03*
X019503Y006400D03*
X019503Y005400D03*
X019503Y004400D03*
X019503Y003400D03*
D20*
X015644Y013833D03*
D21*
X016951Y011591D03*
X019550Y011591D03*
D22*
X019038Y010715D03*
X018644Y010715D03*
X018251Y010715D03*
X017857Y010715D03*
X017463Y010715D03*
D23*
X012200Y002860D03*
X011200Y002860D03*
X011200Y001860D03*
X012200Y001860D03*
X010200Y001860D03*
X010200Y002860D03*
X009200Y002860D03*
X009200Y001860D03*
X008200Y001860D03*
X008200Y002860D03*
X007200Y002860D03*
X007200Y001860D03*
X006200Y001860D03*
X006200Y002860D03*
X005200Y002860D03*
X005200Y001860D03*
X004200Y001860D03*
X004200Y002860D03*
D24*
X005652Y017789D03*
X006322Y017789D03*
D25*
X001774Y017703D02*
X001034Y017703D01*
X001034Y016703D02*
X001774Y016703D01*
D26*
X014870Y008278D03*
X014870Y007278D03*
X014870Y006278D03*
X014870Y005278D03*
X014870Y004278D03*
X014870Y003278D03*
X014870Y002278D03*
X014870Y001278D03*
X018410Y001278D03*
X018410Y002278D03*
X018410Y003278D03*
X018410Y004278D03*
X018410Y005278D03*
X018410Y006278D03*
X018410Y007278D03*
X018410Y008278D03*
D27*
X002389Y005144D03*
X002389Y004474D03*
D28*
X002392Y004474D01*
X002518Y004349D01*
X002518Y003758D01*
X002637Y003640D01*
X002637Y003642D01*
X002637Y003640D02*
X002660Y003616D01*
X002266Y003223D02*
X002266Y003124D01*
X002266Y003104D01*
X002145Y002983D01*
X001765Y002983D01*
X001765Y002563D01*
X002247Y002081D01*
X002542Y002081D01*
X002601Y002022D01*
X002601Y001589D01*
X002593Y001597D01*
X002534Y001597D01*
X002562Y001569D01*
X003133Y001097D02*
X004436Y001097D01*
X005200Y001860D01*
X006200Y001860D02*
X004609Y000604D01*
X003172Y000604D01*
X002593Y000697D02*
X002516Y000697D01*
X002503Y000683D01*
X001755Y000683D01*
X001617Y001254D02*
X001715Y001352D01*
X001706Y001362D01*
X001765Y001408D01*
X001617Y001254D02*
X000770Y001254D01*
X000692Y001313D01*
X000692Y002730D01*
X000810Y002908D01*
X001085Y002908D01*
X001243Y003065D01*
X001243Y003242D01*
X001459Y003459D01*
X001499Y003478D01*
X001696Y003616D01*
X001971Y003518D02*
X002266Y003223D01*
X002266Y003124D02*
X002640Y002750D01*
X002637Y002746D01*
X002637Y002742D01*
X001971Y003518D02*
X001971Y003951D01*
X001951Y004010D01*
X001230Y004692D01*
X000964Y004692D01*
X000964Y004696D01*
X000967Y004699D01*
X000889Y004778D01*
X000889Y005978D01*
X000908Y005978D01*
X000971Y005916D01*
X001510Y005916D01*
X001575Y006217D02*
X001483Y006310D01*
X001510Y006310D01*
X001483Y006310D02*
X001479Y006313D01*
X001575Y006217D02*
X002465Y006217D01*
X002465Y006532D02*
X002702Y006512D01*
X002778Y006530D02*
X003152Y006904D01*
X003152Y006923D01*
X003172Y006923D01*
X003133Y006963D01*
X003133Y007061D01*
X003192Y006943D02*
X003172Y006923D01*
X003152Y006923D02*
X004353Y006943D01*
X004648Y006648D01*
X004648Y006018D01*
X004505Y005426D02*
X004505Y004980D01*
X004511Y004974D01*
X004505Y004969D01*
X004505Y004960D01*
X004727Y004738D01*
X006361Y004738D01*
X006873Y004266D01*
X007818Y004266D01*
X008192Y003852D01*
X009885Y003852D01*
X010259Y003478D01*
X010593Y003478D01*
X011203Y002868D01*
X011200Y002864D01*
X011200Y002860D01*
X012200Y002860D02*
X012207Y002868D01*
X010869Y004207D01*
X010377Y004207D01*
X010298Y004286D01*
X009333Y004286D01*
X009156Y004463D01*
X008526Y004463D01*
X008369Y004049D02*
X010278Y004049D01*
X010455Y003872D01*
X010200Y002868D02*
X009412Y003656D01*
X008093Y003656D01*
X007640Y004069D01*
X006341Y004069D01*
X005967Y004502D01*
X004451Y004502D01*
X004195Y004759D01*
X004195Y005426D01*
X003885Y005426D02*
X003885Y004576D01*
X004156Y004286D01*
X005790Y004286D01*
X006164Y003872D01*
X007542Y003872D01*
X007916Y003459D01*
X008585Y003459D01*
X009200Y002864D01*
X009200Y002860D01*
X010200Y002868D02*
X010200Y002860D01*
X010200Y001860D02*
X010200Y001549D01*
X010593Y001136D01*
X013192Y001136D01*
X013467Y001411D01*
X013467Y003262D01*
X013192Y003537D01*
X013192Y005663D01*
X012621Y006234D01*
X012385Y006234D01*
X012070Y006549D02*
X012778Y006549D01*
X012936Y006392D01*
X012916Y006825D02*
X012864Y006877D01*
X012099Y006877D01*
X012099Y007187D02*
X012099Y007209D01*
X012630Y007209D01*
X012719Y007120D01*
X013074Y007120D01*
X013211Y007258D01*
X013211Y007908D01*
X012995Y008124D01*
X012995Y008478D01*
X012601Y008282D02*
X012463Y008144D01*
X012109Y008144D01*
X012099Y008133D01*
X012099Y008137D01*
X012099Y008133D02*
X012089Y008124D01*
X012099Y007817D02*
X012865Y007817D01*
X012877Y007829D01*
X012766Y007507D02*
X012857Y007415D01*
X012766Y007507D02*
X012099Y007507D01*
X012089Y007219D02*
X012099Y007209D01*
X012099Y007187D02*
X011566Y007187D01*
X011558Y006726D01*
X011263Y006156D02*
X011263Y007573D01*
X011597Y007868D01*
X011597Y008203D01*
X011637Y008282D01*
X011637Y008656D01*
X011629Y008648D01*
X011629Y008607D01*
X011629Y008608D01*
X011322Y008636D02*
X011322Y009286D01*
X011459Y009423D01*
X011459Y009738D01*
X010967Y010014D02*
X011007Y008616D01*
X010999Y008609D01*
X010999Y008607D01*
X011302Y008616D02*
X011322Y008636D01*
X011302Y008616D02*
X011311Y008607D01*
X011314Y008607D01*
X011302Y008006D02*
X011203Y008006D01*
X011007Y007809D01*
X010999Y007809D01*
X010692Y007967D02*
X010692Y007514D01*
X010613Y007435D01*
X010396Y007435D01*
X010810Y007022D01*
X010810Y006372D01*
X010514Y006077D01*
X009904Y006077D01*
X009747Y005919D01*
X009747Y005427D01*
X009740Y005434D01*
X009740Y005459D01*
X008959Y006234D02*
X008949Y006245D01*
X008949Y006247D01*
X008959Y006234D02*
X008290Y006234D01*
X008231Y006569D02*
X008940Y006569D01*
X008942Y006567D01*
X008949Y006567D01*
X008920Y006864D02*
X008310Y006864D01*
X007916Y007258D01*
X007916Y010073D01*
X007601Y010388D01*
X007601Y011490D01*
X005948Y013144D01*
X005948Y014797D01*
X005967Y014915D01*
X008389Y014915D01*
X008644Y015073D01*
X008644Y017967D01*
X008644Y018911D01*
X008369Y019286D02*
X008389Y015368D01*
X008034Y015152D01*
X005889Y015171D01*
X005711Y014856D01*
X005731Y013301D01*
X005731Y013026D01*
X007129Y011628D01*
X007129Y010486D01*
X007719Y009896D01*
X007719Y007081D01*
X008231Y006569D01*
X008526Y007199D02*
X008979Y007199D01*
X008991Y007187D01*
X008949Y007187D01*
X008971Y007187D01*
X008979Y007179D01*
X008991Y007187D02*
X008999Y007179D01*
X008949Y007187D02*
X008947Y007187D01*
X008949Y007507D02*
X009458Y007507D01*
X009983Y006982D01*
X010436Y006982D01*
X010396Y007435D02*
X010140Y007435D01*
X009963Y007612D01*
X009963Y007927D01*
X010062Y008026D01*
X010062Y008636D01*
X010369Y008607D02*
X010369Y008097D01*
X010357Y008085D01*
X010357Y007849D01*
X009747Y008557D02*
X009747Y008872D01*
X009392Y009226D01*
X009215Y009226D01*
X009156Y009167D01*
X009156Y009030D01*
X008940Y009207D02*
X008822Y009089D01*
X008802Y009089D01*
X008802Y008282D01*
X008949Y008135D01*
X008949Y008137D01*
X008953Y008137D01*
X008959Y008144D01*
X008949Y008135D02*
X008959Y008124D01*
X008979Y007829D02*
X008967Y007817D01*
X008949Y007817D01*
X008952Y007817D01*
X008959Y007809D01*
X008507Y007809D01*
X008389Y007927D01*
X008389Y008301D01*
X008487Y008400D01*
X008487Y009030D01*
X008723Y009266D01*
X008723Y010270D01*
X008940Y010034D02*
X008940Y009207D01*
X008448Y009778D02*
X008408Y009797D01*
X008408Y010604D01*
X010829Y010644D01*
X010711Y010998D02*
X008290Y010998D01*
X008172Y010880D01*
X008172Y010467D01*
X008172Y010565D01*
X008172Y010467D02*
X008172Y007553D01*
X008526Y007199D01*
X008920Y006864D02*
X008933Y006877D01*
X008949Y006877D01*
X008979Y007789D02*
X008959Y007809D01*
X009747Y008557D02*
X009740Y008564D01*
X009740Y008607D01*
X009425Y008607D02*
X009146Y008607D01*
X009097Y008656D01*
X009648Y009384D02*
X010180Y009384D01*
X010298Y009266D01*
X010259Y009640D02*
X010239Y009660D01*
X010140Y009758D01*
X009668Y009758D01*
X009117Y010211D02*
X008940Y010034D01*
X009117Y010211D02*
X009117Y010270D01*
X009491Y011333D02*
X008959Y011707D01*
X008310Y011707D01*
X008487Y011943D02*
X010652Y011943D01*
X012916Y009679D01*
X013231Y009679D01*
X013428Y009482D01*
X013428Y006411D01*
X013526Y006195D01*
X013526Y003695D01*
X013979Y003242D01*
X013979Y001726D01*
X014432Y001274D01*
X014845Y001274D01*
X014849Y001278D01*
X014870Y001278D01*
X014077Y000663D02*
X014077Y000644D01*
X013763Y000329D01*
X008841Y000329D01*
X007326Y001864D01*
X007203Y001864D01*
X007200Y001860D01*
X007207Y002849D02*
X007200Y002856D01*
X006617Y003439D01*
X005948Y003439D01*
X005318Y003911D01*
X003585Y003911D01*
X003172Y004345D01*
X003152Y004935D01*
X003255Y005077D01*
X003255Y005426D01*
X002936Y005408D02*
X002672Y005144D01*
X002389Y005144D01*
X002086Y005522D02*
X002465Y005901D01*
X002465Y005902D01*
X002086Y005522D02*
X001510Y005522D01*
X000889Y005978D02*
X000889Y006451D01*
X001499Y007061D01*
X001479Y007061D01*
X001322Y007770D02*
X002503Y007809D01*
X002465Y007791D01*
X002463Y008085D02*
X002465Y008086D01*
X001773Y008086D01*
X001577Y008282D01*
X001577Y009207D01*
X001715Y009345D01*
X002385Y009345D01*
X002424Y009305D01*
X002424Y009325D01*
X002896Y008616D02*
X002955Y008577D01*
X002954Y008576D01*
X002935Y008576D01*
X002935Y008596D01*
X002936Y008597D01*
X002936Y008577D02*
X002935Y008576D01*
X002935Y008576D01*
X002935Y008537D01*
X002936Y008537D01*
X002935Y008537D02*
X002916Y008518D01*
X002896Y008616D02*
X002896Y010191D01*
X003113Y010388D01*
X003526Y010388D01*
X003920Y010782D01*
X004077Y010782D01*
X004432Y010723D02*
X004491Y010782D01*
X004432Y010723D02*
X004432Y009719D01*
X004196Y009482D01*
X004196Y008557D01*
X004195Y008557D01*
X004195Y008576D01*
X004197Y008576D01*
X004196Y008577D01*
X004197Y008576D02*
X004215Y008557D01*
X004195Y008557D02*
X004176Y008537D01*
X004195Y008576D02*
X004195Y008479D01*
X004215Y008459D01*
X004471Y008537D02*
X004505Y008571D01*
X004550Y008616D01*
X004550Y009581D01*
X004707Y009738D01*
X004707Y010427D01*
X004786Y010506D01*
X006499Y010506D01*
X006577Y010585D01*
X006873Y010723D02*
X006696Y010900D01*
X006302Y010900D01*
X006223Y010821D01*
X006223Y010723D01*
X005377Y010723D01*
X004885Y011097D01*
X003881Y011097D01*
X003467Y010683D01*
X003467Y010663D01*
X003389Y010585D01*
X002286Y010585D01*
X001361Y009423D01*
X001322Y007770D01*
X002424Y007474D02*
X003014Y007474D01*
X003329Y007160D01*
X003408Y007160D01*
X003702Y007161D01*
X005613Y007161D01*
X005613Y007474D02*
X006971Y007474D01*
X006991Y007455D01*
X006772Y006847D02*
X006833Y006786D01*
X006772Y006847D02*
X006184Y006847D01*
X006184Y007120D01*
X006459Y006530D02*
X005613Y006530D01*
X005613Y006531D01*
X005613Y006532D01*
X005633Y006825D02*
X005613Y006844D01*
X005613Y006845D01*
X005613Y006847D01*
X005631Y006847D01*
X005652Y006825D01*
X005613Y006844D02*
X005613Y006847D01*
X005613Y006845D02*
X005613Y006845D01*
X005613Y007474D02*
X005613Y007476D01*
X005613Y007476D01*
X005672Y007770D02*
X005692Y007789D01*
X006105Y007789D01*
X006164Y007849D01*
X006164Y008537D01*
X006656Y009030D01*
X006676Y009010D01*
X007247Y009010D01*
X007365Y009128D01*
X007365Y009423D01*
X007050Y009738D01*
X007050Y009797D01*
X007444Y009758D02*
X007444Y009837D01*
X006873Y010408D01*
X006873Y010723D01*
X007444Y009758D02*
X007444Y009738D01*
X007030Y009305D02*
X006971Y009364D01*
X006696Y009364D01*
X005613Y008282D01*
X005613Y008106D01*
X005613Y007791D02*
X005650Y007791D01*
X005672Y007770D01*
X005613Y007791D02*
X005613Y007790D01*
X005613Y007789D01*
X005042Y007612D02*
X004924Y007396D01*
X003389Y007396D01*
X003093Y007829D01*
X003054Y007829D01*
X003255Y008159D02*
X003467Y007947D01*
X003467Y007888D01*
X003684Y007612D01*
X004609Y007612D01*
X005042Y008006D01*
X005160Y008537D02*
X005145Y008553D01*
X005140Y008557D01*
X005140Y009089D01*
X005593Y009541D01*
X006440Y009541D01*
X006164Y008557D02*
X006164Y008537D01*
X006499Y007986D02*
X007385Y008734D01*
X006499Y007986D02*
X006499Y007967D01*
X005180Y008577D02*
X005160Y008557D01*
X005145Y008572D01*
X005145Y008576D01*
X005145Y008553D01*
X005145Y008576D02*
X005145Y008631D01*
X005140Y008636D01*
X005140Y008577D02*
X005141Y008576D01*
X005145Y008576D01*
X004826Y008557D02*
X004826Y009404D01*
X004865Y009443D01*
X004196Y010014D02*
X004196Y010112D01*
X003979Y010329D01*
X003723Y010329D01*
X003172Y009778D01*
X003172Y009502D01*
X003566Y009778D02*
X003566Y008498D01*
X003565Y008499D01*
X003565Y008576D01*
X003255Y008576D02*
X003255Y008159D01*
X002465Y008106D02*
X002465Y008086D01*
X002465Y007476D02*
X002426Y007476D01*
X002424Y007474D01*
X003014Y007179D02*
X003034Y007179D01*
X003192Y006943D02*
X003231Y006943D01*
X003369Y006608D02*
X003408Y006608D01*
X003566Y006451D01*
X003566Y005388D01*
X003585Y005368D01*
X003585Y005388D02*
X003565Y005408D01*
X003565Y005426D01*
X003565Y005389D01*
X003566Y005388D01*
X003507Y004817D02*
X003565Y004680D01*
X003565Y004385D01*
X003920Y004108D01*
X005574Y004089D01*
X006085Y003636D01*
X007385Y003636D01*
X008192Y002849D01*
X008200Y002856D01*
X008200Y002860D01*
X007200Y002856D02*
X007200Y002860D01*
X006203Y002849D02*
X006200Y002852D01*
X005239Y003715D01*
X003349Y003715D01*
X003004Y004079D01*
X003005Y004079D01*
X003014Y004089D01*
X002935Y004168D01*
X002935Y005426D01*
X002935Y005408D01*
X002936Y005408D01*
X003133Y006018D02*
X002796Y006532D01*
X002796Y006547D01*
X002796Y006532D02*
X002778Y006532D01*
X002778Y006530D01*
X002778Y006532D02*
X002465Y006532D01*
X003959Y007986D02*
X003881Y008065D01*
X003881Y008557D01*
X003881Y008577D01*
X003881Y009286D01*
X003900Y009305D01*
X003900Y009640D01*
X003920Y009738D01*
X004196Y010014D01*
X003802Y010014D02*
X003566Y009778D01*
X003881Y008577D02*
X003900Y008577D01*
X003900Y008576D01*
X003885Y008576D01*
X003882Y008576D02*
X003881Y008577D01*
X003885Y008562D02*
X003881Y008557D01*
X003959Y007986D02*
X004097Y007986D01*
X004505Y008571D02*
X004505Y008576D01*
X002798Y010978D02*
X002857Y011037D01*
X003310Y011037D01*
X003644Y011372D01*
X004747Y011372D01*
X005432Y011947D02*
X005440Y011939D01*
X005440Y011947D01*
X005440Y011939D02*
X005455Y011923D01*
X005432Y011947D02*
X002840Y011947D01*
X002840Y011940D01*
X002837Y011943D01*
X002503Y011943D01*
X001794Y011234D01*
X001243Y011845D01*
X001105Y011825D01*
X000849Y011923D02*
X000829Y012100D01*
X000829Y013223D01*
X001459Y013852D01*
X001460Y013852D01*
X001460Y013951D01*
X001404Y014006D01*
X001404Y016703D01*
X001404Y017703D02*
X001822Y017703D01*
X002825Y016700D01*
X002813Y016700D01*
X002813Y016692D01*
X002825Y016680D01*
X002837Y016667D01*
X002825Y016680D02*
X002825Y018053D01*
X003738Y018966D01*
X003710Y018966D01*
X003710Y018997D01*
X004373Y019660D01*
X005140Y019660D01*
X005180Y019620D01*
X005180Y019600D01*
X005731Y019049D01*
X005710Y019028D01*
X005710Y018966D01*
X005736Y018966D01*
X006381Y018262D01*
X007385Y018262D01*
X007863Y017842D01*
X007847Y017803D01*
X007863Y017842D02*
X007896Y017809D01*
X007896Y017081D01*
X007955Y016411D02*
X006873Y016943D01*
X005318Y016943D01*
X005200Y017061D01*
X005200Y017553D01*
X005436Y017553D01*
X005652Y017770D01*
X005652Y017789D01*
X006322Y017789D02*
X006335Y017803D01*
X006947Y017803D01*
X006951Y017849D02*
X006892Y017789D01*
X006322Y017789D01*
X004451Y017160D02*
X004451Y016746D01*
X004405Y016700D01*
X003913Y016700D01*
X003913Y015789D01*
X003969Y015733D01*
X003969Y015749D01*
X003969Y015733D02*
X003979Y015723D01*
X003979Y015112D01*
X003940Y015073D01*
X003920Y014640D02*
X004530Y015250D01*
X005455Y015250D01*
X005711Y015506D01*
X007936Y015506D01*
X007955Y015506D01*
X008841Y015132D02*
X008940Y015034D01*
X008920Y015034D01*
X008920Y015053D01*
X008920Y015034D02*
X008920Y013301D01*
X009077Y013144D01*
X009077Y013104D01*
X009097Y013085D01*
X008979Y012750D02*
X012975Y012750D01*
X013172Y012947D01*
X013979Y012947D01*
X014274Y013223D02*
X014550Y013498D01*
X014274Y013833D02*
X013940Y013498D01*
X013074Y013498D01*
X012398Y014174D01*
X012398Y014190D01*
X012975Y013223D02*
X014274Y013223D01*
X014589Y012908D02*
X014373Y012691D01*
X014392Y012691D01*
X014274Y012573D01*
X013743Y012573D01*
X013684Y012632D01*
X013251Y012632D01*
X013231Y012219D02*
X014235Y012219D01*
X014570Y012553D01*
X015770Y012553D01*
X015770Y012573D01*
X016892Y013695D01*
X016892Y013813D01*
X016932Y013813D01*
X017011Y013518D02*
X015790Y012297D01*
X015770Y012317D01*
X014688Y012317D01*
X014294Y011923D01*
X013566Y011923D01*
X013546Y011943D01*
X013133Y011608D02*
X013211Y011530D01*
X014274Y011530D01*
X014688Y011943D01*
X015790Y011943D01*
X016873Y013026D01*
X017483Y013242D01*
X017207Y013518D02*
X017011Y013518D01*
X016597Y013695D02*
X016597Y014089D01*
X016597Y013695D02*
X015810Y012908D01*
X014589Y012908D01*
X014274Y013833D02*
X015644Y013833D01*
X015751Y014581D02*
X015703Y014628D01*
X015644Y014833D01*
X015644Y014825D01*
X014963Y015506D01*
X014235Y015506D01*
X013822Y015486D02*
X014826Y016490D01*
X014826Y017238D01*
X015160Y017573D01*
X016125Y017573D01*
X017109Y016589D01*
X017109Y015408D01*
X017680Y015132D02*
X017168Y014640D01*
X017640Y014404D02*
X018014Y014778D01*
X018014Y016589D01*
X018591Y017165D01*
X019369Y017165D01*
X019369Y018165D02*
X018862Y018165D01*
X018862Y018145D01*
X017680Y016963D01*
X017680Y015132D01*
X018546Y014758D02*
X017916Y014128D01*
X018546Y014758D02*
X018546Y015880D01*
X018831Y016165D01*
X019369Y016165D01*
X017030Y017967D02*
X017022Y017974D01*
X017011Y017986D01*
X015810Y018006D01*
X017011Y017974D02*
X017022Y017974D01*
X014219Y018439D02*
X014215Y018439D01*
X013507Y017730D01*
X013507Y017612D01*
X011184Y017612D01*
X010810Y017238D01*
X010810Y016648D01*
X010574Y016411D01*
X009097Y016411D01*
X008841Y016156D01*
X008841Y015132D01*
X008398Y014190D02*
X008274Y014190D01*
X007581Y013498D01*
X007581Y013223D01*
X008428Y012376D01*
X008426Y012374D01*
X008425Y012374D01*
X008430Y012374D01*
X008664Y012140D01*
X010751Y012140D01*
X012975Y009915D01*
X013329Y009915D01*
X013723Y009522D01*
X013723Y004423D01*
X014282Y003392D01*
X014282Y002801D01*
X014589Y002494D01*
X014629Y002494D01*
X014845Y002278D01*
X014870Y002278D01*
X014885Y003262D02*
X014869Y003278D01*
X014870Y003278D01*
X014869Y003278D02*
X014865Y003282D01*
X014885Y003262D02*
X015711Y003262D01*
X015554Y004266D02*
X014885Y004266D01*
X014873Y004278D01*
X014870Y004278D01*
X015554Y004266D02*
X015889Y004600D01*
X015889Y008006D01*
X015617Y008278D01*
X014870Y008278D01*
X014829Y008278D01*
X014826Y008282D01*
X014885Y008341D01*
X014885Y008990D01*
X014215Y009522D02*
X014215Y007770D01*
X014255Y007730D01*
X014235Y007730D01*
X014688Y007278D01*
X014870Y007278D01*
X014274Y007711D02*
X014255Y007730D01*
X014196Y006313D02*
X014826Y006313D01*
X014865Y006274D01*
X014869Y006278D01*
X014870Y006278D01*
X014924Y005289D02*
X014156Y005289D01*
X014870Y005278D02*
X014912Y005278D01*
X014924Y005289D01*
X013467Y003262D02*
X013465Y003260D01*
X013461Y003260D01*
X013467Y003242D01*
X013211Y003006D02*
X013211Y001707D01*
X013192Y001707D01*
X012837Y001352D01*
X011715Y001352D01*
X011207Y001860D01*
X011200Y001860D01*
X012200Y001860D02*
X012200Y002191D01*
X012975Y002967D01*
X011853Y004089D01*
X011853Y004561D01*
X011912Y005152D02*
X011617Y005447D01*
X011629Y005459D01*
X011629Y005459D01*
X011912Y005152D02*
X012719Y005152D01*
X012483Y004482D02*
X012483Y003931D01*
X012385Y003833D01*
X012444Y003774D01*
X012424Y003793D01*
X012444Y003774D02*
X013211Y003006D01*
X013999Y001077D02*
X013861Y000919D01*
X009688Y000919D01*
X009200Y001171D01*
X009200Y001860D01*
X008369Y004049D02*
X007936Y004502D01*
X007030Y004502D01*
X006892Y004640D01*
X007857Y004935D02*
X008487Y005565D01*
X007857Y004935D02*
X004865Y004935D01*
X005534Y004935D01*
X004865Y004935D02*
X004826Y004974D01*
X004826Y005426D01*
X004825Y005426D01*
X005615Y005917D02*
X005930Y005917D01*
X006026Y005821D01*
X006361Y005821D01*
X006381Y005821D01*
X006200Y002860D02*
X006200Y002852D01*
X003585Y003911D02*
X003566Y003911D01*
X003004Y004079D02*
X002994Y004089D01*
X000964Y003792D02*
X000964Y003337D01*
X000948Y003242D01*
X002522Y000703D02*
X002516Y000697D01*
X000810Y008852D02*
X000711Y008951D01*
X000711Y010073D01*
X001046Y010408D01*
X001381Y010427D01*
X001794Y010408D02*
X001794Y011234D01*
X002168Y010978D02*
X002798Y010978D01*
X002840Y011047D02*
X002847Y011047D01*
X002857Y011037D01*
X002857Y011923D02*
X002840Y011940D01*
X002503Y011943D02*
X002483Y011943D01*
X002306Y012120D01*
X002306Y013360D01*
X002857Y013911D01*
X002857Y015703D01*
X002813Y015747D01*
X002813Y016700D01*
X002813Y016672D01*
X002837Y016648D01*
X002837Y016687D02*
X002825Y016700D01*
X002869Y015749D02*
X002869Y015715D01*
X002857Y015703D01*
X004353Y017238D02*
X004373Y017238D01*
X004451Y017160D01*
X003738Y018966D02*
X003743Y018971D01*
X002710Y018966D02*
X002704Y018966D01*
X002700Y018971D01*
X002463Y018734D01*
X002463Y017750D01*
X003251Y013892D02*
X005278Y013892D01*
X005436Y013675D01*
X007365Y014167D02*
X007365Y013065D01*
X008487Y011943D01*
X008425Y012374D02*
X008408Y012396D01*
X008743Y012593D02*
X008841Y012593D01*
X009058Y012376D01*
X010889Y012376D01*
X011932Y011274D01*
X013211Y011274D01*
X014314Y011274D01*
X014786Y011746D01*
X015869Y011746D01*
X016892Y012770D01*
X017936Y012770D01*
X017955Y012789D01*
X018251Y012986D02*
X016656Y014581D01*
X016479Y014581D01*
X016499Y014600D01*
X016479Y014581D02*
X015751Y014581D01*
X015652Y014817D02*
X015644Y014825D01*
X013822Y015486D02*
X010790Y015486D01*
X010672Y015368D01*
X010398Y014190D02*
X010398Y013320D01*
X010593Y013124D01*
X010731Y013124D01*
X010829Y013026D01*
X011518Y013104D02*
X012857Y013104D01*
X012975Y013223D01*
X013192Y011274D02*
X013211Y011274D01*
X013585Y010998D02*
X014353Y010998D01*
X014845Y011490D01*
X015967Y011490D01*
X016951Y012474D01*
X017640Y012474D01*
X017759Y011864D02*
X017463Y011569D01*
X017463Y010715D01*
X017463Y010683D01*
X017857Y010715D02*
X017857Y010250D01*
X017640Y010034D01*
X015790Y010034D01*
X015239Y010585D01*
X014924Y011175D02*
X014963Y011215D01*
X016203Y011215D01*
X017759Y011864D02*
X018408Y011864D01*
X019038Y011234D01*
X019038Y010715D01*
X018644Y010715D02*
X018644Y008478D01*
X018428Y008262D01*
X018412Y008278D01*
X018410Y008278D01*
X018959Y008813D02*
X018959Y006923D01*
X019424Y006400D01*
X019503Y006400D01*
X019570Y005408D02*
X018566Y005408D01*
X018410Y005252D01*
X018410Y005278D01*
X018410Y005252D02*
X018408Y005250D01*
X018192Y004817D02*
X017955Y004817D01*
X017660Y005112D01*
X017660Y005998D01*
X017940Y006278D01*
X018424Y006278D01*
X018448Y006254D01*
X018424Y006278D02*
X018410Y006278D01*
X018369Y007258D02*
X017896Y007258D01*
X017739Y007415D01*
X017739Y008774D01*
X018251Y009286D01*
X018251Y010715D01*
X018408Y011864D02*
X018408Y012160D01*
X018290Y012986D02*
X018251Y012986D01*
X018290Y012986D02*
X019983Y012140D01*
X019983Y010112D01*
X018959Y008813D01*
X019503Y008400D02*
X019581Y007463D01*
X019589Y007455D01*
X019581Y007447D01*
X019503Y007400D01*
X018410Y007295D02*
X018410Y007278D01*
X018410Y007295D02*
X018408Y007297D01*
X018369Y007258D01*
X019503Y005400D02*
X019577Y005400D01*
X019570Y005408D01*
X019570Y005211D01*
X018979Y004679D01*
X018979Y003852D01*
X018574Y003388D01*
X018554Y003388D01*
X018428Y003262D01*
X018412Y003278D01*
X018410Y003278D01*
X018432Y003278D01*
X018448Y003262D01*
X018428Y004266D02*
X018416Y004278D01*
X018270Y004423D01*
X018231Y004384D01*
X018211Y004404D01*
X018211Y004797D01*
X018192Y004817D01*
X018211Y004482D02*
X018270Y004423D01*
X018410Y004278D02*
X018416Y004278D01*
X018410Y002278D02*
X018410Y001296D01*
X018392Y001278D01*
X018410Y001278D01*
X018392Y001278D02*
X018389Y001274D01*
X018410Y002278D02*
X019471Y002278D01*
X019530Y002219D01*
X019511Y002219D01*
X012601Y008282D02*
X012601Y009581D01*
X010613Y011589D01*
X010593Y011667D01*
X010711Y010349D02*
X011125Y010349D01*
X011144Y010329D01*
X010711Y010349D02*
X010692Y010329D01*
X010692Y008636D01*
X008979Y012750D02*
X008290Y013439D01*
X008211Y013419D01*
X007398Y014190D02*
X007388Y014190D01*
X007365Y014167D01*
X009176Y017041D02*
X009259Y017124D01*
X009259Y018396D01*
X009215Y018439D01*
X009219Y018439D01*
X008644Y017986D02*
X008644Y017967D01*
X009176Y017041D02*
X009180Y017041D01*
X011219Y018439D02*
X011223Y018439D01*
X011637Y018852D01*
X011637Y019660D01*
X002857Y013400D02*
X002840Y013146D01*
X002840Y012847D01*
X001676Y013459D02*
X001676Y013636D01*
X001460Y013852D01*
X001459Y013852D01*
X000849Y011923D02*
X000849Y010841D01*
X000770Y010762D01*
D29*
X000770Y010762D03*
X001381Y010427D03*
X001794Y010408D03*
X002168Y010978D03*
X001105Y011825D03*
X001676Y013459D03*
X002857Y013400D03*
X003251Y013892D03*
X003920Y014640D03*
X003940Y015073D03*
X005436Y013675D03*
X004747Y011372D03*
X004491Y010782D03*
X004077Y010782D03*
X003644Y011372D03*
X003802Y010014D03*
X003900Y009640D03*
X003172Y009502D03*
X002424Y009325D03*
X003054Y007829D03*
X003152Y006923D03*
X003369Y006608D03*
X003133Y006018D03*
X003507Y004817D03*
X004648Y006018D03*
X006223Y006195D03*
X006361Y005821D03*
X006459Y006530D03*
X006833Y006786D03*
X006991Y007455D03*
X006499Y007967D03*
X006184Y007120D03*
X005042Y007612D03*
X005042Y008006D03*
X004097Y007986D03*
X004865Y009443D03*
X006440Y009541D03*
X007030Y009305D03*
X007444Y009758D03*
X007050Y009797D03*
X006577Y010585D03*
X008310Y011707D03*
X008743Y012593D03*
X009097Y013085D03*
X008211Y013419D03*
X009491Y011333D03*
X009117Y010270D03*
X008723Y010270D03*
X008448Y009778D03*
X009156Y009030D03*
X009097Y008656D03*
X009648Y009384D03*
X009668Y009758D03*
X010239Y009660D03*
X010298Y009266D03*
X010967Y010014D03*
X011144Y010329D03*
X010829Y010644D03*
X010711Y010998D03*
X010613Y011589D03*
X010829Y013026D03*
X011518Y013104D03*
X013231Y012219D03*
X013251Y012632D03*
X013566Y011923D03*
X013133Y011608D03*
X013585Y010998D03*
X014924Y011175D03*
X015239Y010585D03*
X016203Y011215D03*
X017640Y012474D03*
X017955Y012789D03*
X017483Y013242D03*
X017207Y013518D03*
X016932Y013813D03*
X016597Y014089D03*
X017168Y014640D03*
X017640Y014404D03*
X017916Y014128D03*
X017109Y015408D03*
X015810Y018006D03*
X014235Y015506D03*
X014550Y013498D03*
X013979Y012947D03*
X011459Y009738D03*
X012995Y008478D03*
X012877Y007829D03*
X012857Y007415D03*
X012916Y006825D03*
X012936Y006392D03*
X012089Y005486D03*
X012719Y005152D03*
X012483Y004482D03*
X011814Y004600D03*
X011361Y004541D03*
X011007Y004738D03*
X010455Y004522D03*
X010081Y004699D03*
X009511Y004600D03*
X009196Y004856D03*
X008526Y004463D03*
X008487Y005565D03*
X008290Y006234D03*
X006892Y004640D03*
X003290Y002849D03*
X003113Y003203D03*
X003251Y001864D03*
X003133Y001097D03*
X003172Y000604D03*
X001755Y000683D03*
X000948Y003242D03*
X001696Y003616D03*
X001951Y004010D03*
X000889Y005978D03*
X000810Y008852D03*
X007385Y008734D03*
X010357Y007849D03*
X010436Y006982D03*
X011263Y006156D03*
X011558Y006726D03*
X011302Y008006D03*
X014235Y007730D03*
X014196Y006313D03*
X014156Y005289D03*
X015711Y003262D03*
X013999Y001077D03*
X014077Y000663D03*
X010455Y003872D03*
X014885Y008990D03*
X014215Y009522D03*
X018408Y012160D03*
X018211Y004797D03*
X019511Y002219D03*
X010672Y015368D03*
X007955Y016411D03*
X007896Y017081D03*
X007936Y015506D03*
X008644Y018911D03*
X004353Y017238D03*
X002463Y017750D03*
D30*
X008369Y019266D02*
X008369Y019286D01*
X008802Y019660D01*
X011637Y019660D01*
X010692Y008636D02*
X010692Y007967D01*
X010999Y007809D02*
X010999Y007683D01*
X010999Y007809D02*
X010999Y008607D01*
X010692Y008636D02*
X010684Y008628D01*
X010684Y008607D01*
X010062Y008636D02*
X010054Y008629D01*
X010054Y008607D01*
X010999Y007809D02*
X010999Y006266D01*
X010692Y005959D01*
X010692Y005447D01*
X010684Y005454D01*
X010684Y005459D01*
X010377Y005447D02*
X010377Y005171D01*
X010455Y005093D01*
X010455Y004522D01*
X010081Y004699D02*
X010062Y005447D01*
X010054Y005454D01*
X010054Y005459D01*
X010369Y005454D02*
X010369Y005459D01*
X010369Y005454D02*
X010377Y005447D01*
X009740Y005459D02*
X009740Y005164D01*
X009550Y004974D01*
X009550Y004620D01*
X009511Y004600D01*
X009196Y004856D02*
X009429Y005168D01*
X009429Y005457D01*
X008959Y005919D02*
X008950Y005929D01*
X008945Y005929D01*
X008959Y005919D02*
X008448Y005919D01*
X007951Y005423D01*
X005143Y005423D01*
X005615Y005906D02*
X005615Y005917D01*
X005613Y005919D01*
X005652Y006195D02*
X005613Y006234D01*
X005613Y006234D01*
X005613Y006217D01*
X005652Y006195D02*
X006223Y006195D01*
X006184Y006847D02*
X005613Y006847D01*
X004826Y008557D02*
X004825Y008558D01*
X004825Y008576D01*
X003133Y007061D02*
X003014Y007179D01*
X002542Y007179D01*
X002503Y007140D01*
X002481Y007161D01*
X002465Y007161D01*
X002463Y007455D02*
X002424Y007494D01*
X001676Y007494D01*
X001479Y007297D01*
X001479Y007061D01*
X001694Y006847D01*
X002465Y006847D01*
X002463Y007455D02*
X002465Y007457D01*
X002465Y007476D01*
X003684Y003518D02*
X003369Y003203D01*
X003113Y003203D01*
X003302Y002860D02*
X003290Y002849D01*
X003302Y002860D02*
X004200Y002860D01*
X003684Y003518D02*
X005101Y003518D01*
X005200Y003419D01*
X005200Y002860D01*
X004200Y001860D02*
X003255Y001860D01*
X003251Y001864D01*
X011007Y004738D02*
X011007Y005447D01*
X010999Y005455D01*
X010999Y005459D01*
X011282Y005447D02*
X011361Y005368D01*
X011361Y004541D01*
X011814Y004600D02*
X011853Y004561D01*
X012089Y005486D02*
X012109Y005919D01*
X012101Y005927D01*
X012099Y005927D01*
X012070Y006234D02*
X012385Y006234D01*
X012099Y006247D02*
X012082Y006247D01*
X012070Y006234D01*
X012070Y006549D02*
X012087Y006567D01*
X012099Y006567D01*
X011314Y005459D02*
X011294Y005459D01*
X011282Y005447D01*
M02*
