G75*
G70*
%OFA0B0*%
%FSLAX24Y24*%
%IPPOS*%
%LPD*%
%AMOC8*
5,1,8,0,0,1.08239X$1,22.5*
%
%ADD10C,0.0730*%
%ADD11R,0.0680X0.0680*%
%ADD12R,0.0356X0.0867*%
%ADD13C,0.0640*%
%ADD14R,0.0592X0.0710*%
%ADD15C,0.0820*%
%ADD16R,0.0820X0.0820*%
%ADD17R,0.0474X0.0513*%
%ADD18OC8,0.0720*%
%ADD19R,0.0513X0.0474*%
%ADD20R,0.0297X0.0552*%
%ADD21R,0.0592X0.0671*%
%ADD22C,0.0820*%
D10*
X001034Y000671D03*
X019711Y000671D03*
X019711Y019349D03*
X001034Y019349D03*
D11*
X001270Y007872D03*
X002047Y007852D03*
X002047Y006952D03*
X001270Y006972D03*
X001626Y006238D03*
X001626Y005338D03*
X001710Y002810D03*
X001710Y001910D03*
X017449Y003467D03*
X018349Y003467D03*
D12*
X009893Y007760D03*
X009500Y007760D03*
X009106Y007760D03*
D13*
X009398Y013910D02*
X009398Y014470D01*
X010398Y014470D02*
X010398Y013910D01*
X011398Y013910D02*
X011398Y014470D01*
X012398Y014470D02*
X012398Y013910D01*
X013398Y013910D02*
X013398Y014470D01*
X008398Y014470D02*
X008398Y013910D01*
X007398Y013910D02*
X007398Y014470D01*
X006398Y014470D02*
X006398Y013910D01*
X006710Y018686D02*
X006710Y019246D01*
X005710Y019246D02*
X005710Y018686D01*
X004710Y018686D02*
X004710Y019246D01*
X003710Y019246D02*
X003710Y018686D01*
X002710Y018686D02*
X002710Y019246D01*
X007710Y019246D02*
X007710Y018686D01*
X019089Y018165D02*
X019649Y018165D01*
X019649Y017165D02*
X019089Y017165D01*
X019089Y016165D02*
X019649Y016165D01*
X019649Y015165D02*
X019089Y015165D01*
X019089Y014165D02*
X019649Y014165D01*
X019649Y013165D02*
X019089Y013165D01*
D14*
X006382Y013021D03*
X005634Y013021D03*
X003286Y014493D03*
X002538Y014493D03*
D15*
X001327Y015378D03*
X001327Y013378D03*
X009180Y017041D03*
X010180Y017041D03*
X010219Y018439D03*
X009219Y018439D03*
X011219Y018439D03*
X012219Y018439D03*
X013219Y018439D03*
X014219Y018439D03*
X015644Y016833D03*
X015644Y015833D03*
X015644Y014833D03*
X017011Y017974D03*
X017011Y018974D03*
X019581Y008400D03*
X019581Y007400D03*
X019581Y006400D03*
X019581Y005400D03*
X019581Y004400D03*
X019581Y003400D03*
D16*
X015644Y013833D03*
D17*
X004743Y012514D03*
X004743Y011845D03*
X003644Y011825D03*
X003644Y012494D03*
X000999Y002396D03*
X000999Y001726D03*
D18*
X004200Y001860D03*
X005200Y001860D03*
X006200Y001860D03*
X007200Y001860D03*
X008200Y001860D03*
X009200Y001860D03*
X010200Y001860D03*
X011200Y001860D03*
X012200Y001860D03*
X012200Y002860D03*
X011200Y002860D03*
X010200Y002860D03*
X009200Y002860D03*
X008200Y002860D03*
X007200Y002860D03*
X006200Y002860D03*
X005200Y002860D03*
X004200Y002860D03*
D19*
X003152Y009943D03*
X002483Y009943D03*
D20*
X001723Y011285D03*
X000975Y011285D03*
X000975Y012309D03*
X001349Y012309D03*
X001723Y012309D03*
D21*
X001798Y009809D03*
X001050Y009809D03*
X001424Y008746D03*
X002172Y008746D03*
D22*
X001735Y016703D02*
X000995Y016703D01*
X000995Y017703D02*
X001735Y017703D01*
M02*
