G75*
G70*
%OFA0B0*%
%FSLAX24Y24*%
%IPPOS*%
%LPD*%
%AMOC8*
5,1,8,0,0,1.08239X$1,22.5*
%
%ADD10C,0.0030*%
%ADD11C,0.0010*%
%ADD12C,0.0080*%
%ADD13C,0.0087*%
%ADD14R,0.0300X0.0180*%
%ADD15R,0.0180X0.0300*%
D10*
X016332Y004138D02*
X016332Y004235D01*
X016380Y004283D01*
X016428Y004283D01*
X016477Y004235D01*
X016477Y004090D01*
X016380Y004090D01*
X016332Y004138D01*
X016477Y004090D02*
X016573Y004186D01*
X016622Y004283D01*
X016622Y004578D02*
X016332Y004384D01*
X016332Y004679D02*
X016525Y004872D01*
X016573Y004872D01*
X016622Y004824D01*
X016622Y004727D01*
X016573Y004679D01*
X016332Y004679D02*
X016332Y004872D01*
X016332Y004974D02*
X016332Y005167D01*
X016332Y005070D02*
X016622Y005070D01*
X016525Y004974D01*
X016332Y005268D02*
X016622Y005462D01*
X016573Y005563D02*
X016622Y005611D01*
X016622Y005708D01*
X016573Y005756D01*
X016525Y005756D01*
X016332Y005563D01*
X016332Y005756D01*
X016380Y005857D02*
X016573Y006051D01*
X016380Y006051D01*
X016332Y006003D01*
X016332Y005906D01*
X016380Y005857D01*
X016573Y005857D01*
X016622Y005906D01*
X016622Y006003D01*
X016573Y006051D01*
X016525Y006152D02*
X016622Y006249D01*
X016332Y006249D01*
X016332Y006152D02*
X016332Y006346D01*
X016332Y006447D02*
X016332Y006640D01*
X016332Y006544D02*
X016622Y006544D01*
X016525Y006447D01*
X016942Y006504D02*
X016942Y006359D01*
X016990Y006310D01*
X017087Y006310D01*
X017135Y006359D01*
X017135Y006504D01*
X017087Y006605D02*
X016990Y006605D01*
X016942Y006653D01*
X016942Y006750D01*
X016990Y006799D01*
X017087Y006799D01*
X017135Y006750D01*
X017135Y006653D01*
X017087Y006605D01*
X017135Y006900D02*
X017135Y006996D01*
X017184Y006948D02*
X016990Y006948D01*
X016942Y006996D01*
X016990Y007144D02*
X016942Y007193D01*
X016990Y007144D02*
X017184Y007144D01*
X017135Y007096D02*
X017135Y007193D01*
X017552Y007307D02*
X017600Y007258D01*
X017697Y007258D01*
X017745Y007307D01*
X017745Y007403D01*
X017697Y007452D01*
X017649Y007452D01*
X017649Y007258D01*
X017552Y007307D02*
X017552Y007403D01*
X017745Y007553D02*
X017552Y007650D01*
X017745Y007746D01*
X017745Y007848D02*
X017745Y007896D01*
X017552Y007896D01*
X017552Y007848D02*
X017552Y007944D01*
X017552Y008044D02*
X017552Y008189D01*
X017600Y008237D01*
X017649Y008189D01*
X017649Y008092D01*
X017697Y008044D01*
X017745Y008092D01*
X017745Y008237D01*
X017745Y008339D02*
X017745Y008387D01*
X017552Y008387D01*
X017552Y008339D02*
X017552Y008435D01*
X017600Y008535D02*
X017552Y008583D01*
X017552Y008680D01*
X017600Y008729D01*
X017697Y008729D01*
X017745Y008680D01*
X017745Y008583D01*
X017697Y008535D01*
X017600Y008535D01*
X017842Y008387D02*
X017891Y008387D01*
X017745Y008830D02*
X017552Y008830D01*
X017552Y009023D02*
X017697Y009023D01*
X017745Y008975D01*
X017745Y008830D01*
X017745Y009419D02*
X017842Y009516D01*
X017552Y009516D01*
X017552Y009612D02*
X017552Y009419D01*
X017842Y007896D02*
X017891Y007896D01*
X017745Y007158D02*
X017745Y007110D01*
X017649Y007013D01*
X017745Y007013D02*
X017552Y007013D01*
X017552Y006618D02*
X017552Y006570D01*
X017600Y006570D01*
X017600Y006618D01*
X017552Y006618D01*
X017455Y006522D01*
X017552Y006276D02*
X017745Y006276D01*
X017649Y006276D02*
X017745Y006373D01*
X017745Y006421D01*
X017697Y006175D02*
X017745Y006127D01*
X017745Y006030D01*
X017697Y005982D01*
X017600Y005982D01*
X017552Y006030D01*
X017552Y006127D01*
X017600Y006175D01*
X017697Y006175D01*
X017745Y005882D02*
X017745Y005785D01*
X017794Y005834D02*
X017600Y005834D01*
X017552Y005882D01*
X017600Y005684D02*
X017697Y005684D01*
X017745Y005636D01*
X017745Y005539D01*
X017697Y005491D01*
X017600Y005491D01*
X017552Y005539D01*
X017552Y005636D01*
X017600Y005684D01*
X017745Y005390D02*
X017745Y005342D01*
X017649Y005245D01*
X017745Y005245D02*
X017552Y005245D01*
X017552Y005144D02*
X017552Y004999D01*
X017600Y004950D01*
X017697Y004950D01*
X017745Y004999D01*
X017745Y005144D01*
X017842Y005144D02*
X017552Y005144D01*
X017552Y004849D02*
X017552Y004704D01*
X017600Y004656D01*
X017649Y004704D01*
X017649Y004849D01*
X017697Y004849D02*
X017552Y004849D01*
X017697Y004849D02*
X017745Y004801D01*
X017745Y004704D01*
X017745Y004555D02*
X017552Y004555D01*
X017552Y004409D01*
X017600Y004361D01*
X017745Y004361D01*
X017794Y004260D02*
X017600Y004260D01*
X017552Y004212D01*
X017552Y004115D01*
X017600Y004066D01*
X017794Y004066D01*
X017842Y004115D01*
X017842Y004212D01*
X017794Y004260D01*
X017649Y004163D02*
X017552Y004260D01*
X017232Y004294D02*
X016942Y004294D01*
X016990Y004395D02*
X016942Y004444D01*
X016942Y004589D01*
X017135Y004589D01*
X017135Y004690D02*
X016942Y004690D01*
X017135Y004690D02*
X017135Y004835D01*
X017087Y004883D01*
X016942Y004883D01*
X016990Y005033D02*
X016942Y005081D01*
X016990Y005033D02*
X017184Y005033D01*
X017135Y004985D02*
X017135Y005081D01*
X017087Y005181D02*
X017135Y005229D01*
X017135Y005326D01*
X017087Y005374D01*
X017039Y005374D01*
X017039Y005181D01*
X017087Y005181D02*
X016990Y005181D01*
X016942Y005229D01*
X016942Y005326D01*
X016942Y005476D02*
X017135Y005476D01*
X017135Y005572D02*
X017135Y005621D01*
X017135Y005572D02*
X017039Y005476D01*
X016990Y006016D02*
X016942Y006064D01*
X016942Y006161D01*
X016990Y006209D01*
X017039Y006209D01*
X017087Y006161D01*
X017087Y006064D01*
X017135Y006016D01*
X017184Y006016D01*
X017232Y006064D01*
X017232Y006161D01*
X017184Y006209D01*
X017135Y004395D02*
X016990Y004395D01*
X017087Y004294D02*
X017087Y004101D01*
X016942Y004101D02*
X017232Y004101D01*
D11*
X001398Y001692D02*
X001248Y001692D01*
X001298Y001692D02*
X001298Y001767D01*
X001323Y001792D01*
X001373Y001792D01*
X001398Y001767D01*
X001398Y001692D01*
X001298Y001742D02*
X001248Y001792D01*
X001248Y001839D02*
X001248Y001939D01*
X001248Y001987D02*
X001348Y002087D01*
X001373Y002087D01*
X001398Y002062D01*
X001398Y002012D01*
X001373Y001987D01*
X001398Y001889D02*
X001248Y001889D01*
X001248Y001987D02*
X001248Y002087D01*
X001398Y001889D02*
X001348Y001839D01*
X002190Y001915D02*
X002190Y001965D01*
X002215Y001990D01*
X002215Y002037D02*
X002190Y002062D01*
X002190Y002112D01*
X002215Y002137D01*
X002240Y002137D01*
X002265Y002112D01*
X002265Y002087D01*
X002265Y002112D02*
X002290Y002137D01*
X002315Y002137D01*
X002340Y002112D01*
X002340Y002062D01*
X002315Y002037D01*
X002315Y001990D02*
X002340Y001965D01*
X002340Y001915D01*
X002315Y001890D01*
X002215Y001890D01*
X002190Y001915D01*
X001016Y006181D02*
X000916Y006181D01*
X000891Y006206D01*
X000891Y006256D01*
X000916Y006281D01*
X000916Y006328D02*
X000891Y006353D01*
X000891Y006403D01*
X000916Y006428D01*
X000941Y006428D01*
X000966Y006403D01*
X000966Y006328D01*
X000916Y006328D01*
X000966Y006328D02*
X001016Y006378D01*
X001041Y006428D01*
X001016Y006281D02*
X001041Y006256D01*
X001041Y006206D01*
X001016Y006181D01*
X000800Y007677D02*
X000699Y007677D01*
X000674Y007702D01*
X000674Y007752D01*
X000699Y007777D01*
X000699Y007824D02*
X000674Y007849D01*
X000674Y007899D01*
X000699Y007924D01*
X000749Y007924D01*
X000775Y007899D01*
X000775Y007874D01*
X000749Y007824D01*
X000825Y007824D01*
X000825Y007924D01*
X000800Y007777D02*
X000825Y007752D01*
X000825Y007702D01*
X000800Y007677D01*
X000913Y008464D02*
X000913Y008489D01*
X000813Y008589D01*
X000813Y008614D01*
X000913Y008614D01*
X000961Y008589D02*
X000986Y008614D01*
X001036Y008614D01*
X001061Y008589D01*
X001061Y008489D01*
X001036Y008464D01*
X000986Y008464D01*
X000961Y008489D01*
X000966Y009291D02*
X000941Y009316D01*
X000966Y009291D02*
X001016Y009291D01*
X001041Y009316D01*
X001041Y009416D01*
X001016Y009441D01*
X000966Y009441D01*
X000941Y009416D01*
X000894Y009416D02*
X000894Y009391D01*
X000869Y009366D01*
X000819Y009366D01*
X000794Y009341D01*
X000794Y009316D01*
X000819Y009291D01*
X000869Y009291D01*
X000894Y009316D01*
X000894Y009341D01*
X000869Y009366D01*
X000819Y009366D02*
X000794Y009391D01*
X000794Y009416D01*
X000819Y009441D01*
X000869Y009441D01*
X000894Y009416D01*
X001030Y010787D02*
X001130Y010787D01*
X001030Y010887D01*
X001030Y010912D01*
X001055Y010937D01*
X001105Y010937D01*
X001130Y010912D01*
X001177Y010937D02*
X001177Y010812D01*
X001202Y010787D01*
X001252Y010787D01*
X001277Y010812D01*
X001277Y010937D01*
X002920Y010380D02*
X002920Y010355D01*
X002945Y010330D01*
X002995Y010330D01*
X003020Y010355D01*
X003020Y010380D01*
X002995Y010405D01*
X002945Y010405D01*
X002920Y010380D01*
X002945Y010330D02*
X002920Y010305D01*
X002920Y010280D01*
X002945Y010255D01*
X002995Y010255D01*
X003020Y010280D01*
X003020Y010305D01*
X002995Y010330D01*
X003067Y010330D02*
X003092Y010305D01*
X003167Y010305D01*
X003167Y010255D02*
X003167Y010405D01*
X003092Y010405D01*
X003067Y010380D01*
X003067Y010330D01*
X003117Y010305D02*
X003067Y010255D01*
X003194Y012224D02*
X003344Y012224D01*
X003344Y012299D01*
X003319Y012324D01*
X003269Y012324D01*
X003244Y012299D01*
X003244Y012224D01*
X003244Y012274D02*
X003194Y012324D01*
X003194Y012372D02*
X003294Y012472D01*
X003319Y012472D01*
X003344Y012447D01*
X003344Y012397D01*
X003319Y012372D01*
X003194Y012372D02*
X003194Y012472D01*
X004277Y012491D02*
X004277Y012391D01*
X004277Y012344D02*
X004327Y012294D01*
X004327Y012319D02*
X004327Y012244D01*
X004277Y012244D02*
X004427Y012244D01*
X004427Y012319D01*
X004402Y012344D01*
X004352Y012344D01*
X004327Y012319D01*
X004377Y012391D02*
X004427Y012441D01*
X004277Y012441D01*
X005912Y012456D02*
X005912Y012406D01*
X005937Y012381D01*
X005987Y012381D01*
X006012Y012406D01*
X006012Y012456D02*
X005962Y012481D01*
X005937Y012481D01*
X005912Y012456D01*
X005912Y012531D02*
X006012Y012531D01*
X006012Y012456D01*
X006059Y012456D02*
X006084Y012431D01*
X006159Y012431D01*
X006159Y012381D02*
X006159Y012531D01*
X006084Y012531D01*
X006059Y012506D01*
X006059Y012456D01*
X006109Y012431D02*
X006059Y012381D01*
X002695Y014940D02*
X002695Y015090D01*
X002619Y015090D01*
X002594Y015065D01*
X002594Y015015D01*
X002619Y014990D01*
X002695Y014990D01*
X002644Y014990D02*
X002594Y014940D01*
X002547Y015015D02*
X002447Y015015D01*
X002472Y014940D02*
X002472Y015090D01*
X002547Y015015D01*
X002485Y007688D02*
X002485Y007588D01*
X002485Y007638D02*
X002636Y007638D01*
X002586Y007588D01*
X002611Y007541D02*
X002636Y007516D01*
X002636Y007466D01*
X002611Y007441D01*
X002510Y007441D01*
X002485Y007466D01*
X002485Y007516D01*
X002510Y007541D01*
X009829Y008306D02*
X009929Y008306D01*
X009879Y008306D02*
X009879Y008456D01*
X009929Y008406D01*
X009976Y008431D02*
X009976Y008456D01*
X009976Y008431D02*
X010026Y008381D01*
X010026Y008306D01*
X010026Y008381D02*
X010076Y008431D01*
X010076Y008456D01*
D12*
X002347Y007402D02*
X001747Y007402D01*
X001570Y007422D02*
X000970Y007422D01*
X001326Y005788D02*
X001926Y005788D01*
X002010Y002360D02*
X001410Y002360D01*
X001455Y011478D02*
X001243Y011478D01*
X000789Y011628D02*
X000789Y011966D01*
X001909Y011966D02*
X001909Y011628D01*
X017899Y003767D02*
X017899Y003167D01*
D13*
X010129Y007445D02*
X010129Y008074D01*
X008870Y008074D02*
X008870Y007445D01*
D14*
X004743Y012179D03*
X003644Y012160D03*
X000999Y002061D03*
D15*
X002818Y009943D03*
M02*
