%
M48
M72
T01C0.0122
T02C0.0320
T03C0.0400
T04C0.0440
T05C0.0650
%
T01
X16634Y14469
X16063Y13917
X12717Y12461
X10079Y11417
X6299Y6614
X6358Y4469
X9921Y3701
X9921Y4350
X2520Y7657
X5650Y6949
X4508Y7441
X18976Y2047
X14705Y10413
X10433Y9843
X10768Y7835
X9823Y7677
X7362Y16909
X354Y5807
X1417Y3839
X1260Y10236
X571Y11654
X3406Y14902
X1634Y10807
X8976Y4429
X5689Y6024
X3110Y11201
X4213Y11201
X4114Y5846
X10610Y10157
X3819Y17067
X2618Y6752
X2598Y5846
X13701Y15335
X1929Y17579
X1220Y512
X4902Y13504
X7677Y13248
X2717Y13720
X17874Y11988
X15669Y11043
X14390Y11004
X13445Y12776
X12323Y7244
X13622Y5118
X12343Y7657
X13661Y6142
X8622Y8858
X8563Y8484
X10295Y12854
X6496Y9134
X6516Y9626
X5906Y9370
X3386Y14469
X7402Y15335
X413Y3071
X3366Y9469
X2638Y9331
X11024Y6555
X1161Y3445
X3563Y7815
X12461Y8307
X13701Y7559
X15177Y3091
X3268Y9843
X9134Y9587
X9705Y9488
X13681Y9350
X4508Y7835
X5965Y7795
X6850Y8563
X14350Y8819
X9114Y9213
X9764Y9094
X6043Y10413
X15276Y17835
X3957Y10610
X3543Y10610
X7953Y5394
X7756Y6063
X8661Y4685
X5827Y5650
X17677Y4626
X8563Y12913
X7776Y11535
X8957Y11161
X8583Y10098
X14016Y13327
X10984Y12933
X8189Y10098
X8110Y18740
X17106Y12303
X13051Y10827
X10295Y10472
X7913Y9606
X6909Y9587
X2717Y1693
X4331Y9272
X5925Y6358
X2598Y925
X2638Y433
X6457Y7283
X2972Y4646
X1890Y9154
X10827Y4370
X13543Y492
X12185Y4980
X11555Y5315
X13465Y906
X11949Y4311
X12402Y6220
X11280Y4429
X12382Y6654
X2756Y2677
X9547Y4528
X10472Y4567
X2579Y3031
X7992Y4291
X10728Y5984
X846Y10256
X276Y8681
X17421Y12618
X2835Y6437
X8209Y12421
X17106Y14232
X16398Y13642
X12697Y12047
X10925Y9567
X17382Y13957
X13031Y11752
X16673Y13346
X9902Y6811
X16949Y13071
X12598Y11437
X10177Y10827
X7421Y16240
X16575Y15236
X10138Y15197
X2323Y13228
X236Y10591
X1142Y13287
T02
X18835Y12993
X18835Y13993
X18835Y14993
X18835Y15993
X18835Y16993
X18835Y17993
X5863Y14019
X6863Y14019
X7863Y14019
X8863Y14019
X9863Y14019
X10863Y14019
X11863Y14019
X12863Y14019
X2176Y18794
X3176Y18794
X4176Y18794
X5176Y18794
X6176Y18794
X7176Y18794
T03
X18969Y3228
X18969Y4228
X18969Y5228
X18969Y6228
X18969Y7228
X18969Y8228
X15110Y13661
X15110Y14661
X15110Y15661
X15110Y16661
X11665Y2689
X10665Y2689
X9665Y2689
X8665Y2689
X7665Y2689
X6665Y2689
X11665Y1689
X10665Y1689
X9665Y1689
X8665Y1689
X7665Y1689
X6665Y1689
X5665Y2689
X4665Y2689
X5665Y1689
X4665Y1689
X3665Y2689
X3665Y1689
X16476Y17803
X16476Y18803
X8685Y18268
X9685Y18268
X10685Y18268
X11685Y18268
X12685Y18268
X13685Y18268
X8646Y16870
X9646Y16870
T04
X870Y16531
X870Y17531
T05
X500Y500
X19177Y500
X19177Y19177
X500Y19177
M30
