G75*
G70*
%OFA0B0*%
%FSLAX24Y24*%
%IPPOS*%
%LPD*%
%AMOC8*
5,1,8,0,0,1.08239X$1,22.5*
%
%ADD10C,0.0000*%
%ADD11C,0.0030*%
%ADD12C,0.0010*%
%ADD13C,0.0080*%
%ADD14C,0.0020*%
%ADD15C,0.0050*%
%ADD16C,0.0060*%
%ADD17C,0.0087*%
%ADD18C,0.0100*%
%ADD19R,0.0180X0.0300*%
%ADD20R,0.0600X0.0600*%
%ADD21R,0.0300X0.0180*%
D10*
X000534Y000171D02*
X000534Y019856D01*
X020219Y019856D01*
X020211Y000171D01*
X000534Y000171D01*
X000709Y000671D02*
X000746Y000822D01*
X000849Y000938D01*
X000995Y000994D01*
X001149Y000975D01*
X001277Y000887D01*
X001350Y000749D01*
X001350Y000593D01*
X001277Y000455D01*
X001149Y000367D01*
X000995Y000348D01*
X000849Y000404D01*
X000746Y000520D01*
X000709Y000671D01*
X000709Y019349D02*
X000746Y019500D01*
X000849Y019616D01*
X000995Y019672D01*
X001149Y019653D01*
X001277Y019565D01*
X001350Y019427D01*
X001350Y019271D01*
X001277Y019133D01*
X001149Y019045D01*
X000995Y019026D01*
X000849Y019082D01*
X000746Y019198D01*
X000709Y019349D01*
X019386Y019349D02*
X019423Y019500D01*
X019526Y019616D01*
X019672Y019672D01*
X019826Y019653D01*
X019954Y019565D01*
X020027Y019427D01*
X020027Y019271D01*
X019954Y019133D01*
X019826Y019045D01*
X019672Y019026D01*
X019526Y019082D01*
X019423Y019198D01*
X019386Y019349D01*
X019386Y000671D02*
X019423Y000822D01*
X019526Y000938D01*
X019672Y000994D01*
X019826Y000975D01*
X019954Y000887D01*
X020027Y000749D01*
X020027Y000593D01*
X019954Y000455D01*
X019826Y000367D01*
X019672Y000348D01*
X019526Y000404D01*
X019423Y000520D01*
X019386Y000671D01*
D11*
X019405Y002450D02*
X019405Y002740D01*
X019308Y002740D02*
X019502Y002740D01*
X019603Y002740D02*
X019603Y002450D01*
X019748Y002450D01*
X019796Y002498D01*
X019796Y002692D01*
X019748Y002740D01*
X019603Y002740D01*
X019898Y002740D02*
X019994Y002740D01*
X019946Y002740D02*
X019946Y002450D01*
X019898Y002450D02*
X019994Y002450D01*
X019207Y002740D02*
X019014Y002740D01*
X019014Y002450D01*
X019014Y002595D02*
X019110Y002595D01*
X017125Y001489D02*
X017125Y001243D01*
X017125Y001366D02*
X016755Y001366D01*
X016879Y001243D01*
X009125Y000999D02*
X009125Y000806D01*
X009077Y000757D01*
X008980Y000757D01*
X008931Y000806D01*
X008931Y000999D01*
X008980Y001047D01*
X009077Y001047D01*
X009125Y000999D01*
X008830Y001047D02*
X008637Y000757D01*
X008537Y000757D02*
X008440Y000757D01*
X008489Y000757D02*
X008489Y001047D01*
X008537Y001047D02*
X008440Y001047D01*
X008045Y000951D02*
X007851Y000757D01*
X007750Y000757D02*
X007750Y000951D01*
X007851Y000951D02*
X008045Y000757D01*
X007750Y000757D02*
X007605Y000757D01*
X007556Y000806D01*
X007556Y000951D01*
X007455Y000951D02*
X007455Y000757D01*
X007455Y000902D02*
X007262Y000902D01*
X007262Y000951D02*
X007359Y001047D01*
X007455Y000951D01*
X007262Y000951D02*
X007262Y000757D01*
X003275Y003561D02*
X003227Y003513D01*
X003275Y003561D02*
X003275Y003658D01*
X003227Y003707D01*
X003178Y003707D01*
X003130Y003658D01*
X003130Y003561D01*
X003082Y003513D01*
X003033Y003513D01*
X002985Y003561D01*
X002985Y003658D01*
X003033Y003707D01*
X003130Y003808D02*
X003082Y003856D01*
X003082Y003953D01*
X003130Y004001D01*
X003178Y004001D01*
X003178Y003808D01*
X003130Y003808D02*
X003227Y003808D01*
X003275Y003856D01*
X003275Y003953D01*
X003275Y004102D02*
X003082Y004102D01*
X003082Y004248D01*
X003130Y004296D01*
X003275Y004296D01*
X003275Y004397D02*
X003275Y004542D01*
X003227Y004591D01*
X003178Y004542D01*
X003178Y004445D01*
X003130Y004397D01*
X003082Y004445D01*
X003082Y004591D01*
X003130Y004692D02*
X003227Y004692D01*
X003275Y004740D01*
X003275Y004837D01*
X003227Y004885D01*
X003130Y004885D01*
X003082Y004837D01*
X003082Y004740D01*
X003130Y004692D01*
X003178Y004986D02*
X003082Y005083D01*
X003082Y005131D01*
X003082Y004986D02*
X003275Y004986D01*
X001641Y005026D02*
X001448Y005026D01*
X001544Y005026D02*
X001448Y005123D01*
X001448Y005171D01*
X001496Y004925D02*
X001544Y004925D01*
X001544Y004732D01*
X001496Y004732D02*
X001448Y004780D01*
X001448Y004877D01*
X001496Y004925D01*
X001641Y004877D02*
X001641Y004780D01*
X001593Y004732D01*
X001496Y004732D01*
X001448Y004631D02*
X001593Y004631D01*
X001641Y004582D01*
X001593Y004534D01*
X001641Y004485D01*
X001593Y004437D01*
X001448Y004437D01*
X001496Y004336D02*
X001448Y004288D01*
X001448Y004191D01*
X001496Y004142D01*
X001593Y004142D01*
X001641Y004191D01*
X001641Y004288D01*
X001593Y004336D01*
X001496Y004336D01*
X001496Y004041D02*
X001399Y004041D01*
X001351Y003993D01*
X001351Y003848D01*
X001641Y003848D01*
X001544Y003848D02*
X001544Y003993D01*
X001496Y004041D01*
X000874Y001574D02*
X000729Y001574D01*
X000729Y001284D01*
X000729Y001380D02*
X000874Y001380D01*
X000923Y001429D01*
X000923Y001526D01*
X000874Y001574D01*
X000826Y001380D02*
X000923Y001284D01*
X001024Y001332D02*
X001024Y001429D01*
X001072Y001477D01*
X001169Y001477D01*
X001217Y001429D01*
X001217Y001380D01*
X001024Y001380D01*
X001024Y001332D02*
X001072Y001284D01*
X001169Y001284D01*
X001319Y001284D02*
X001464Y001284D01*
X001512Y001332D01*
X001464Y001380D01*
X001367Y001380D01*
X001319Y001429D01*
X001367Y001477D01*
X001512Y001477D01*
X001613Y001429D02*
X001662Y001477D01*
X001758Y001477D01*
X001807Y001429D01*
X001807Y001380D01*
X001613Y001380D01*
X001613Y001332D02*
X001613Y001429D01*
X001613Y001332D02*
X001662Y001284D01*
X001758Y001284D01*
X001956Y001332D02*
X001956Y001526D01*
X001908Y001477D02*
X002005Y001477D01*
X001956Y001332D02*
X002005Y001284D01*
X014644Y012932D02*
X014692Y012883D01*
X014789Y012883D01*
X014837Y012932D01*
X014938Y012932D02*
X014987Y012883D01*
X015083Y012883D01*
X015132Y012932D01*
X015132Y013028D01*
X015083Y013077D01*
X014987Y013077D01*
X014938Y013028D01*
X014938Y012932D01*
X014837Y013125D02*
X014789Y013173D01*
X014692Y013173D01*
X014644Y013125D01*
X014644Y012932D01*
X015233Y012883D02*
X015233Y013077D01*
X015281Y013077D01*
X015330Y013028D01*
X015378Y013077D01*
X015426Y013028D01*
X015426Y012883D01*
X015330Y012883D02*
X015330Y013028D01*
X015528Y013077D02*
X015528Y012786D01*
X015528Y012883D02*
X015673Y012883D01*
X015721Y012932D01*
X015721Y013028D01*
X015673Y013077D01*
X015528Y013077D01*
X015822Y012932D02*
X015871Y012980D01*
X016016Y012980D01*
X016016Y013028D02*
X016016Y012883D01*
X015871Y012883D01*
X015822Y012932D01*
X015871Y013077D02*
X015967Y013077D01*
X016016Y013028D01*
X016117Y013028D02*
X016165Y013077D01*
X016310Y013077D01*
X016262Y012980D02*
X016165Y012980D01*
X016117Y013028D01*
X016117Y012883D02*
X016262Y012883D01*
X016310Y012932D01*
X016262Y012980D01*
X016412Y013028D02*
X016460Y013077D01*
X016605Y013077D01*
X016557Y012980D02*
X016460Y012980D01*
X016412Y013028D01*
X016412Y012883D02*
X016557Y012883D01*
X016605Y012932D01*
X016557Y012980D01*
X018300Y013986D02*
X018300Y014131D01*
X018348Y014179D01*
X018445Y014179D01*
X018493Y014131D01*
X018493Y013986D01*
X018493Y014082D02*
X018590Y014179D01*
X018542Y014280D02*
X018445Y014280D01*
X018397Y014329D01*
X018397Y014425D01*
X018445Y014474D01*
X018493Y014474D01*
X018493Y014280D01*
X018542Y014280D02*
X018590Y014329D01*
X018590Y014425D01*
X018542Y014575D02*
X018445Y014575D01*
X018397Y014623D01*
X018397Y014768D01*
X018397Y014869D02*
X018397Y014918D01*
X018590Y014918D01*
X018590Y014966D02*
X018590Y014869D01*
X018590Y014768D02*
X018590Y014623D01*
X018542Y014575D01*
X018300Y014918D02*
X018251Y014918D01*
X018445Y015066D02*
X018397Y015114D01*
X018397Y015211D01*
X018445Y015259D01*
X018493Y015259D01*
X018493Y015066D01*
X018445Y015066D02*
X018542Y015066D01*
X018590Y015114D01*
X018590Y015211D01*
X018397Y015361D02*
X018590Y015457D01*
X018397Y015554D01*
X018445Y015655D02*
X018397Y015704D01*
X018397Y015800D01*
X018445Y015849D01*
X018493Y015849D01*
X018493Y015655D01*
X018445Y015655D02*
X018542Y015655D01*
X018590Y015704D01*
X018590Y015800D01*
X018590Y015950D02*
X018397Y015950D01*
X018493Y015950D02*
X018397Y016047D01*
X018397Y016095D01*
X018397Y016490D02*
X018397Y016538D01*
X018590Y016538D01*
X018590Y016490D02*
X018590Y016587D01*
X018590Y016686D02*
X018397Y016686D01*
X018397Y016832D01*
X018445Y016880D01*
X018590Y016880D01*
X018590Y016981D02*
X018590Y017126D01*
X018542Y017175D01*
X018445Y017175D01*
X018397Y017126D01*
X018397Y016981D01*
X018687Y016981D01*
X018542Y017276D02*
X018397Y017276D01*
X018542Y017276D02*
X018590Y017324D01*
X018590Y017469D01*
X018397Y017469D01*
X018397Y017570D02*
X018397Y017667D01*
X018348Y017619D02*
X018542Y017619D01*
X018590Y017667D01*
X018300Y016538D02*
X018251Y016538D01*
X017395Y017085D02*
X017347Y017037D01*
X017250Y017037D01*
X017202Y017085D01*
X017202Y017279D01*
X017250Y017327D01*
X017347Y017327D01*
X017395Y017279D01*
X017100Y017279D02*
X017052Y017327D01*
X016955Y017327D01*
X016907Y017279D01*
X016807Y017327D02*
X016711Y017327D01*
X016759Y017327D02*
X016759Y017037D01*
X016711Y017037D02*
X016807Y017037D01*
X016907Y017037D02*
X017100Y017230D01*
X017100Y017279D01*
X017100Y017037D02*
X016907Y017037D01*
X014505Y017498D02*
X014457Y017547D01*
X014360Y017547D01*
X014312Y017595D01*
X014360Y017644D01*
X014505Y017644D01*
X014505Y017498D02*
X014457Y017450D01*
X014312Y017450D01*
X014212Y017450D02*
X014164Y017498D01*
X014164Y017692D01*
X014116Y017644D02*
X014212Y017644D01*
X014014Y017644D02*
X014014Y017450D01*
X013869Y017450D01*
X013821Y017498D01*
X013821Y017644D01*
X013720Y017595D02*
X013720Y017498D01*
X013671Y017450D01*
X013526Y017450D01*
X013526Y017353D02*
X013526Y017644D01*
X013671Y017644D01*
X013720Y017595D01*
X013427Y017644D02*
X013330Y017644D01*
X013378Y017692D02*
X013378Y017498D01*
X013427Y017450D01*
X013229Y017450D02*
X013229Y017644D01*
X013035Y017644D02*
X013035Y017498D01*
X013084Y017450D01*
X013229Y017450D01*
X012934Y017498D02*
X012934Y017595D01*
X012886Y017644D01*
X012789Y017644D01*
X012741Y017595D01*
X012741Y017498D01*
X012789Y017450D01*
X012886Y017450D01*
X012934Y017498D01*
X012346Y017644D02*
X012297Y017644D01*
X012200Y017547D01*
X012200Y017450D02*
X012200Y017644D01*
X012099Y017595D02*
X012051Y017644D01*
X011954Y017644D01*
X011906Y017595D01*
X011906Y017498D01*
X011954Y017450D01*
X012051Y017450D01*
X012099Y017498D01*
X012099Y017595D01*
X011806Y017644D02*
X011709Y017644D01*
X011758Y017692D02*
X011758Y017498D01*
X011806Y017450D01*
X011608Y017498D02*
X011608Y017595D01*
X011560Y017644D01*
X011463Y017644D01*
X011415Y017595D01*
X011415Y017498D01*
X011463Y017450D01*
X011560Y017450D01*
X011608Y017498D01*
X011314Y017450D02*
X011314Y017740D01*
X011217Y017644D01*
X011120Y017740D01*
X011120Y017450D01*
X011112Y016325D02*
X010967Y016325D01*
X010967Y016034D01*
X010967Y016131D02*
X011112Y016131D01*
X011160Y016180D01*
X011160Y016276D01*
X011112Y016325D01*
X011262Y016276D02*
X011262Y016180D01*
X011310Y016131D01*
X011407Y016131D01*
X011455Y016180D01*
X011455Y016276D01*
X011407Y016325D01*
X011310Y016325D01*
X011262Y016276D01*
X011556Y016325D02*
X011556Y016180D01*
X011605Y016131D01*
X011653Y016180D01*
X011701Y016131D01*
X011750Y016180D01*
X011750Y016325D01*
X011851Y016276D02*
X011899Y016325D01*
X011996Y016325D01*
X012044Y016276D01*
X012044Y016228D01*
X011851Y016228D01*
X011851Y016180D02*
X011851Y016276D01*
X011851Y016180D02*
X011899Y016131D01*
X011996Y016131D01*
X012146Y016131D02*
X012146Y016325D01*
X012242Y016325D02*
X012146Y016228D01*
X012242Y016325D02*
X012291Y016325D01*
X011465Y015065D02*
X011416Y015065D01*
X011320Y014968D01*
X011320Y014871D02*
X011320Y015065D01*
X011218Y015016D02*
X011218Y014968D01*
X011025Y014968D01*
X011025Y014920D02*
X011025Y015016D01*
X011073Y015065D01*
X011170Y015065D01*
X011218Y015016D01*
X011170Y014871D02*
X011073Y014871D01*
X011025Y014920D01*
X010925Y014871D02*
X010877Y014920D01*
X010877Y015113D01*
X010829Y015065D02*
X010925Y015065D01*
X010727Y015016D02*
X010727Y014968D01*
X010534Y014968D01*
X010534Y014920D02*
X010534Y015016D01*
X010582Y015065D01*
X010679Y015065D01*
X010727Y015016D01*
X010679Y014871D02*
X010582Y014871D01*
X010534Y014920D01*
X010433Y014871D02*
X010433Y015016D01*
X010384Y015065D01*
X010336Y015016D01*
X010336Y014871D01*
X010239Y014871D02*
X010239Y015065D01*
X010288Y015065D01*
X010336Y015016D01*
X010138Y015016D02*
X010090Y015065D01*
X009993Y015065D01*
X009945Y015016D01*
X009945Y014920D01*
X009993Y014871D01*
X010090Y014871D01*
X010138Y014920D01*
X010138Y015016D01*
X009844Y015065D02*
X009796Y015065D01*
X009699Y014968D01*
X009699Y014871D02*
X009699Y015065D01*
X009598Y015016D02*
X009598Y014968D01*
X009404Y014968D01*
X009404Y014920D02*
X009404Y015016D01*
X009453Y015065D01*
X009550Y015065D01*
X009598Y015016D01*
X009550Y014871D02*
X009453Y014871D01*
X009404Y014920D01*
X009305Y014871D02*
X009208Y014871D01*
X009256Y014871D02*
X009256Y015162D01*
X009208Y015162D01*
X009107Y015016D02*
X009107Y014968D01*
X008913Y014968D01*
X008913Y014920D02*
X008913Y015016D01*
X008962Y015065D01*
X009059Y015065D01*
X009107Y015016D01*
X009059Y014871D02*
X008962Y014871D01*
X008913Y014920D01*
X008812Y014871D02*
X008667Y014871D01*
X008619Y014920D01*
X008619Y015016D01*
X008667Y015065D01*
X008812Y015065D01*
X008518Y015065D02*
X008372Y015065D01*
X008324Y015016D01*
X008324Y014920D01*
X008372Y014871D01*
X008518Y014871D01*
X008223Y014871D02*
X008223Y015065D01*
X008126Y015162D01*
X008029Y015065D01*
X008029Y014871D01*
X008029Y015016D02*
X008223Y015016D01*
X008463Y016131D02*
X008463Y016421D01*
X008608Y016421D01*
X008656Y016373D01*
X008656Y016276D01*
X008608Y016228D01*
X008463Y016228D01*
X008559Y016228D02*
X008656Y016131D01*
X008757Y016180D02*
X008757Y016276D01*
X008806Y016325D01*
X008902Y016325D01*
X008951Y016276D01*
X008951Y016228D01*
X008757Y016228D01*
X008757Y016180D02*
X008806Y016131D01*
X008902Y016131D01*
X009052Y016180D02*
X009100Y016131D01*
X009245Y016131D01*
X009346Y016131D02*
X009443Y016131D01*
X009395Y016131D02*
X009395Y016325D01*
X009346Y016325D01*
X009245Y016325D02*
X009100Y016325D01*
X009052Y016276D01*
X009052Y016180D01*
X009395Y016421D02*
X009395Y016470D01*
X009591Y016325D02*
X009543Y016276D01*
X009543Y016180D01*
X009591Y016131D01*
X009688Y016131D01*
X009736Y016228D02*
X009543Y016228D01*
X009591Y016325D02*
X009688Y016325D01*
X009736Y016276D01*
X009736Y016228D01*
X009838Y016325D02*
X009934Y016131D01*
X010031Y016325D01*
X010132Y016276D02*
X010181Y016325D01*
X010277Y016325D01*
X010326Y016276D01*
X010326Y016228D01*
X010132Y016228D01*
X010132Y016180D02*
X010132Y016276D01*
X010132Y016180D02*
X010181Y016131D01*
X010277Y016131D01*
X010427Y016131D02*
X010427Y016325D01*
X010524Y016325D02*
X010572Y016325D01*
X010524Y016325D02*
X010427Y016228D01*
X007646Y017144D02*
X007598Y017096D01*
X007453Y017096D01*
X007352Y017096D02*
X007352Y017289D01*
X007453Y017241D02*
X007501Y017289D01*
X007646Y017289D01*
X007598Y017193D02*
X007501Y017193D01*
X007453Y017241D01*
X007598Y017193D02*
X007646Y017144D01*
X007352Y017096D02*
X007206Y017096D01*
X007158Y017144D01*
X007158Y017289D01*
X007058Y017289D02*
X006962Y017289D01*
X007010Y017338D02*
X007010Y017144D01*
X007058Y017096D01*
X006860Y017096D02*
X006860Y017241D01*
X006812Y017289D01*
X006715Y017289D01*
X006715Y017193D02*
X006860Y017193D01*
X006860Y017096D02*
X006715Y017096D01*
X006667Y017144D01*
X006715Y017193D01*
X006567Y017289D02*
X006471Y017289D01*
X006519Y017338D02*
X006519Y017144D01*
X006567Y017096D01*
X006369Y017144D02*
X006321Y017193D01*
X006224Y017193D01*
X006176Y017241D01*
X006224Y017289D01*
X006369Y017289D01*
X006369Y017144D02*
X006321Y017096D01*
X006176Y017096D01*
X005780Y017096D02*
X005780Y017241D01*
X005732Y017289D01*
X005683Y017241D01*
X005683Y017096D01*
X005587Y017096D02*
X005587Y017289D01*
X005635Y017289D01*
X005683Y017241D01*
X005485Y017241D02*
X005485Y017096D01*
X005389Y017096D02*
X005389Y017241D01*
X005437Y017289D01*
X005485Y017241D01*
X005389Y017241D02*
X005340Y017289D01*
X005292Y017289D01*
X005292Y017096D01*
X005191Y017144D02*
X005142Y017096D01*
X005046Y017096D01*
X004997Y017144D01*
X004997Y017241D01*
X005046Y017289D01*
X005142Y017289D01*
X005191Y017241D01*
X005191Y017144D01*
X004896Y017144D02*
X004848Y017096D01*
X004751Y017096D01*
X004703Y017144D01*
X004703Y017338D01*
X004751Y017386D01*
X004848Y017386D01*
X004896Y017338D01*
X004591Y017905D02*
X004543Y017905D01*
X004591Y017905D02*
X004640Y017953D01*
X004640Y018195D01*
X004741Y018195D02*
X004741Y018001D01*
X004741Y018098D02*
X004838Y018195D01*
X004886Y018195D01*
X004986Y018146D02*
X004986Y018050D01*
X005035Y018001D01*
X005131Y018001D01*
X005180Y018050D01*
X005180Y018146D01*
X005131Y018195D01*
X005035Y018195D01*
X004986Y018146D01*
X004640Y018001D02*
X004495Y018001D01*
X004446Y018050D01*
X004446Y018195D01*
X004345Y018243D02*
X004297Y018292D01*
X004200Y018292D01*
X004152Y018243D01*
X004152Y018050D01*
X004200Y018001D01*
X004297Y018001D01*
X004345Y018050D01*
X004345Y018146D01*
X004248Y018146D01*
X002275Y018383D02*
X002082Y018383D01*
X001688Y018431D02*
X001591Y018431D01*
X001639Y018479D02*
X001639Y018286D01*
X001688Y018238D01*
X001491Y018238D02*
X001443Y018286D01*
X001443Y018479D01*
X001491Y018431D02*
X001394Y018431D01*
X001293Y018383D02*
X001293Y018238D01*
X001148Y018238D01*
X001100Y018286D01*
X001148Y018334D01*
X001293Y018334D01*
X001293Y018383D02*
X001245Y018431D01*
X001148Y018431D01*
X000999Y018431D02*
X000950Y018383D01*
X000805Y018383D01*
X000805Y018528D02*
X000950Y018528D01*
X000999Y018479D01*
X000999Y018431D01*
X000950Y018383D02*
X000999Y018334D01*
X000999Y018286D01*
X000950Y018238D01*
X000805Y018238D01*
X000805Y018528D01*
X000852Y016284D02*
X000707Y016284D01*
X000707Y015993D01*
X000852Y015993D01*
X000900Y016042D01*
X000900Y016090D01*
X000852Y016139D01*
X000707Y016139D01*
X000852Y016139D02*
X000900Y016187D01*
X000900Y016235D01*
X000852Y016284D01*
X001050Y016187D02*
X001146Y016187D01*
X001195Y016139D01*
X001195Y015993D01*
X001050Y015993D01*
X001001Y016042D01*
X001050Y016090D01*
X001195Y016090D01*
X001296Y016187D02*
X001393Y016187D01*
X001344Y016235D02*
X001344Y016042D01*
X001393Y015993D01*
X001541Y016042D02*
X001541Y016235D01*
X001589Y016187D02*
X001492Y016187D01*
X001541Y016042D02*
X001589Y015993D01*
X001983Y016139D02*
X002177Y016139D01*
X002080Y016235D02*
X002080Y016042D01*
X001677Y014532D02*
X001581Y014532D01*
X001532Y014483D01*
X001532Y014290D01*
X001581Y014241D01*
X001677Y014241D01*
X001726Y014290D01*
X001726Y014483D02*
X001677Y014532D01*
X001431Y014532D02*
X001238Y014532D01*
X001334Y014532D02*
X001334Y014241D01*
X001136Y014387D02*
X001088Y014338D01*
X000943Y014338D01*
X000943Y014241D02*
X000943Y014532D01*
X001088Y014532D01*
X001136Y014483D01*
X001136Y014387D01*
X017911Y009956D02*
X017911Y009762D01*
X017960Y009714D01*
X018056Y009714D01*
X018105Y009762D01*
X018105Y009859D01*
X018008Y009859D01*
X017911Y009956D02*
X017960Y010004D01*
X018056Y010004D01*
X018105Y009956D01*
X018206Y010004D02*
X018206Y009714D01*
X018206Y009811D02*
X018351Y009811D01*
X018399Y009859D01*
X018399Y009956D01*
X018351Y010004D01*
X018206Y010004D01*
X018501Y009956D02*
X018501Y009907D01*
X018549Y009859D01*
X018646Y009859D01*
X018694Y009811D01*
X018694Y009762D01*
X018646Y009714D01*
X018549Y009714D01*
X018501Y009762D01*
X018501Y009956D02*
X018549Y010004D01*
X018646Y010004D01*
X018694Y009956D01*
X018590Y013986D02*
X018300Y013986D01*
D12*
X019126Y010210D02*
X019101Y010185D01*
X019101Y010085D01*
X019126Y010060D01*
X019176Y010060D01*
X019201Y010085D01*
X019201Y010135D01*
X019151Y010135D01*
X019201Y010185D02*
X019176Y010210D01*
X019126Y010210D01*
X019248Y010210D02*
X019248Y010060D01*
X019248Y010110D02*
X019324Y010110D01*
X019349Y010135D01*
X019349Y010185D01*
X019324Y010210D01*
X019248Y010210D01*
X019396Y010185D02*
X019396Y010160D01*
X019421Y010135D01*
X019471Y010135D01*
X019496Y010110D01*
X019496Y010085D01*
X019471Y010060D01*
X019421Y010060D01*
X019396Y010085D01*
X019396Y010185D02*
X019421Y010210D01*
X019471Y010210D01*
X019496Y010185D01*
X011642Y004952D02*
X011642Y004802D01*
X011592Y004802D02*
X011692Y004802D01*
X011592Y004902D02*
X011642Y004952D01*
X011545Y004952D02*
X011545Y004827D01*
X011520Y004802D01*
X011470Y004802D01*
X011445Y004827D01*
X011445Y004952D01*
X006277Y007938D02*
X006277Y007988D01*
X006252Y008013D01*
X006127Y008013D01*
X006202Y008060D02*
X006202Y008160D01*
X006127Y008135D02*
X006202Y008060D01*
X006277Y008135D02*
X006127Y008135D01*
X006127Y007913D02*
X006252Y007913D01*
X006277Y007938D01*
X002183Y006467D02*
X002183Y006367D01*
X002083Y006467D01*
X002058Y006467D01*
X002033Y006442D01*
X002033Y006392D01*
X002058Y006367D01*
X002068Y006363D02*
X002046Y006385D01*
X002046Y006428D01*
X002068Y006450D01*
X002089Y006450D01*
X002176Y006363D01*
X002176Y006450D01*
X002068Y006321D02*
X002046Y006321D01*
X002058Y006320D02*
X002033Y006320D01*
X002058Y006320D02*
X002108Y006270D01*
X002183Y006270D01*
X002176Y006277D02*
X002111Y006277D01*
X002068Y006321D01*
X002111Y006277D02*
X002068Y006234D01*
X002046Y006234D01*
X002058Y006220D02*
X002108Y006270D01*
X002058Y006220D02*
X002033Y006220D01*
X002040Y004715D02*
X001940Y004715D01*
X001914Y004690D01*
X001914Y004640D01*
X001940Y004615D01*
X001965Y004615D01*
X001990Y004640D01*
X001990Y004715D01*
X002008Y004712D02*
X002008Y004636D01*
X001983Y004611D01*
X001958Y004611D01*
X001933Y004636D01*
X001933Y004686D01*
X001958Y004712D01*
X002059Y004712D01*
X002084Y004686D01*
X002084Y004636D01*
X002059Y004611D01*
X002040Y004615D02*
X002065Y004640D01*
X002065Y004690D01*
X002040Y004715D01*
X002065Y004568D02*
X002015Y004518D01*
X002033Y004514D02*
X002084Y004564D01*
X002033Y004539D02*
X002033Y004464D01*
X002015Y004468D02*
X002015Y004543D01*
X001990Y004568D01*
X001940Y004568D01*
X001914Y004543D01*
X001914Y004468D01*
X002065Y004468D01*
X002084Y004464D02*
X001933Y004464D01*
X001933Y004539D01*
X001958Y004564D01*
X002008Y004564D01*
X002033Y004539D01*
X003084Y001527D02*
X003059Y001502D01*
X003059Y001452D01*
X003084Y001427D01*
X003109Y001427D01*
X003134Y001452D01*
X003134Y001527D01*
X003184Y001527D02*
X003084Y001527D01*
X003184Y001527D02*
X003209Y001502D01*
X003209Y001452D01*
X003184Y001427D01*
X003184Y001379D02*
X003209Y001354D01*
X003209Y001304D01*
X003184Y001279D01*
X003084Y001279D01*
X003059Y001304D01*
X003059Y001354D01*
X003084Y001379D01*
X003950Y012952D02*
X003925Y012977D01*
X003950Y012952D02*
X004000Y012952D01*
X004025Y012977D01*
X004025Y013027D01*
X004000Y013052D01*
X003975Y013052D01*
X003925Y013027D01*
X003925Y013102D01*
X004025Y013102D01*
X004072Y013102D02*
X004072Y013002D01*
X004122Y012952D01*
X004172Y013002D01*
X004172Y013102D01*
X004220Y013102D02*
X004295Y013102D01*
X004320Y013077D01*
X004320Y013027D01*
X004295Y013002D01*
X004220Y013002D01*
X004270Y013002D02*
X004320Y012952D01*
X004367Y012952D02*
X004467Y012952D01*
X004514Y012977D02*
X004514Y013077D01*
X004539Y013102D01*
X004589Y013102D01*
X004614Y013077D01*
X004614Y013027D02*
X004564Y013027D01*
X004614Y013027D02*
X004614Y012977D01*
X004589Y012952D01*
X004539Y012952D01*
X004514Y012977D01*
X004417Y013027D02*
X004367Y013027D01*
X004367Y013102D02*
X004367Y012952D01*
X004220Y012952D02*
X004220Y013102D01*
X004367Y013102D02*
X004467Y013102D01*
X003720Y015176D02*
X003620Y015176D01*
X003720Y015276D01*
X003720Y015301D01*
X003695Y015326D01*
X003645Y015326D01*
X003620Y015301D01*
X003572Y015301D02*
X003547Y015326D01*
X003497Y015326D01*
X003472Y015301D01*
X003472Y015201D01*
X003497Y015176D01*
X003547Y015176D01*
X003572Y015201D01*
X003733Y016161D02*
X003784Y016161D01*
X003809Y016186D01*
X003856Y016161D02*
X003956Y016161D01*
X003906Y016161D02*
X003906Y016311D01*
X003856Y016261D01*
X003809Y016286D02*
X003784Y016311D01*
X003733Y016311D01*
X003708Y016286D01*
X003708Y016186D01*
X003733Y016161D01*
X004003Y016186D02*
X004103Y016286D01*
X004103Y016186D01*
X004078Y016161D01*
X004028Y016161D01*
X004003Y016186D01*
X004003Y016286D01*
X004028Y016311D01*
X004078Y016311D01*
X004103Y016286D01*
X005900Y017334D02*
X005900Y017485D01*
X005975Y017485D01*
X006000Y017460D01*
X006000Y017409D01*
X005975Y017384D01*
X005900Y017384D01*
X005913Y017392D02*
X005988Y017392D01*
X006013Y017417D01*
X006013Y017467D01*
X005988Y017492D01*
X005913Y017492D01*
X005913Y017342D01*
X005950Y017384D02*
X006000Y017334D01*
X006013Y017342D02*
X005963Y017392D01*
X006047Y017435D02*
X006097Y017485D01*
X006097Y017334D01*
X006111Y017342D02*
X006111Y017492D01*
X006061Y017442D01*
X006061Y017342D02*
X006161Y017342D01*
X006147Y017334D02*
X006047Y017334D01*
X006195Y017359D02*
X006220Y017334D01*
X006270Y017334D01*
X006295Y017359D01*
X006295Y017409D01*
X006270Y017435D01*
X006245Y017435D01*
X006195Y017409D01*
X006195Y017485D01*
X006295Y017485D01*
X006308Y017492D02*
X006208Y017492D01*
X006208Y017417D01*
X006258Y017442D01*
X006283Y017442D01*
X006308Y017417D01*
X006308Y017367D01*
X006283Y017342D01*
X006233Y017342D01*
X006208Y017367D01*
X002163Y015837D02*
X002163Y015737D01*
X002163Y015726D02*
X002163Y015833D01*
X002163Y015787D02*
X002013Y015787D01*
X002063Y015737D01*
X002056Y015726D02*
X002003Y015780D01*
X002163Y015780D01*
X002088Y015640D02*
X002088Y015590D01*
X002083Y015570D02*
X002083Y015623D01*
X002013Y015590D02*
X002163Y015590D01*
X002163Y015570D02*
X002003Y015570D01*
X002003Y015676D01*
X002013Y015690D02*
X002013Y015590D01*
D13*
X001927Y015878D02*
X000727Y015878D01*
X000727Y012878D01*
X001927Y012878D01*
X001927Y015878D01*
X007397Y017553D02*
X007397Y018053D01*
X008247Y018053D02*
X008247Y017553D01*
X008680Y017291D02*
X008930Y017541D01*
X009430Y017541D01*
X009680Y017291D01*
X009930Y017541D01*
X010430Y017541D01*
X010680Y017291D01*
X010680Y016791D01*
X010430Y016541D01*
X009930Y016541D01*
X009680Y016791D01*
X009430Y016541D01*
X008930Y016541D01*
X008680Y016791D01*
X008680Y017291D01*
X008969Y017939D02*
X009469Y017939D01*
X009719Y018189D01*
X009969Y017939D01*
X010469Y017939D01*
X010719Y018189D01*
X010969Y017939D01*
X011469Y017939D01*
X011719Y018189D01*
X011969Y017939D01*
X012469Y017939D01*
X012719Y018189D01*
X012969Y017939D01*
X013469Y017939D01*
X013719Y018189D01*
X013969Y017939D01*
X014469Y017939D01*
X014719Y018189D01*
X014719Y018689D01*
X014469Y018939D01*
X013969Y018939D01*
X013719Y018689D01*
X013469Y018939D01*
X012969Y018939D01*
X012719Y018689D01*
X012469Y018939D01*
X011969Y018939D01*
X011719Y018689D01*
X011469Y018939D01*
X010969Y018939D01*
X010719Y018689D01*
X010469Y018939D01*
X009969Y018939D01*
X009719Y018689D01*
X009469Y018939D01*
X008969Y018939D01*
X008719Y018689D01*
X008719Y018189D01*
X008969Y017939D01*
X015144Y017083D02*
X015144Y016583D01*
X015394Y016333D01*
X015144Y016083D01*
X015144Y015583D01*
X015394Y015333D01*
X015144Y015083D01*
X015144Y014583D01*
X015394Y014333D01*
X015144Y014083D01*
X015144Y013583D01*
X015394Y013333D01*
X015894Y013333D01*
X016144Y013583D01*
X016144Y014083D01*
X015894Y014333D01*
X016144Y014583D01*
X016144Y015083D01*
X015894Y015333D01*
X016144Y015583D01*
X016144Y016083D01*
X015894Y016333D01*
X016144Y016583D01*
X016144Y017083D01*
X015894Y017333D01*
X015394Y017333D01*
X015144Y017083D01*
X016511Y017724D02*
X016761Y017474D01*
X017261Y017474D01*
X017511Y017724D01*
X017511Y018224D01*
X017261Y018474D01*
X017511Y018724D01*
X017511Y019224D01*
X017261Y019474D01*
X016761Y019474D01*
X016511Y019224D01*
X016511Y018724D01*
X016761Y018474D01*
X016511Y018224D01*
X016511Y017724D01*
X019253Y008900D02*
X019753Y008900D01*
X020003Y008650D01*
X020003Y008150D01*
X019753Y007900D01*
X020003Y007650D01*
X020003Y007150D01*
X019753Y006900D01*
X020003Y006650D01*
X020003Y006150D01*
X019753Y005900D01*
X020003Y005650D01*
X020003Y005150D01*
X019753Y004900D01*
X020003Y004650D01*
X020003Y004150D01*
X019753Y003900D01*
X020003Y003650D01*
X020003Y003150D01*
X019753Y002900D01*
X019253Y002900D01*
X019003Y003150D01*
X019003Y003650D01*
X019253Y003900D01*
X019003Y004150D01*
X019003Y004650D01*
X019253Y004900D01*
X019003Y005150D01*
X019003Y005650D01*
X019253Y005900D01*
X019003Y006150D01*
X019003Y006650D01*
X019253Y006900D01*
X019003Y007150D01*
X019003Y007650D01*
X019253Y007900D01*
X019003Y008150D01*
X019003Y008650D01*
X019253Y008900D01*
X011971Y008657D02*
X012001Y008750D01*
X012080Y008807D01*
X012178Y008807D01*
X012257Y008750D01*
X012287Y008657D01*
X012257Y008564D01*
X012178Y008507D01*
X012080Y008507D01*
X012001Y008564D01*
X011971Y008657D01*
X002887Y003192D02*
X002387Y003192D01*
X002265Y002608D02*
X002265Y001808D01*
X002387Y002342D02*
X002887Y002342D01*
X001445Y002208D02*
X001482Y002357D01*
X001583Y002471D01*
X001726Y002526D01*
X001878Y002507D01*
X002005Y002420D01*
X002076Y002285D01*
X002076Y002131D01*
X002005Y001996D01*
X001878Y001909D01*
X001726Y001890D01*
X001583Y001945D01*
X001482Y002059D01*
X001445Y002208D01*
X001265Y001808D02*
X001265Y002608D01*
X002293Y001147D02*
X002893Y001147D01*
X001214Y004242D02*
X000714Y004242D01*
X000714Y005092D02*
X001214Y005092D01*
X002257Y008606D02*
X002287Y008699D01*
X002366Y008756D01*
X002464Y008756D01*
X002543Y008699D01*
X002573Y008606D01*
X002543Y008513D01*
X002464Y008456D01*
X002366Y008456D01*
X002287Y008513D01*
X002257Y008606D01*
D14*
X001557Y004977D02*
X001411Y004977D01*
X001374Y004941D01*
X001374Y004831D01*
X001594Y004831D01*
X001594Y004941D01*
X001557Y004977D01*
X001594Y004756D02*
X001594Y004610D01*
X001374Y004610D01*
X001374Y004756D01*
X001484Y004683D02*
X001484Y004610D01*
X001594Y004535D02*
X001594Y004389D01*
X001374Y004389D01*
X001484Y004314D02*
X001484Y004168D01*
X001484Y004093D02*
X001521Y004057D01*
X001521Y003947D01*
X001521Y004020D02*
X001594Y004093D01*
X001484Y004093D02*
X001411Y004093D01*
X001374Y004057D01*
X001374Y003947D01*
X001594Y003947D01*
X001594Y003872D02*
X001594Y003726D01*
X001374Y003726D01*
X001374Y003872D01*
X001484Y003799D02*
X001484Y003726D01*
X001594Y003651D02*
X001374Y003651D01*
X001374Y003505D02*
X001594Y003505D01*
X001521Y003578D01*
X001594Y003651D01*
X001557Y003431D02*
X001411Y003431D01*
X001374Y003394D01*
X001374Y003320D01*
X001411Y003284D01*
X001557Y003284D01*
X001594Y003320D01*
X001594Y003394D01*
X001557Y003431D01*
X001484Y003210D02*
X001411Y003210D01*
X001374Y003173D01*
X001374Y003063D01*
X001594Y003063D01*
X001521Y003063D02*
X001521Y003173D01*
X001484Y003210D01*
X002006Y003175D02*
X002006Y003102D01*
X002043Y003065D01*
X002080Y003065D01*
X002116Y003102D01*
X002116Y003175D01*
X002153Y003212D01*
X002190Y003212D01*
X002227Y003175D01*
X002227Y003102D01*
X002190Y003065D01*
X002227Y002991D02*
X002006Y002991D01*
X002006Y002844D02*
X002227Y002991D01*
X002227Y002844D02*
X002006Y002844D01*
X002006Y002770D02*
X002006Y002623D01*
X002227Y002623D01*
X002227Y002770D01*
X002116Y002697D02*
X002116Y002623D01*
X002153Y002549D02*
X002190Y002549D01*
X002227Y002512D01*
X002227Y002439D01*
X002190Y002402D01*
X002116Y002439D02*
X002116Y002512D01*
X002153Y002549D01*
X002043Y002549D02*
X002006Y002512D01*
X002006Y002439D01*
X002043Y002402D01*
X002080Y002402D01*
X002116Y002439D01*
X002006Y003175D02*
X002043Y003212D01*
X002043Y003286D02*
X002006Y003323D01*
X002006Y003396D01*
X002043Y003433D01*
X002190Y003433D01*
X002227Y003396D01*
X002227Y003323D01*
X002190Y003286D01*
X002043Y003286D01*
X002006Y003507D02*
X002006Y003617D01*
X002043Y003654D01*
X002116Y003654D01*
X002153Y003617D01*
X002153Y003507D01*
X002153Y003581D02*
X002227Y003654D01*
X002116Y003728D02*
X002116Y003875D01*
X002006Y003949D02*
X002227Y003949D01*
X002227Y004096D01*
X002227Y004170D02*
X002227Y004317D01*
X002227Y004391D02*
X002227Y004501D01*
X002190Y004538D01*
X002043Y004538D01*
X002006Y004501D01*
X002006Y004391D01*
X002227Y004391D01*
X002116Y004243D02*
X002116Y004170D01*
X002006Y004170D02*
X002227Y004170D01*
X002006Y004170D02*
X002006Y004317D01*
X002080Y004612D02*
X002006Y004685D01*
X002227Y004685D01*
X002227Y004612D02*
X002227Y004759D01*
X002227Y003507D02*
X002006Y003507D01*
X001155Y002007D02*
X001155Y001860D01*
X001008Y002007D01*
X000971Y002007D01*
X000934Y001970D01*
X000934Y001897D01*
X000971Y001860D01*
X000934Y001786D02*
X001155Y001786D01*
X001081Y001712D01*
X001155Y001639D01*
X000934Y001639D01*
X000971Y001565D02*
X000934Y001528D01*
X000934Y001455D01*
X000971Y001418D01*
X001008Y001418D01*
X001045Y001455D01*
X001045Y001528D01*
X001081Y001565D01*
X001118Y001565D01*
X001155Y001528D01*
X001155Y001455D01*
X001118Y001418D01*
X003003Y001472D02*
X003040Y001436D01*
X003076Y001436D01*
X003113Y001472D01*
X003113Y001582D01*
X003040Y001582D02*
X003187Y001582D01*
X003223Y001546D01*
X003223Y001472D01*
X003187Y001436D01*
X003187Y001361D02*
X003223Y001325D01*
X003223Y001251D01*
X003187Y001215D01*
X003040Y001215D01*
X003003Y001251D01*
X003003Y001325D01*
X003040Y001361D01*
X003003Y001472D02*
X003003Y001546D01*
X003040Y001582D01*
X006165Y007854D02*
X006348Y007854D01*
X006385Y007891D01*
X006385Y007964D01*
X006348Y008001D01*
X006165Y008001D01*
X006275Y008075D02*
X006275Y008222D01*
X006385Y008185D02*
X006165Y008185D01*
X006275Y008075D01*
X005283Y012352D02*
X005320Y012389D01*
X005320Y012462D01*
X005283Y012499D01*
X005210Y012499D01*
X005173Y012462D01*
X005173Y012426D01*
X005210Y012352D01*
X005100Y012352D01*
X005100Y012499D01*
X005100Y012573D02*
X005247Y012573D01*
X005320Y012647D01*
X005247Y012720D01*
X005100Y012720D01*
X005100Y012794D02*
X005100Y012904D01*
X005137Y012941D01*
X005210Y012941D01*
X005247Y012904D01*
X005247Y012794D01*
X005320Y012794D02*
X005100Y012794D01*
X005247Y012868D02*
X005320Y012941D01*
X005320Y013015D02*
X005320Y013162D01*
X005283Y013236D02*
X005320Y013273D01*
X005320Y013346D01*
X005283Y013383D01*
X005210Y013383D01*
X005210Y013309D01*
X005137Y013236D02*
X005283Y013236D01*
X005137Y013236D02*
X005100Y013273D01*
X005100Y013346D01*
X005137Y013383D01*
X005100Y013162D02*
X005100Y013015D01*
X005320Y013015D01*
X005210Y013015D02*
X005210Y013089D01*
X004165Y015009D02*
X004018Y015009D01*
X004165Y015156D01*
X004165Y015192D01*
X004128Y015229D01*
X004055Y015229D01*
X004018Y015192D01*
X003944Y015192D02*
X003907Y015229D01*
X003834Y015229D01*
X003797Y015192D01*
X003797Y015045D01*
X003834Y015009D01*
X003907Y015009D01*
X003944Y015045D01*
X003998Y015960D02*
X003962Y015996D01*
X004109Y016143D01*
X004109Y015996D01*
X004072Y015960D01*
X003998Y015960D01*
X003962Y015996D02*
X003962Y016143D01*
X003998Y016180D01*
X004072Y016180D01*
X004109Y016143D01*
X003888Y015960D02*
X003741Y015960D01*
X003814Y015960D02*
X003814Y016180D01*
X003741Y016106D01*
X003667Y016143D02*
X003630Y016180D01*
X003556Y016180D01*
X003520Y016143D01*
X003520Y015996D01*
X003556Y015960D01*
X003630Y015960D01*
X003667Y015996D01*
X006439Y017210D02*
X006476Y017173D01*
X006549Y017173D01*
X006586Y017210D01*
X006660Y017210D02*
X006697Y017173D01*
X006770Y017173D01*
X006807Y017210D01*
X006807Y017356D01*
X006770Y017393D01*
X006697Y017393D01*
X006660Y017356D01*
X006660Y017210D01*
X006586Y017356D02*
X006549Y017393D01*
X006476Y017393D01*
X006439Y017356D01*
X006439Y017210D01*
X006881Y017173D02*
X006881Y017393D01*
X006954Y017320D01*
X007028Y017393D01*
X007028Y017173D01*
X007102Y017173D02*
X007102Y017393D01*
X007175Y017320D01*
X007249Y017393D01*
X007249Y017173D01*
X007323Y017283D02*
X007470Y017283D01*
X007544Y017393D02*
X007544Y017173D01*
X007691Y017173D01*
X007765Y017173D02*
X007765Y017393D01*
X007912Y017393D01*
X007986Y017393D02*
X007986Y017173D01*
X008096Y017173D01*
X008133Y017210D01*
X008133Y017356D01*
X008096Y017393D01*
X007986Y017393D01*
X007838Y017283D02*
X007765Y017283D01*
X007765Y017173D02*
X007912Y017173D01*
X011377Y004907D02*
X011377Y004724D01*
X011413Y004687D01*
X011487Y004687D01*
X011523Y004724D01*
X011523Y004907D01*
X011598Y004834D02*
X011671Y004907D01*
X011671Y004687D01*
X011598Y004687D02*
X011744Y004687D01*
D15*
X012114Y003986D02*
X012114Y003535D01*
X011964Y003535D02*
X012264Y003535D01*
X011964Y003836D02*
X012114Y003986D01*
X014365Y001563D02*
X014365Y001263D01*
X014365Y001413D02*
X013915Y001413D01*
X014065Y001263D01*
X013990Y001103D02*
X013915Y001028D01*
X013915Y000878D01*
X013990Y000803D01*
X014065Y000803D01*
X014140Y000878D01*
X014140Y001028D01*
X014215Y001103D01*
X014290Y001103D01*
X014365Y001028D01*
X014365Y000878D01*
X014290Y000803D01*
X012564Y000810D02*
X012564Y001111D01*
X012489Y001186D01*
X012339Y001186D01*
X012264Y001111D01*
X012264Y000810D01*
X012339Y000735D01*
X012489Y000735D01*
X012564Y000810D01*
X012107Y000735D02*
X011957Y000735D01*
X012032Y000735D02*
X012032Y001186D01*
X011957Y001186D02*
X012107Y001186D01*
X011797Y000960D02*
X011497Y000960D01*
X011337Y000735D02*
X011036Y001186D01*
X010876Y001186D02*
X010876Y000810D01*
X010801Y000735D01*
X010651Y000735D01*
X010576Y000810D01*
X010576Y001186D01*
X010416Y001036D02*
X010416Y000735D01*
X010416Y000960D02*
X010116Y000960D01*
X010116Y001036D02*
X010116Y000735D01*
X010116Y001036D02*
X010266Y001186D01*
X010416Y001036D01*
X011036Y000735D02*
X011337Y001186D01*
X004564Y001111D02*
X004564Y001036D01*
X004489Y000960D01*
X004339Y000960D01*
X004264Y001036D01*
X004264Y001111D01*
X004339Y001186D01*
X004489Y001186D01*
X004564Y001111D01*
X004489Y000960D02*
X004564Y000885D01*
X004564Y000810D01*
X004489Y000735D01*
X004339Y000735D01*
X004264Y000810D01*
X004264Y000885D01*
X004339Y000960D01*
X004104Y000735D02*
X003804Y000735D01*
X003954Y000735D02*
X003954Y001186D01*
X003804Y001036D01*
X004290Y010597D02*
X004890Y010597D01*
X004890Y011047D01*
X003390Y012847D02*
X003390Y013297D01*
X004040Y013297D01*
X004289Y015369D02*
X004289Y016129D01*
X004233Y016320D02*
X004233Y017080D01*
X003573Y017020D02*
X003153Y017020D01*
X003153Y016380D02*
X003573Y016380D01*
X003629Y016069D02*
X003209Y016069D01*
X003209Y015429D02*
X003629Y015429D01*
X006223Y015116D02*
X006373Y015266D01*
X006373Y014815D01*
X006223Y014815D02*
X006523Y014815D01*
X007423Y014865D02*
X007423Y015166D01*
X007573Y015316D01*
X007723Y015166D01*
X007723Y014865D01*
X007883Y014941D02*
X007958Y014865D01*
X008108Y014865D01*
X008183Y014941D01*
X008343Y014941D02*
X008418Y014865D01*
X008569Y014865D01*
X008644Y014941D01*
X008804Y014865D02*
X009104Y014865D01*
X009264Y014865D02*
X009564Y014865D01*
X009264Y014865D02*
X009264Y015316D01*
X009104Y015316D02*
X008804Y015316D01*
X008804Y014865D01*
X008804Y015091D02*
X008954Y015091D01*
X008644Y015241D02*
X008569Y015316D01*
X008418Y015316D01*
X008343Y015241D01*
X008343Y014941D01*
X008183Y015241D02*
X008108Y015316D01*
X007958Y015316D01*
X007883Y015241D01*
X007883Y014941D01*
X007723Y015091D02*
X007423Y015091D01*
X009724Y015091D02*
X010025Y015091D01*
X010185Y015316D02*
X010335Y015316D01*
X010260Y015316D02*
X010260Y014865D01*
X010185Y014865D02*
X010335Y014865D01*
X010492Y014865D02*
X010492Y015316D01*
X010792Y014865D01*
X010792Y015316D01*
X013223Y015191D02*
X013223Y015116D01*
X013298Y015041D01*
X013448Y015041D01*
X013523Y014966D01*
X013523Y014891D01*
X013448Y014815D01*
X013298Y014815D01*
X013223Y014891D01*
X013223Y014966D01*
X013298Y015041D01*
X013448Y015041D02*
X013523Y015116D01*
X013523Y015191D01*
X013448Y015266D01*
X013298Y015266D01*
X013223Y015191D01*
X014449Y015169D02*
X014449Y015319D01*
X014449Y015244D02*
X014899Y015244D01*
X014899Y015169D02*
X014899Y015319D01*
X014899Y015476D02*
X014449Y015476D01*
X014899Y015776D01*
X014449Y015776D01*
X014674Y015009D02*
X014674Y014709D01*
X014674Y014549D02*
X014674Y014399D01*
X014674Y014549D02*
X014824Y014549D01*
X014899Y014474D01*
X014899Y014324D01*
X014824Y014248D01*
X014524Y014248D01*
X014449Y014324D01*
X014449Y014474D01*
X014524Y014549D01*
X014599Y014088D02*
X014899Y014088D01*
X014674Y014088D02*
X014674Y013788D01*
X014599Y013788D02*
X014449Y013938D01*
X014599Y014088D01*
X014599Y013788D02*
X014899Y013788D01*
X014899Y013628D02*
X014449Y013628D01*
X014599Y013478D01*
X014449Y013328D01*
X014899Y013328D01*
X018293Y013140D02*
X018744Y013140D01*
X018744Y012990D02*
X018744Y013290D01*
X018444Y012990D02*
X018293Y013140D01*
X018243Y014190D02*
X018243Y014415D01*
X018319Y014490D01*
X018469Y014490D01*
X018544Y014415D01*
X018544Y014190D01*
X018694Y014190D02*
X018243Y014190D01*
X018544Y014340D02*
X018694Y014490D01*
X018694Y014650D02*
X018694Y014950D01*
X018619Y015111D02*
X018694Y015186D01*
X018694Y015336D01*
X018619Y015411D01*
X018694Y015571D02*
X018694Y015721D01*
X018694Y015646D02*
X018243Y015646D01*
X018243Y015571D02*
X018243Y015721D01*
X018243Y015878D02*
X018544Y015878D01*
X018694Y016028D01*
X018544Y016178D01*
X018243Y016178D01*
X018243Y016338D02*
X018694Y016338D01*
X018694Y016638D01*
X018694Y016798D02*
X018243Y016798D01*
X018243Y017024D01*
X018319Y017099D01*
X018469Y017099D01*
X018544Y017024D01*
X018544Y016798D01*
X018544Y016949D02*
X018694Y017099D01*
X018243Y016638D02*
X018243Y016338D01*
X018469Y016338D02*
X018469Y016488D01*
X018319Y015411D02*
X018243Y015336D01*
X018243Y015186D01*
X018319Y015111D01*
X018619Y015111D01*
X018469Y014800D02*
X018469Y014650D01*
X018694Y014650D02*
X018243Y014650D01*
X018243Y014950D01*
X016266Y017469D02*
X016266Y017620D01*
X016266Y017545D02*
X015815Y017545D01*
X015815Y017620D02*
X015815Y017469D01*
X015890Y017776D02*
X015815Y017851D01*
X015815Y018002D01*
X015890Y018077D01*
X015965Y018077D01*
X016266Y017776D01*
X016266Y018077D01*
X016191Y018237D02*
X015890Y018237D01*
X015815Y018312D01*
X015815Y018462D01*
X015890Y018537D01*
X016191Y018537D02*
X016266Y018462D01*
X016266Y018312D01*
X016191Y018237D01*
X014806Y018162D02*
X014806Y018012D01*
X014731Y017937D01*
X014506Y017937D01*
X014656Y017937D02*
X014806Y017786D01*
X014506Y017786D02*
X014506Y018237D01*
X014731Y018237D01*
X014806Y018162D01*
X014346Y018237D02*
X014046Y018237D01*
X014046Y017786D01*
X014346Y017786D01*
X014196Y018012D02*
X014046Y018012D01*
X013886Y017786D02*
X013886Y018237D01*
X013585Y018237D02*
X013585Y017786D01*
X013735Y017937D01*
X013886Y017786D01*
X013425Y017861D02*
X013425Y018162D01*
X013350Y018237D01*
X013200Y018237D01*
X013125Y018162D01*
X013125Y017861D01*
X013200Y017786D01*
X013350Y017786D01*
X013425Y017861D01*
X012965Y018012D02*
X012965Y018162D01*
X012890Y018237D01*
X012665Y018237D01*
X012665Y017786D01*
X012665Y017937D02*
X012890Y017937D01*
X012965Y018012D01*
X012504Y018012D02*
X012204Y018012D01*
X012044Y018012D02*
X011969Y017937D01*
X011744Y017937D01*
X011894Y017937D02*
X012044Y017786D01*
X012044Y018012D02*
X012044Y018162D01*
X011969Y018237D01*
X011744Y018237D01*
X011744Y017786D01*
X011584Y017786D02*
X011284Y017786D01*
X011284Y018237D01*
X011584Y018237D01*
X011434Y018012D02*
X011284Y018012D01*
X011123Y017937D02*
X011123Y018237D01*
X010823Y018237D02*
X010823Y017937D01*
X010973Y017786D01*
X011123Y017937D01*
X010663Y017786D02*
X010363Y017786D01*
X010363Y018237D01*
X010663Y018237D01*
X010513Y018012D02*
X010363Y018012D01*
X010206Y018237D02*
X010056Y018237D01*
X010131Y018237D02*
X010131Y017786D01*
X010056Y017786D02*
X010206Y017786D01*
X009896Y017861D02*
X009821Y017786D01*
X009671Y017786D01*
X009596Y017861D01*
X009596Y018162D01*
X009671Y018237D01*
X009821Y018237D01*
X009896Y018162D01*
X009435Y018237D02*
X009135Y018237D01*
X009135Y017786D01*
X009435Y017786D01*
X009285Y018012D02*
X009135Y018012D01*
X008975Y018012D02*
X008900Y017937D01*
X008675Y017937D01*
X008825Y017937D02*
X008975Y017786D01*
X008975Y018012D02*
X008975Y018162D01*
X008900Y018237D01*
X008675Y018237D01*
X008675Y017786D01*
X008714Y019184D02*
X008714Y019634D01*
X008864Y019484D01*
X009014Y019634D01*
X009014Y019184D01*
X009175Y019259D02*
X009175Y019559D01*
X009250Y019634D01*
X009400Y019634D01*
X009475Y019559D01*
X009475Y019259D01*
X009400Y019184D01*
X009250Y019184D01*
X009175Y019259D01*
X009635Y019634D02*
X009935Y019634D01*
X009785Y019634D02*
X009785Y019184D01*
X010095Y019259D02*
X010095Y019559D01*
X010170Y019634D01*
X010320Y019634D01*
X010396Y019559D01*
X010396Y019259D01*
X010320Y019184D01*
X010170Y019184D01*
X010095Y019259D01*
X010556Y019184D02*
X010556Y019634D01*
X010781Y019634D01*
X010856Y019559D01*
X010856Y019409D01*
X010781Y019334D01*
X010556Y019334D01*
X010706Y019334D02*
X010856Y019184D01*
X011016Y019409D02*
X011316Y019409D01*
X011476Y019259D02*
X011551Y019184D01*
X011701Y019184D01*
X011777Y019259D01*
X011777Y019559D01*
X011701Y019634D01*
X011551Y019634D01*
X011476Y019559D01*
X011476Y019259D01*
X011937Y019259D02*
X011937Y019634D01*
X012237Y019634D02*
X012237Y019259D01*
X012162Y019184D01*
X012012Y019184D01*
X011937Y019259D01*
X012397Y019634D02*
X012697Y019634D01*
X012547Y019634D02*
X012547Y019184D01*
X007835Y019666D02*
X007835Y019741D01*
X007760Y019816D01*
X007535Y019816D01*
X007535Y019666D01*
X007610Y019591D01*
X007760Y019591D01*
X007835Y019666D01*
X007685Y019966D02*
X007535Y019816D01*
X007685Y019966D02*
X007835Y020041D01*
X006644Y020091D02*
X006644Y019641D01*
X006344Y020091D01*
X006344Y019641D01*
X006187Y019641D02*
X006037Y019641D01*
X006112Y019641D02*
X006112Y020091D01*
X006037Y020091D02*
X006187Y020091D01*
X005877Y019866D02*
X005576Y019866D01*
X005416Y019716D02*
X005416Y020016D01*
X005341Y020091D01*
X005191Y020091D01*
X005116Y020016D01*
X005116Y019716D01*
X005191Y019641D01*
X005341Y019641D01*
X005416Y019716D01*
X004956Y019641D02*
X004806Y019791D01*
X004881Y019791D02*
X004656Y019791D01*
X004656Y019641D02*
X004656Y020091D01*
X004881Y020091D01*
X004956Y020016D01*
X004956Y019866D01*
X004881Y019791D01*
X004496Y020016D02*
X004496Y020091D01*
X004496Y020016D02*
X004345Y019866D01*
X004345Y019641D01*
X004345Y019866D02*
X004195Y020016D01*
X004195Y020091D01*
X004035Y020016D02*
X003960Y020091D01*
X003810Y020091D01*
X003735Y020016D01*
X003735Y019716D01*
X003810Y019641D01*
X003960Y019641D01*
X004035Y019716D01*
X004035Y019866D01*
X003885Y019866D01*
X002835Y019591D02*
X002535Y019591D01*
X002685Y019591D02*
X002685Y020041D01*
X002535Y019891D01*
X018293Y018290D02*
X018369Y018140D01*
X018519Y017990D01*
X018519Y018215D01*
X018594Y018290D01*
X018669Y018290D01*
X018744Y018215D01*
X018744Y018065D01*
X018669Y017990D01*
X018519Y017990D01*
X018307Y004426D02*
X018307Y004276D01*
X018307Y004351D02*
X018758Y004351D01*
X018758Y004276D02*
X018758Y004426D01*
X018683Y004116D02*
X018382Y004116D01*
X018307Y004041D01*
X018307Y003815D01*
X018758Y003815D01*
X018758Y004041D01*
X018683Y004116D01*
X018307Y003655D02*
X018307Y003355D01*
X018307Y003505D02*
X018758Y003505D01*
X018533Y003045D02*
X018533Y002895D01*
X018758Y002895D02*
X018307Y002895D01*
X018307Y003195D01*
D16*
X017440Y002978D02*
X015840Y002978D01*
X015840Y003578D01*
X017440Y003578D01*
X017440Y002978D01*
X017440Y002578D02*
X015840Y002578D01*
X015840Y001978D01*
X017440Y001978D01*
X017440Y002578D01*
X017440Y001578D02*
X015840Y001578D01*
X015840Y000978D01*
X017440Y000978D01*
X017440Y001578D01*
X017900Y000528D02*
X015380Y000528D01*
X015380Y009028D01*
X017900Y009028D01*
X017900Y000528D01*
X017440Y003978D02*
X015840Y003978D01*
X015840Y004578D01*
X017440Y004578D01*
X017440Y003978D01*
X017440Y004978D02*
X015840Y004978D01*
X015840Y005578D01*
X017440Y005578D01*
X017440Y004978D01*
X017440Y005978D02*
X015840Y005978D01*
X015840Y006578D01*
X017440Y006578D01*
X017440Y005978D01*
X017440Y006978D02*
X015840Y006978D01*
X015840Y007578D01*
X017440Y007578D01*
X017440Y006978D01*
X017440Y007978D02*
X015840Y007978D01*
X015840Y008578D01*
X017440Y008578D01*
X017440Y007978D01*
X018869Y012665D02*
X018869Y013565D01*
X018969Y013665D01*
X018869Y013765D01*
X018869Y014565D01*
X018969Y014665D01*
X018869Y014765D01*
X018869Y015565D01*
X018969Y015665D01*
X018869Y015765D01*
X018869Y016565D01*
X018969Y016665D01*
X018869Y016765D01*
X018869Y017565D01*
X018969Y017665D01*
X018869Y017765D01*
X018869Y018665D01*
X019869Y018665D01*
X019869Y017765D01*
X019769Y017665D01*
X019869Y017565D01*
X019869Y016765D01*
X019769Y016665D01*
X019869Y016565D01*
X019869Y015765D01*
X019769Y015665D01*
X019869Y015565D01*
X019869Y014765D01*
X019769Y014665D01*
X019869Y014565D01*
X019869Y013765D01*
X019769Y013665D01*
X019869Y013565D01*
X019869Y012665D01*
X018869Y012665D01*
X013898Y013690D02*
X012998Y013690D01*
X012898Y013790D01*
X012798Y013690D01*
X011998Y013690D01*
X011898Y013790D01*
X011798Y013690D01*
X010998Y013690D01*
X010898Y013790D01*
X010798Y013690D01*
X009998Y013690D01*
X009898Y013790D01*
X009798Y013690D01*
X008998Y013690D01*
X008898Y013790D01*
X008798Y013690D01*
X007998Y013690D01*
X007898Y013790D01*
X007798Y013690D01*
X006998Y013690D01*
X006898Y013790D01*
X006798Y013690D01*
X005898Y013690D01*
X005898Y014690D01*
X006798Y014690D01*
X006898Y014590D01*
X006998Y014690D01*
X007798Y014690D01*
X007898Y014590D01*
X007998Y014690D01*
X008798Y014690D01*
X008898Y014590D01*
X008998Y014690D01*
X009798Y014690D01*
X009898Y014590D01*
X009998Y014690D01*
X010798Y014690D01*
X010898Y014590D01*
X010998Y014690D01*
X011798Y014690D01*
X011898Y014590D01*
X011998Y014690D01*
X012798Y014690D01*
X012898Y014590D01*
X012998Y014690D01*
X013898Y014690D01*
X013898Y013690D01*
X008210Y018466D02*
X008210Y019466D01*
X007310Y019466D01*
X007210Y019366D01*
X007110Y019466D01*
X006310Y019466D01*
X006210Y019366D01*
X006110Y019466D01*
X005310Y019466D01*
X005210Y019366D01*
X005110Y019466D01*
X004310Y019466D01*
X004210Y019366D01*
X004110Y019466D01*
X003310Y019466D01*
X003210Y019366D01*
X003110Y019466D01*
X002210Y019466D01*
X002210Y018466D01*
X003110Y018466D01*
X003210Y018566D01*
X003310Y018466D01*
X004110Y018466D01*
X004210Y018566D01*
X004310Y018466D01*
X005110Y018466D01*
X005210Y018566D01*
X005310Y018466D01*
X006110Y018466D01*
X006210Y018566D01*
X006310Y018466D01*
X007110Y018466D01*
X007210Y018566D01*
X007310Y018466D01*
X008210Y018466D01*
X008450Y003360D02*
X007950Y003360D01*
X007700Y003110D01*
X007450Y003360D01*
X006950Y003360D01*
X006700Y003110D01*
X006450Y003360D01*
X005950Y003360D01*
X005700Y003110D01*
X005450Y003360D01*
X004950Y003360D01*
X004700Y003110D01*
X004450Y003360D01*
X003950Y003360D01*
X003700Y003110D01*
X003700Y001610D01*
X003950Y001360D01*
X004450Y001360D01*
X004700Y001610D01*
X004950Y001360D01*
X005450Y001360D01*
X005700Y001610D01*
X005950Y001360D01*
X006450Y001360D01*
X006700Y001610D01*
X006950Y001360D01*
X007450Y001360D01*
X007700Y001610D01*
X007950Y001360D01*
X008450Y001360D01*
X008700Y001610D01*
X008950Y001360D01*
X009450Y001360D01*
X009700Y001610D01*
X009950Y001360D01*
X010450Y001360D01*
X010700Y001610D01*
X010950Y001360D01*
X011450Y001360D01*
X011700Y001610D01*
X011950Y001360D01*
X012450Y001360D01*
X012700Y001610D01*
X012700Y003110D01*
X012450Y003360D01*
X011950Y003360D01*
X011700Y003110D01*
X011450Y003360D01*
X010950Y003360D01*
X010700Y003110D01*
X010450Y003360D01*
X009950Y003360D01*
X009700Y003110D01*
X009450Y003360D01*
X008950Y003360D01*
X008700Y003110D01*
X008450Y003360D01*
D17*
X001825Y005286D02*
X001195Y005286D01*
X001195Y006546D02*
X001825Y006546D01*
D18*
X016732Y010465D02*
X016732Y011015D01*
X016732Y010465D02*
X017132Y010465D01*
X017432Y011865D02*
X019038Y011865D01*
X019738Y011015D02*
X019738Y010465D01*
X019338Y010465D01*
D19*
X005987Y017789D03*
D20*
X016140Y008278D03*
X016140Y007278D03*
X016140Y006278D03*
X016140Y005278D03*
X016140Y004278D03*
X016140Y003278D03*
X016140Y002278D03*
X016140Y001278D03*
D21*
X002389Y004809D03*
M02*
