%
M48
M72
T01C0.0118
T02C0.0315
T03C0.0320
T04C0.0400
T05C0.0440
T06C0.0650
%
T01
X1755Y683
X3172Y604
X3133Y1097
X3251Y1864
X3290Y2849
X3113Y3203
X1951Y4010
X1696Y3616
X948Y3242
X3507Y4817
X3133Y6018
X3369Y6608
X3152Y6923
X3054Y7829
X4097Y7986
X5042Y8006
X5042Y7612
X6184Y7120
X6459Y6530
X6223Y6195
X6361Y5821
X6833Y6786
X6991Y7455
X6499Y7967
X7385Y8734
X7030Y9305
X7444Y9758
X7050Y9797
X6440Y9541
X6577Y10585
X8310Y11707
X8743Y12593
X9097Y13085
X8211Y13419
X9491Y11333
X9117Y10270
X8723Y10270
X8448Y9778
X9156Y9030
X9097Y8656
X9648Y9384
X9668Y9758
X10239Y9660
X10298Y9266
X10967Y10014
X11144Y10329
X10829Y10644
X10711Y10998
X10613Y11589
X10829Y13026
X11518Y13104
X13231Y12219
X13251Y12632
X13566Y11923
X13133Y11608
X13585Y10998
X14924Y11175
X15239Y10585
X16203Y11215
X17640Y12474
X17955Y12789
X17483Y13242
X17207Y13518
X16932Y13813
X16597Y14089
X17168Y14640
X17640Y14404
X17916Y14128
X17109Y15408
X15810Y18006
X14235Y15506
X14550Y13498
X13979Y12947
X11459Y9738
X12995Y8478
X12877Y7829
X12857Y7415
X12916Y6825
X12936Y6392
X12089Y5486
X12719Y5152
X12483Y4482
X11814Y4600
X11361Y4541
X11007Y4738
X10455Y4522
X10081Y4699
X9511Y4600
X9196Y4856
X8526Y4463
X8487Y5565
X8290Y6234
X6892Y4640
X4648Y6018
X2424Y9325
X3172Y9502
X3802Y10014
X3900Y9640
X4865Y9443
X4491Y10782
X4077Y10782
X3644Y11372
X4747Y11372
X2857Y13400
X3251Y13892
X3920Y14640
X3940Y15073
X5436Y13675
X7936Y15506
X7955Y16411
X7896Y17081
X8644Y18911
X10672Y15368
X14215Y9522
X14885Y8990
X14235Y7730
X14196Y6313
X14156Y5289
X15711Y3262
X13999Y1077
X14077Y663
X10455Y3872
X11263Y6156
X11558Y6726
X10436Y6982
X10357Y7849
X11302Y8006
X18211Y4797
X19511Y2219
X18408Y12160
X4353Y17238
X2463Y17750
X1105Y11825
X2168Y10978
X1794Y10408
X1381Y10427
X770Y10762
X810Y8852
X889Y5978
T02
X1327Y13378
X1327Y15378
T03
X2710Y18966
X3710Y18966
X4710Y18966
X5710Y18966
X6710Y18966
X7710Y18966
X7398Y14190
X8398Y14190
X9398Y14190
X10398Y14190
X11398Y14190
X12398Y14190
X13398Y14190
X19369Y14165
X19369Y15165
X19369Y16165
X19369Y17165
X19369Y18165
X19369Y13165
X6398Y14190
T04
X9180Y17041
X10180Y17041
X10219Y18439
X9219Y18439
X11219Y18439
X12219Y18439
X13219Y18439
X14219Y18439
X15644Y16833
X15644Y15833
X15644Y14833
X15644Y13833
X17011Y17974
X17011Y18974
X19581Y8400
X19581Y7400
X19581Y6400
X19581Y5400
X19581Y4400
X19581Y3400
X12200Y2860
X11200Y2860
X11200Y1860
X12200Y1860
X10200Y1860
X10200Y2860
X9200Y2860
X9200Y1860
X8200Y1860
X8200Y2860
X7200Y2860
X7200Y1860
X6200Y1860
X6200Y2860
X5200Y2860
X5200Y1860
X4200Y1860
X4200Y2860
T05
X1365Y16703
X1365Y17703
T06
X1034Y671
X19711Y671
X19711Y19349
X1034Y19349
M30
