G75*
G70*
%OFA0B0*%
%FSLAX24Y24*%
%IPPOS*%
%LPD*%
%AMOC8*
5,1,8,0,0,1.08239X$1,22.5*
%
%ADD10C,0.0000*%
%ADD11C,0.0690*%
%ADD12C,0.0210*%
%ADD13R,0.0480X0.0740*%
%ADD14R,0.0640X0.0640*%
%ADD15C,0.0560*%
%ADD16R,0.0827X0.0316*%
%ADD17R,0.0820X0.0440*%
%ADD18R,0.0840X0.0640*%
%ADD19R,0.0840X0.1540*%
%ADD20C,0.0780*%
%ADD21R,0.0780X0.0780*%
%ADD22R,0.0512X0.0749*%
%ADD23R,0.0276X0.0650*%
%ADD24OC8,0.0640*%
%ADD25R,0.0473X0.0434*%
%ADD26C,0.0780*%
%ADD27R,0.0830X0.0470*%
%ADD28R,0.0434X0.0473*%
D10*
X000534Y000171D02*
X000534Y019856D01*
X020219Y019856D01*
X020211Y000171D01*
X000534Y000171D01*
X000709Y000671D02*
X000746Y000822D01*
X000849Y000938D01*
X000995Y000994D01*
X001149Y000975D01*
X001277Y000887D01*
X001350Y000749D01*
X001350Y000593D01*
X001277Y000455D01*
X001149Y000367D01*
X000995Y000348D01*
X000849Y000404D01*
X000746Y000520D01*
X000709Y000671D01*
X000709Y019349D02*
X000746Y019500D01*
X000849Y019616D01*
X000995Y019672D01*
X001149Y019653D01*
X001277Y019565D01*
X001350Y019427D01*
X001350Y019271D01*
X001277Y019133D01*
X001149Y019045D01*
X000995Y019026D01*
X000849Y019082D01*
X000746Y019198D01*
X000709Y019349D01*
X019386Y019349D02*
X019423Y019500D01*
X019526Y019616D01*
X019672Y019672D01*
X019826Y019653D01*
X019954Y019565D01*
X020027Y019427D01*
X020027Y019271D01*
X019954Y019133D01*
X019826Y019045D01*
X019672Y019026D01*
X019526Y019082D01*
X019423Y019198D01*
X019386Y019349D01*
X019386Y000671D02*
X019423Y000822D01*
X019526Y000938D01*
X019672Y000994D01*
X019826Y000975D01*
X019954Y000887D01*
X020027Y000749D01*
X020027Y000593D01*
X019954Y000455D01*
X019826Y000367D01*
X019672Y000348D01*
X019526Y000404D01*
X019423Y000520D01*
X019386Y000671D01*
D11*
X019711Y000671D03*
X001034Y000671D03*
X001034Y019349D03*
X019711Y019349D03*
D12*
X011629Y008872D02*
X011629Y008342D01*
X011314Y008342D02*
X011314Y008872D01*
X010999Y008872D02*
X010999Y008342D01*
X010684Y008342D02*
X010684Y008872D01*
X010369Y008872D02*
X010369Y008342D01*
X010054Y008342D02*
X010054Y008872D01*
X009740Y008872D02*
X009740Y008342D01*
X009425Y008342D02*
X009425Y008872D01*
X009214Y008137D02*
X008684Y008137D01*
X008684Y007817D02*
X009214Y007817D01*
X009214Y007507D02*
X008684Y007507D01*
X008684Y007187D02*
X009214Y007187D01*
X009214Y006877D02*
X008684Y006877D01*
X008684Y006567D02*
X009214Y006567D01*
X009214Y006247D02*
X008684Y006247D01*
X008680Y005929D02*
X009210Y005929D01*
X009429Y005722D02*
X009429Y005192D01*
X009740Y005194D02*
X009740Y005724D01*
X010054Y005724D02*
X010054Y005194D01*
X010369Y005194D02*
X010369Y005724D01*
X010684Y005724D02*
X010684Y005194D01*
X010999Y005194D02*
X010999Y005724D01*
X011314Y005724D02*
X011314Y005194D01*
X011629Y005194D02*
X011629Y005724D01*
X011834Y005927D02*
X012364Y005927D01*
X012364Y006247D02*
X011834Y006247D01*
X011834Y006567D02*
X012364Y006567D01*
X012364Y006877D02*
X011834Y006877D01*
X011834Y007187D02*
X012364Y007187D01*
X012364Y007507D02*
X011834Y007507D01*
X011834Y007817D02*
X012364Y007817D01*
X012364Y008137D02*
X011834Y008137D01*
X005878Y008106D02*
X005348Y008106D01*
X005348Y007791D02*
X005878Y007791D01*
X005878Y007476D02*
X005348Y007476D01*
X005348Y007161D02*
X005878Y007161D01*
X005878Y006847D02*
X005348Y006847D01*
X005348Y006532D02*
X005878Y006532D01*
X005878Y006217D02*
X005348Y006217D01*
X005350Y005906D02*
X005880Y005906D01*
X005143Y005688D02*
X005143Y005158D01*
X004825Y005161D02*
X004825Y005691D01*
X004505Y005691D02*
X004505Y005161D01*
X004195Y005161D02*
X004195Y005691D01*
X003885Y005691D02*
X003885Y005161D01*
X003565Y005161D02*
X003565Y005691D01*
X003255Y005691D02*
X003255Y005161D01*
X002935Y005161D02*
X002935Y005691D01*
X002730Y005902D02*
X002200Y005902D01*
X002200Y006217D02*
X002730Y006217D01*
X002730Y006532D02*
X002200Y006532D01*
X002200Y006847D02*
X002730Y006847D01*
X002730Y007161D02*
X002200Y007161D01*
X002200Y007476D02*
X002730Y007476D01*
X002730Y007791D02*
X002200Y007791D01*
X002200Y008106D02*
X002730Y008106D01*
X002935Y008311D02*
X002935Y008841D01*
X003255Y008841D02*
X003255Y008311D01*
X003565Y008311D02*
X003565Y008841D01*
X003885Y008841D02*
X003885Y008311D01*
X004195Y008311D02*
X004195Y008841D01*
X004505Y008841D02*
X004505Y008311D01*
X004825Y008311D02*
X004825Y008841D01*
X005145Y008841D02*
X005145Y008311D01*
D13*
X003969Y015749D03*
X003913Y016700D03*
X002869Y015749D03*
X002813Y016700D03*
D14*
X006947Y017803D03*
X007847Y017803D03*
X000964Y004692D03*
X000964Y003792D03*
X002637Y003642D03*
X002637Y002742D03*
X002593Y001597D03*
X002593Y000697D03*
D15*
X006398Y013930D02*
X006398Y014450D01*
X007398Y014450D02*
X007398Y013930D01*
X008398Y013930D02*
X008398Y014450D01*
X009398Y014450D02*
X009398Y013930D01*
X010398Y013930D02*
X010398Y014450D01*
X011398Y014450D02*
X011398Y013930D01*
X012398Y013930D02*
X012398Y014450D01*
X013398Y014450D02*
X013398Y013930D01*
X019109Y014165D02*
X019629Y014165D01*
X019629Y015165D02*
X019109Y015165D01*
X019109Y016165D02*
X019629Y016165D01*
X019629Y017165D02*
X019109Y017165D01*
X019109Y018165D02*
X019629Y018165D01*
X019629Y013165D02*
X019109Y013165D01*
X007710Y018706D02*
X007710Y019226D01*
X006710Y019226D02*
X006710Y018706D01*
X005710Y018706D02*
X005710Y019226D01*
X004710Y019226D02*
X004710Y018706D01*
X003710Y018706D02*
X003710Y019226D01*
X002710Y019226D02*
X002710Y018706D01*
D16*
X001510Y006310D03*
X001510Y005916D03*
X001510Y005522D03*
D17*
X001765Y002983D03*
X001765Y001408D03*
D18*
X002840Y011047D03*
X002840Y011947D03*
X002840Y012847D03*
D19*
X005440Y011947D03*
D20*
X009180Y017041D03*
X010180Y017041D03*
X010219Y018439D03*
X009219Y018439D03*
X011219Y018439D03*
X012219Y018439D03*
X013219Y018439D03*
X014219Y018439D03*
X015644Y016833D03*
X015644Y015833D03*
X015644Y014833D03*
X017011Y017974D03*
X017011Y018974D03*
X019503Y008400D03*
X019503Y007400D03*
X019503Y006400D03*
X019503Y005400D03*
X019503Y004400D03*
X019503Y003400D03*
D21*
X015644Y013833D03*
D22*
X016951Y011591D03*
X019550Y011591D03*
D23*
X019038Y010715D03*
X018644Y010715D03*
X018251Y010715D03*
X017857Y010715D03*
X017463Y010715D03*
D24*
X012200Y002860D03*
X011200Y002860D03*
X011200Y001860D03*
X012200Y001860D03*
X010200Y001860D03*
X010200Y002860D03*
X009200Y002860D03*
X009200Y001860D03*
X008200Y001860D03*
X008200Y002860D03*
X007200Y002860D03*
X007200Y001860D03*
X006200Y001860D03*
X006200Y002860D03*
X005200Y002860D03*
X005200Y001860D03*
X004200Y001860D03*
X004200Y002860D03*
D25*
X005652Y017789D03*
X006322Y017789D03*
D26*
X001774Y017703D02*
X001034Y017703D01*
X001034Y016703D02*
X001774Y016703D01*
D27*
X014870Y008278D03*
X014870Y007278D03*
X014870Y006278D03*
X014870Y005278D03*
X014870Y004278D03*
X014870Y003278D03*
X014870Y002278D03*
X014870Y001278D03*
X018410Y001278D03*
X018410Y002278D03*
X018410Y003278D03*
X018410Y004278D03*
X018410Y005278D03*
X018410Y006278D03*
X018410Y007278D03*
X018410Y008278D03*
D28*
X002389Y005144D03*
X002389Y004474D03*
M02*
