G75*
G70*
%OFA0B0*%
%FSLAX24Y24*%
%IPPOS*%
%LPD*%
%AMOC8*
5,1,8,0,0,1.08239X$1,22.5*
%
%ADD10C,0.0000*%
D10*
X000534Y000171D02*
X000534Y019856D01*
X020219Y019856D01*
X020211Y000171D01*
X000534Y000171D01*
X000709Y000671D02*
X000746Y000822D01*
X000849Y000938D01*
X000995Y000994D01*
X001149Y000975D01*
X001277Y000887D01*
X001350Y000749D01*
X001350Y000593D01*
X001277Y000455D01*
X001149Y000367D01*
X000995Y000348D01*
X000849Y000404D01*
X000746Y000520D01*
X000709Y000671D01*
X000709Y019349D02*
X000746Y019500D01*
X000849Y019616D01*
X000995Y019672D01*
X001149Y019653D01*
X001277Y019565D01*
X001350Y019427D01*
X001350Y019271D01*
X001277Y019133D01*
X001149Y019045D01*
X000995Y019026D01*
X000849Y019082D01*
X000746Y019198D01*
X000709Y019349D01*
X019386Y019349D02*
X019423Y019500D01*
X019526Y019616D01*
X019672Y019672D01*
X019826Y019653D01*
X019954Y019565D01*
X020027Y019427D01*
X020027Y019271D01*
X019954Y019133D01*
X019826Y019045D01*
X019672Y019026D01*
X019526Y019082D01*
X019423Y019198D01*
X019386Y019349D01*
X019386Y000671D02*
X019423Y000822D01*
X019526Y000938D01*
X019672Y000994D01*
X019826Y000975D01*
X019954Y000887D01*
X020027Y000749D01*
X020027Y000593D01*
X019954Y000455D01*
X019826Y000367D01*
X019672Y000348D01*
X019526Y000404D01*
X019423Y000520D01*
X019386Y000671D01*
M02*
