G75*
G70*
%OFA0B0*%
%FSLAX24Y24*%
%IPPOS*%
%LPD*%
%AMOC8*
5,1,8,0,0,1.08239X$1,22.5*
%
%ADD10C,0.0000*%
%ADD11C,0.0080*%
%ADD12C,0.0020*%
%ADD13C,0.0087*%
%ADD14C,0.0050*%
%ADD15C,0.0060*%
%ADD16C,0.0100*%
%ADD17R,0.0180X0.0300*%
%ADD18C,0.0010*%
%ADD19R,0.0600X0.0600*%
%ADD20C,0.0030*%
%ADD21C,0.0040*%
D10*
X000353Y000635D02*
X000353Y020320D01*
X020038Y020320D01*
X020038Y000635D01*
X000353Y000635D01*
D11*
X007638Y002621D02*
X007638Y003121D01*
X007638Y003487D02*
X007638Y003987D01*
X007657Y004306D02*
X007657Y004806D01*
X007657Y005141D02*
X007657Y005641D01*
X008507Y005641D02*
X008507Y005141D01*
X008507Y004806D02*
X008507Y004306D01*
X008488Y003987D02*
X008488Y003487D01*
X008488Y003121D02*
X008488Y002621D01*
X013642Y001759D02*
X013642Y001259D01*
X013892Y001009D01*
X014392Y001009D01*
X014642Y001259D01*
X014892Y001009D01*
X015392Y001009D01*
X015642Y001259D01*
X015892Y001009D01*
X016392Y001009D01*
X016642Y001259D01*
X016892Y001009D01*
X017392Y001009D01*
X017642Y001259D01*
X017892Y001009D01*
X018392Y001009D01*
X018642Y001259D01*
X018892Y001009D01*
X019392Y001009D01*
X019642Y001259D01*
X019642Y001759D01*
X019392Y002009D01*
X018892Y002009D01*
X018642Y001759D01*
X018392Y002009D01*
X017892Y002009D01*
X017642Y001759D01*
X017392Y002009D01*
X016892Y002009D01*
X016642Y001759D01*
X016392Y002009D01*
X015892Y002009D01*
X015642Y001759D01*
X015392Y002009D01*
X014892Y002009D01*
X014642Y001759D01*
X014392Y002009D01*
X013892Y002009D01*
X013642Y001759D01*
X015611Y002257D02*
X015861Y002007D01*
X016361Y002007D01*
X016611Y002257D01*
X016861Y002007D01*
X017361Y002007D01*
X017611Y002257D01*
X017861Y002007D01*
X018361Y002007D01*
X018611Y002257D01*
X018861Y002007D01*
X019361Y002007D01*
X019611Y002257D01*
X019611Y002757D01*
X019361Y003007D01*
X018861Y003007D01*
X018611Y002757D01*
X018361Y003007D01*
X017861Y003007D01*
X017611Y002757D01*
X017361Y003007D01*
X016861Y003007D01*
X016611Y002757D01*
X016361Y003007D01*
X015861Y003007D01*
X015611Y002757D01*
X015611Y002257D01*
X017613Y003247D02*
X017613Y003747D01*
X017863Y003997D01*
X018363Y003997D01*
X018613Y003747D01*
X018863Y003997D01*
X019363Y003997D01*
X019613Y003747D01*
X019613Y003247D01*
X019363Y002997D01*
X018863Y002997D01*
X018613Y003247D01*
X018363Y002997D01*
X017863Y002997D01*
X017613Y003247D01*
X018613Y004251D02*
X018613Y004751D01*
X018863Y005001D01*
X018613Y005251D01*
X018613Y005751D01*
X018863Y006001D01*
X018613Y006251D01*
X018613Y006751D01*
X018863Y007001D01*
X018613Y007251D01*
X018613Y007751D01*
X018863Y008001D01*
X018613Y008251D01*
X018613Y008751D01*
X018863Y009001D01*
X018613Y009251D01*
X018613Y009751D01*
X018863Y010001D01*
X019363Y010001D01*
X019613Y009751D01*
X019613Y009251D01*
X019363Y009001D01*
X019613Y008751D01*
X019613Y008251D01*
X019363Y008001D01*
X019613Y007751D01*
X019613Y007251D01*
X019363Y007001D01*
X019613Y006751D01*
X019613Y006251D01*
X019363Y006001D01*
X019613Y005751D01*
X019613Y005251D01*
X019363Y005001D01*
X019613Y004751D01*
X019613Y004251D01*
X019363Y004001D01*
X018863Y004001D01*
X018613Y004251D01*
X018809Y010920D02*
X019409Y010920D01*
X019636Y012437D02*
X019636Y013237D01*
X018816Y012837D02*
X018818Y012872D01*
X018824Y012907D01*
X018833Y012941D01*
X018847Y012974D01*
X018863Y013005D01*
X018883Y013034D01*
X018907Y013060D01*
X018933Y013084D01*
X018961Y013105D01*
X018992Y013123D01*
X019024Y013137D01*
X019057Y013147D01*
X019092Y013154D01*
X019127Y013157D01*
X019162Y013156D01*
X019197Y013151D01*
X019232Y013142D01*
X019265Y013130D01*
X019296Y013114D01*
X019326Y013095D01*
X019353Y013072D01*
X019377Y013047D01*
X019399Y013019D01*
X019417Y012989D01*
X019432Y012957D01*
X019444Y012924D01*
X019452Y012890D01*
X019456Y012855D01*
X019456Y012819D01*
X019452Y012784D01*
X019444Y012750D01*
X019432Y012717D01*
X019417Y012685D01*
X019399Y012655D01*
X019377Y012627D01*
X019353Y012602D01*
X019326Y012579D01*
X019296Y012560D01*
X019265Y012544D01*
X019232Y012532D01*
X019197Y012523D01*
X019162Y012518D01*
X019127Y012517D01*
X019092Y012520D01*
X019057Y012527D01*
X019024Y012537D01*
X018992Y012551D01*
X018961Y012569D01*
X018933Y012590D01*
X018907Y012614D01*
X018883Y012640D01*
X018863Y012669D01*
X018847Y012700D01*
X018833Y012733D01*
X018824Y012767D01*
X018818Y012802D01*
X018816Y012837D01*
X018636Y012437D02*
X018636Y013237D01*
X016291Y014000D02*
X016291Y014600D01*
X015176Y014927D02*
X014576Y014927D01*
X016012Y018340D02*
X016512Y018340D01*
X016762Y018590D01*
X017012Y018340D01*
X017512Y018340D01*
X017762Y018590D01*
X017762Y019090D01*
X017512Y019340D01*
X017012Y019340D01*
X016762Y019090D01*
X016512Y019340D01*
X016012Y019340D01*
X015762Y019090D01*
X015762Y018590D01*
X016012Y018340D01*
X018615Y017609D02*
X019115Y017609D01*
X019115Y016759D02*
X018615Y016759D01*
X012776Y019245D02*
X012776Y019745D01*
X012526Y019995D01*
X012026Y019995D01*
X011776Y019745D01*
X011526Y019995D01*
X011026Y019995D01*
X010776Y019745D01*
X010526Y019995D01*
X010026Y019995D01*
X009776Y019745D01*
X009526Y019995D01*
X009026Y019995D01*
X008776Y019745D01*
X008526Y019995D01*
X008026Y019995D01*
X007776Y019745D01*
X007526Y019995D01*
X007026Y019995D01*
X006776Y019745D01*
X006776Y019245D01*
X007026Y018995D01*
X007526Y018995D01*
X007776Y019245D01*
X008026Y018995D01*
X008526Y018995D01*
X008776Y019245D01*
X009026Y018995D01*
X009526Y018995D01*
X009776Y019245D01*
X010026Y018995D01*
X010526Y018995D01*
X010776Y019245D01*
X011026Y018995D01*
X011526Y018995D01*
X011776Y019245D01*
X012026Y018995D01*
X012526Y018995D01*
X012776Y019245D01*
X006768Y019245D02*
X006518Y018995D01*
X006018Y018995D01*
X005768Y019245D01*
X005518Y018995D01*
X005018Y018995D01*
X004768Y019245D01*
X004518Y018995D01*
X004018Y018995D01*
X003768Y019245D01*
X003518Y018995D01*
X003018Y018995D01*
X002768Y019245D01*
X002518Y018995D01*
X002018Y018995D01*
X001768Y019245D01*
X001518Y018995D01*
X001018Y018995D01*
X000768Y019245D01*
X000768Y019745D01*
X001018Y019995D01*
X001518Y019995D01*
X001768Y019745D01*
X002018Y019995D01*
X002518Y019995D01*
X002768Y019745D01*
X003018Y019995D01*
X003518Y019995D01*
X003768Y019745D01*
X004018Y019995D01*
X004518Y019995D01*
X004768Y019745D01*
X005018Y019995D01*
X005518Y019995D01*
X005768Y019745D01*
X006018Y019995D01*
X006518Y019995D01*
X006768Y019745D01*
X006768Y019245D01*
X006015Y017337D02*
X006015Y016737D01*
X004504Y018134D02*
X004504Y018734D01*
X002776Y018739D02*
X002776Y018239D01*
X002526Y017989D01*
X002026Y017989D01*
X001776Y018239D01*
X001526Y017989D01*
X001026Y017989D01*
X000776Y018239D01*
X000776Y018739D01*
X001026Y018989D01*
X001526Y018989D01*
X001776Y018739D01*
X002026Y018989D01*
X002526Y018989D01*
X002776Y018739D01*
X005854Y011920D02*
X005856Y011945D01*
X005862Y011969D01*
X005871Y011992D01*
X005884Y012013D01*
X005900Y012032D01*
X005919Y012048D01*
X005940Y012061D01*
X005963Y012070D01*
X005987Y012076D01*
X006012Y012078D01*
X006037Y012076D01*
X006061Y012070D01*
X006084Y012061D01*
X006105Y012048D01*
X006124Y012032D01*
X006140Y012013D01*
X006153Y011992D01*
X006162Y011969D01*
X006168Y011945D01*
X006170Y011920D01*
X006168Y011895D01*
X006162Y011871D01*
X006153Y011848D01*
X006140Y011827D01*
X006124Y011808D01*
X006105Y011792D01*
X006084Y011779D01*
X006061Y011770D01*
X006037Y011764D01*
X006012Y011762D01*
X005987Y011764D01*
X005963Y011770D01*
X005940Y011779D01*
X005919Y011792D01*
X005900Y011808D01*
X005884Y011827D01*
X005871Y011848D01*
X005862Y011871D01*
X005856Y011895D01*
X005854Y011920D01*
D12*
X005657Y016305D02*
X005510Y016305D01*
X005584Y016305D02*
X005584Y016525D01*
X005510Y016452D01*
X005436Y016488D02*
X005399Y016525D01*
X005326Y016525D01*
X005289Y016488D01*
X005289Y016341D01*
X005326Y016305D01*
X005399Y016305D01*
X005436Y016341D01*
X005507Y018313D02*
X005580Y018313D01*
X005617Y018349D01*
X005691Y018349D02*
X005728Y018313D01*
X005801Y018313D01*
X005838Y018349D01*
X005838Y018423D01*
X005801Y018459D01*
X005765Y018459D01*
X005691Y018423D01*
X005691Y018533D01*
X005838Y018533D01*
X005617Y018496D02*
X005580Y018533D01*
X005507Y018533D01*
X005470Y018496D01*
X005470Y018349D01*
X005507Y018313D01*
X014719Y013981D02*
X014719Y013908D01*
X014755Y013871D01*
X014755Y013797D02*
X014719Y013760D01*
X014719Y013687D01*
X014755Y013650D01*
X014902Y013650D01*
X014939Y013687D01*
X014939Y013760D01*
X014902Y013797D01*
X014902Y013871D02*
X014939Y013908D01*
X014939Y013981D01*
X014902Y014018D01*
X014865Y014018D01*
X014829Y013981D01*
X014829Y013944D01*
X014829Y013981D02*
X014792Y014018D01*
X014755Y014018D01*
X014719Y013981D01*
X016155Y013673D02*
X016155Y013527D01*
X016192Y013490D01*
X016265Y013490D01*
X016302Y013527D01*
X016376Y013527D02*
X016413Y013490D01*
X016486Y013490D01*
X016523Y013527D01*
X016523Y013673D01*
X016486Y013710D01*
X016413Y013710D01*
X016376Y013673D01*
X016376Y013637D01*
X016413Y013600D01*
X016523Y013600D01*
X016302Y013673D02*
X016265Y013710D01*
X016192Y013710D01*
X016155Y013673D01*
X018306Y012599D02*
X018306Y012525D01*
X018343Y012489D01*
X018306Y012414D02*
X018526Y012414D01*
X018453Y012341D01*
X018526Y012268D01*
X018306Y012268D01*
X018343Y012193D02*
X018306Y012157D01*
X018306Y012083D01*
X018343Y012047D01*
X018379Y012047D01*
X018416Y012083D01*
X018416Y012157D01*
X018453Y012193D01*
X018490Y012193D01*
X018526Y012157D01*
X018526Y012083D01*
X018490Y012047D01*
X018526Y012489D02*
X018379Y012635D01*
X018343Y012635D01*
X018306Y012599D01*
X018526Y012635D02*
X018526Y012489D01*
X018589Y010797D02*
X018589Y010651D01*
X018479Y010761D01*
X018699Y010761D01*
X018662Y010576D02*
X018699Y010540D01*
X018699Y010466D01*
X018662Y010430D01*
X018515Y010430D01*
X018479Y010466D01*
X018479Y010540D01*
X018515Y010576D01*
X019317Y016720D02*
X019317Y016830D01*
X019354Y016867D01*
X019427Y016867D01*
X019464Y016830D01*
X019464Y016720D01*
X019537Y016720D02*
X019317Y016720D01*
X019354Y016941D02*
X019501Y016941D01*
X019537Y016978D01*
X019537Y017051D01*
X019501Y017088D01*
X019354Y017088D01*
X019317Y017051D01*
X019317Y016978D01*
X019354Y016941D01*
X019317Y017162D02*
X019537Y017162D01*
X019464Y017236D01*
X019537Y017309D01*
X019317Y017309D01*
X019317Y017383D02*
X019537Y017383D01*
X019537Y017530D01*
X019537Y017604D02*
X019317Y017604D01*
X019317Y017714D01*
X019354Y017751D01*
X019427Y017751D01*
X019464Y017714D01*
X019464Y017604D01*
X019464Y017677D02*
X019537Y017751D01*
X019427Y017825D02*
X019427Y017972D01*
X019317Y018046D02*
X019537Y018046D01*
X019537Y018193D01*
X019537Y018267D02*
X019537Y018414D01*
X019537Y018488D02*
X019537Y018598D01*
X019501Y018635D01*
X019354Y018635D01*
X019317Y018598D01*
X019317Y018488D01*
X019537Y018488D01*
X019427Y018340D02*
X019427Y018267D01*
X019317Y018267D02*
X019537Y018267D01*
X019317Y018267D02*
X019317Y018414D01*
X019317Y017530D02*
X019317Y017383D01*
X019427Y017383D02*
X019427Y017456D01*
D13*
X009428Y011060D02*
X009428Y010430D01*
X008168Y010430D02*
X008168Y011060D01*
D14*
X003553Y009595D02*
X003553Y009295D01*
X003553Y009445D02*
X003102Y009445D01*
X003252Y009295D01*
X000753Y016995D02*
X000753Y017295D01*
X000753Y017145D02*
X000302Y017145D01*
X000452Y016995D01*
X000452Y017455D02*
X000377Y017455D01*
X000302Y017530D01*
X000302Y017680D01*
X000377Y017755D01*
X000452Y017755D01*
X000527Y017680D01*
X000527Y017530D01*
X000452Y017455D01*
X000527Y017530D02*
X000602Y017455D01*
X000678Y017455D01*
X000753Y017530D01*
X000753Y017680D01*
X000678Y017755D01*
X000602Y017755D01*
X000527Y017680D01*
X007736Y018350D02*
X007736Y018801D01*
X007886Y018651D01*
X008036Y018801D01*
X008036Y018350D01*
X008196Y018425D02*
X008271Y018350D01*
X008421Y018350D01*
X008496Y018425D01*
X008496Y018726D01*
X008421Y018801D01*
X008271Y018801D01*
X008196Y018726D01*
X008196Y018425D01*
X008656Y018801D02*
X008956Y018801D01*
X008806Y018801D02*
X008806Y018350D01*
X009117Y018425D02*
X009117Y018726D01*
X009192Y018801D01*
X009342Y018801D01*
X009417Y018726D01*
X009417Y018425D01*
X009342Y018350D01*
X009192Y018350D01*
X009117Y018425D01*
X009577Y018350D02*
X009577Y018801D01*
X009802Y018801D01*
X009877Y018726D01*
X009877Y018576D01*
X009802Y018501D01*
X009577Y018501D01*
X009727Y018501D02*
X009877Y018350D01*
X010037Y018576D02*
X010338Y018576D01*
X010498Y018726D02*
X010498Y018425D01*
X010573Y018350D01*
X010723Y018350D01*
X010798Y018425D01*
X010798Y018726D01*
X010723Y018801D01*
X010573Y018801D01*
X010498Y018726D01*
X010958Y018801D02*
X010958Y018425D01*
X011033Y018350D01*
X011183Y018350D01*
X011258Y018425D01*
X011258Y018801D01*
X011418Y018801D02*
X011719Y018801D01*
X011569Y018801D02*
X011569Y018350D01*
X013011Y018844D02*
X013011Y019294D01*
X013611Y019294D01*
X014511Y017044D02*
X014511Y016594D01*
X013861Y016594D01*
X019857Y009899D02*
X019857Y009749D01*
X019857Y009824D02*
X020308Y009824D01*
X020308Y009749D02*
X020308Y009899D01*
X020233Y009589D02*
X019932Y009589D01*
X019857Y009514D01*
X019857Y009289D01*
X020308Y009289D01*
X020308Y009514D01*
X020233Y009589D01*
X019857Y009129D02*
X019857Y008828D01*
X019857Y008979D02*
X020308Y008979D01*
X020082Y008518D02*
X020082Y008368D01*
X019857Y008368D02*
X019857Y008668D01*
X019857Y008368D02*
X020308Y008368D01*
X018054Y003702D02*
X018054Y003252D01*
X017754Y003702D01*
X017754Y003252D01*
X017597Y003252D02*
X017447Y003252D01*
X017522Y003252D02*
X017522Y003702D01*
X017447Y003702D02*
X017597Y003702D01*
X017287Y003477D02*
X016987Y003477D01*
X016827Y003477D02*
X016676Y003477D01*
X016827Y003477D02*
X016827Y003327D01*
X016751Y003252D01*
X016601Y003252D01*
X016526Y003327D01*
X016526Y003627D01*
X016601Y003702D01*
X016751Y003702D01*
X016827Y003627D01*
X016366Y003552D02*
X016366Y003252D01*
X016366Y003477D02*
X016066Y003477D01*
X016066Y003552D02*
X016066Y003252D01*
X015906Y003252D02*
X015906Y003702D01*
X015756Y003552D01*
X015606Y003702D01*
X015606Y003252D01*
X016066Y003552D02*
X016216Y003702D01*
X016366Y003552D01*
X016246Y002704D02*
X016546Y002254D01*
X016546Y002704D01*
X016246Y002704D02*
X016246Y002254D01*
X016089Y002254D02*
X015939Y002254D01*
X016014Y002254D02*
X016014Y002704D01*
X015939Y002704D02*
X016089Y002704D01*
X015779Y002479D02*
X015479Y002479D01*
X015318Y002329D02*
X015318Y002629D01*
X015243Y002704D01*
X015093Y002704D01*
X015018Y002629D01*
X015018Y002329D01*
X015093Y002254D01*
X015243Y002254D01*
X015318Y002329D01*
X014858Y002254D02*
X014708Y002404D01*
X014783Y002404D02*
X014558Y002404D01*
X014558Y002254D02*
X014558Y002704D01*
X014783Y002704D01*
X014858Y002629D01*
X014858Y002479D01*
X014783Y002404D01*
X014398Y002629D02*
X014398Y002704D01*
X014398Y002629D02*
X014248Y002479D01*
X014248Y002254D01*
X014248Y002479D02*
X014097Y002629D01*
X014097Y002704D01*
X013937Y002629D02*
X013862Y002704D01*
X013712Y002704D01*
X013637Y002629D01*
X013637Y002329D01*
X013712Y002254D01*
X013862Y002254D01*
X013937Y002329D01*
X013937Y002479D01*
X013787Y002479D01*
X013521Y000749D02*
X013521Y000298D01*
X013221Y000749D01*
X013221Y000298D01*
X013064Y000298D02*
X012914Y000298D01*
X012989Y000298D02*
X012989Y000749D01*
X012914Y000749D02*
X013064Y000749D01*
X012754Y000523D02*
X012454Y000523D01*
X012293Y000298D02*
X011993Y000298D01*
X011993Y000749D01*
X011833Y000749D02*
X011533Y000749D01*
X011533Y000298D01*
X011833Y000298D01*
X011683Y000523D02*
X011533Y000523D01*
X011373Y000373D02*
X011298Y000298D01*
X011147Y000298D01*
X011072Y000373D01*
X011072Y000674D01*
X011147Y000749D01*
X011298Y000749D01*
X011373Y000674D01*
X010912Y000674D02*
X010837Y000749D01*
X010687Y000749D01*
X010612Y000674D01*
X010612Y000373D01*
X010687Y000298D01*
X010837Y000298D01*
X010912Y000373D01*
X010452Y000298D02*
X010452Y000598D01*
X010302Y000749D01*
X010152Y000598D01*
X010152Y000298D01*
X010152Y000523D02*
X010452Y000523D01*
X018440Y002302D02*
X018590Y002302D01*
X018515Y002302D02*
X018515Y002753D01*
X018440Y002753D02*
X018590Y002753D01*
X018747Y002677D02*
X018822Y002753D01*
X018972Y002753D01*
X019047Y002677D01*
X019047Y002602D01*
X018747Y002302D01*
X019047Y002302D01*
X019207Y002377D02*
X019282Y002302D01*
X019432Y002302D01*
X019507Y002377D01*
X019207Y002377D02*
X019207Y002677D01*
X019282Y002753D01*
X019432Y002753D01*
X019507Y002677D01*
D15*
X017125Y004729D02*
X014605Y004729D01*
X014605Y013229D01*
X017125Y013229D01*
X017125Y004729D01*
X016665Y005179D02*
X015065Y005179D01*
X015065Y005779D01*
X016665Y005779D01*
X016665Y005179D01*
X016665Y006179D02*
X015065Y006179D01*
X015065Y006779D01*
X016665Y006779D01*
X016665Y006179D01*
X016665Y007179D02*
X015065Y007179D01*
X015065Y007779D01*
X016665Y007779D01*
X016665Y007179D01*
X016665Y008179D02*
X015065Y008179D01*
X015065Y008779D01*
X016665Y008779D01*
X016665Y008179D01*
X016665Y009179D02*
X015065Y009179D01*
X015065Y009779D01*
X016665Y009779D01*
X016665Y009179D01*
X016665Y010179D02*
X015065Y010179D01*
X015065Y010779D01*
X016665Y010779D01*
X016665Y010179D01*
X016665Y011179D02*
X015065Y011179D01*
X015065Y011779D01*
X016665Y011779D01*
X016665Y011179D01*
X016665Y012179D02*
X015065Y012179D01*
X015065Y012779D01*
X016665Y012779D01*
X016665Y012179D01*
X013376Y001993D02*
X012876Y001993D01*
X012626Y001743D01*
X012376Y001993D01*
X011876Y001993D01*
X011626Y001743D01*
X011626Y001243D01*
X011876Y000993D01*
X012376Y000993D01*
X012626Y001243D01*
X012626Y001743D01*
X012626Y001243D02*
X012876Y000993D01*
X013376Y000993D01*
X013626Y001243D01*
X013626Y001743D01*
X013376Y001993D01*
X011626Y001743D02*
X011376Y001993D01*
X010876Y001993D01*
X010626Y001743D01*
X010376Y001993D01*
X009876Y001993D01*
X009626Y001743D01*
X009376Y001993D01*
X008876Y001993D01*
X008626Y001743D01*
X008626Y001243D01*
X008876Y000993D01*
X009376Y000993D01*
X009626Y001243D01*
X009626Y001743D01*
X009626Y001243D02*
X009876Y000993D01*
X010376Y000993D01*
X010626Y001243D01*
X010626Y001743D01*
X010626Y001243D02*
X010876Y000993D01*
X011376Y000993D01*
X011626Y001243D01*
X008626Y001243D02*
X008376Y000993D01*
X007876Y000993D01*
X007626Y001243D01*
X007376Y000993D01*
X006876Y000993D01*
X006626Y001243D01*
X006376Y000993D01*
X005876Y000993D01*
X005626Y001243D01*
X005626Y001743D01*
X005876Y001993D01*
X006376Y001993D01*
X006626Y001743D01*
X006876Y001993D01*
X007376Y001993D01*
X007626Y001743D01*
X007876Y001993D01*
X008376Y001993D01*
X008626Y001743D01*
X007626Y001743D02*
X007626Y001243D01*
X006626Y001243D02*
X006626Y001743D01*
X002678Y008970D02*
X001178Y008970D01*
X000928Y009220D01*
X000928Y009720D01*
X001178Y009970D01*
X000928Y010220D01*
X000928Y010720D01*
X001178Y010970D01*
X000928Y011220D01*
X000928Y011720D01*
X001178Y011970D01*
X000928Y012220D01*
X000928Y012720D01*
X001178Y012970D01*
X000928Y013220D01*
X000928Y013720D01*
X001178Y013970D01*
X000928Y014220D01*
X000928Y014720D01*
X001178Y014970D01*
X000928Y015220D01*
X000928Y015720D01*
X001178Y015970D01*
X000928Y016220D01*
X000928Y016720D01*
X001178Y016970D01*
X000928Y017220D01*
X000928Y017720D01*
X001178Y017970D01*
X002678Y017970D01*
X002928Y017720D01*
X002928Y017220D01*
X002678Y016970D01*
X002928Y016720D01*
X002928Y016220D01*
X002678Y015970D01*
X002928Y015720D01*
X002928Y015220D01*
X002678Y014970D01*
X002928Y014720D01*
X002928Y014220D01*
X002678Y013970D01*
X002928Y013720D01*
X002928Y013220D01*
X002678Y012970D01*
X002928Y012720D01*
X002928Y012220D01*
X002678Y011970D01*
X002928Y011720D01*
X002928Y011220D01*
X002678Y010970D01*
X002928Y010720D01*
X002928Y010220D01*
X002678Y009970D01*
X002928Y009720D01*
X002928Y009220D01*
X002678Y008970D01*
D16*
X009856Y007051D02*
X009856Y006501D01*
X010256Y006501D01*
X010556Y007901D02*
X012162Y007901D01*
X012862Y007051D02*
X012862Y006501D01*
X012462Y006501D01*
D17*
X010168Y005395D03*
X010172Y004560D03*
X010164Y003702D03*
X010160Y002816D03*
X017872Y018044D03*
D18*
X017902Y017614D02*
X017902Y017464D01*
X017852Y017464D02*
X017952Y017464D01*
X017999Y017464D02*
X018099Y017564D01*
X018099Y017589D01*
X018074Y017614D01*
X018024Y017614D01*
X017999Y017589D01*
X017902Y017614D02*
X017852Y017564D01*
X017805Y017589D02*
X017805Y017539D01*
X017780Y017514D01*
X017705Y017514D01*
X017755Y017514D02*
X017805Y017464D01*
X017705Y017464D02*
X017705Y017614D01*
X017780Y017614D01*
X017805Y017589D01*
X017999Y017464D02*
X018099Y017464D01*
D19*
X015365Y012479D03*
X015365Y011479D03*
X015365Y010479D03*
X015365Y009479D03*
X015365Y008479D03*
X015365Y007479D03*
X015365Y006479D03*
X015365Y005479D03*
D20*
X015979Y005568D02*
X016350Y005568D01*
X016350Y005691D02*
X016350Y005444D01*
X016103Y005444D02*
X015979Y005568D01*
D21*
X012561Y014232D02*
X012638Y014309D01*
X012638Y014386D01*
X012561Y014462D01*
X012331Y014462D01*
X012331Y014309D01*
X012407Y014232D01*
X012561Y014232D01*
X012331Y014462D02*
X012484Y014616D01*
X012638Y014692D01*
X012177Y014616D02*
X012177Y014462D01*
X012101Y014386D01*
X011870Y014386D01*
X012024Y014386D02*
X012177Y014232D01*
X011870Y014232D02*
X011870Y014692D01*
X012101Y014692D01*
X012177Y014616D01*
M02*
