G75*
G70*
%OFA0B0*%
%FSLAX24Y24*%
%IPPOS*%
%LPD*%
%AMOC8*
5,1,8,0,0,1.08239X$1,22.5*
%
%ADD10C,0.0000*%
%ADD11C,0.0170*%
%ADD12R,0.0600X0.0600*%
%ADD13R,0.0276X0.0787*%
%ADD14C,0.0740*%
%ADD15R,0.0780X0.0400*%
%ADD16OC8,0.0600*%
%ADD17R,0.0800X0.0600*%
%ADD18R,0.0800X0.1500*%
%ADD19R,0.0740X0.0740*%
%ADD20R,0.0472X0.0709*%
%ADD21R,0.0236X0.0610*%
%ADD22R,0.0433X0.0394*%
%ADD23C,0.0740*%
%ADD24R,0.0790X0.0430*%
%ADD25R,0.0512X0.0630*%
%ADD26C,0.0356*%
%ADD27C,0.0100*%
%ADD28C,0.0120*%
%ADD29C,0.0160*%
%ADD30C,0.0240*%
%ADD31C,0.1502*%
D10*
X000353Y000635D02*
X000353Y020320D01*
X020038Y020320D01*
X020038Y000635D01*
X000353Y000635D01*
D11*
X006512Y011705D02*
X006512Y012235D01*
X006827Y012235D02*
X006827Y011705D01*
X007142Y011705D02*
X007142Y012235D01*
X007457Y012235D02*
X007457Y011705D01*
X007771Y011705D02*
X007771Y012235D01*
X008086Y012235D02*
X008086Y011705D01*
X008401Y011705D02*
X008401Y012235D01*
X008716Y012235D02*
X008716Y011705D01*
X008927Y012440D02*
X009457Y012440D01*
X009457Y012760D02*
X008927Y012760D01*
X008927Y013070D02*
X009457Y013070D01*
X009457Y013390D02*
X008927Y013390D01*
X008927Y013700D02*
X009457Y013700D01*
X009457Y014010D02*
X008927Y014010D01*
X008927Y014330D02*
X009457Y014330D01*
X009461Y014648D02*
X008931Y014648D01*
X008712Y014855D02*
X008712Y015385D01*
X008401Y015383D02*
X008401Y014853D01*
X008086Y014853D02*
X008086Y015383D01*
X007771Y015383D02*
X007771Y014853D01*
X007457Y014853D02*
X007457Y015383D01*
X007142Y015383D02*
X007142Y014853D01*
X006827Y014853D02*
X006827Y015383D01*
X006512Y015383D02*
X006512Y014853D01*
X006307Y014650D02*
X005777Y014650D01*
X005777Y014330D02*
X006307Y014330D01*
X006307Y014010D02*
X005777Y014010D01*
X005777Y013700D02*
X006307Y013700D01*
X006307Y013390D02*
X005777Y013390D01*
X005777Y013070D02*
X006307Y013070D01*
X006307Y012760D02*
X005777Y012760D01*
X005777Y012440D02*
X006307Y012440D01*
D12*
X006465Y017037D03*
X005565Y017037D03*
X004954Y018434D03*
X004054Y018434D03*
X014876Y015377D03*
X014876Y014477D03*
X015841Y014300D03*
X016741Y014300D03*
X018865Y017159D03*
X018865Y018059D03*
X019109Y011370D03*
X019109Y010470D03*
X013126Y001493D03*
X008938Y002871D03*
X008938Y003737D03*
X008957Y004556D03*
X008957Y005391D03*
X008057Y005391D03*
X008057Y004556D03*
X008038Y003737D03*
X008038Y002871D03*
D13*
X008404Y010745D03*
X008798Y010745D03*
X009191Y010745D03*
D14*
X002276Y018489D03*
X001276Y018489D03*
X001268Y019495D03*
X002268Y019495D03*
X003268Y019495D03*
X004268Y019495D03*
X005268Y019495D03*
X006268Y019495D03*
X007276Y019495D03*
X008276Y019495D03*
X009276Y019495D03*
X010276Y019495D03*
X011276Y019495D03*
X012276Y019495D03*
X016262Y018840D03*
X017262Y018840D03*
X019113Y009501D03*
X019113Y008501D03*
X019113Y007501D03*
X019113Y006501D03*
X019113Y005501D03*
X019113Y004501D03*
X019113Y003497D03*
X019111Y002507D03*
X019142Y001509D03*
X018142Y001509D03*
X018111Y002507D03*
X017111Y002507D03*
X017142Y001509D03*
X016142Y001509D03*
X015142Y001509D03*
X014142Y001509D03*
X018113Y003497D03*
D15*
X019136Y012037D03*
X019136Y013612D03*
D16*
X012126Y001493D03*
X011126Y001493D03*
X010126Y001493D03*
X009126Y001493D03*
X008126Y001493D03*
X007126Y001493D03*
X006126Y001493D03*
X002428Y009470D03*
X002428Y010470D03*
X002428Y011470D03*
X002428Y012470D03*
X002428Y013470D03*
X002428Y014470D03*
X002428Y015470D03*
X002428Y016470D03*
X002428Y017470D03*
X001428Y017470D03*
X001428Y016470D03*
X001428Y015470D03*
X001428Y014470D03*
X001428Y013470D03*
X001428Y012470D03*
X001428Y011470D03*
X001428Y010470D03*
X001428Y009470D03*
D17*
X015061Y017044D03*
X015061Y017944D03*
X015061Y018844D03*
D18*
X012461Y017944D03*
D19*
X016111Y002507D03*
D20*
X012674Y007627D03*
X010075Y007627D03*
D21*
X010587Y006751D03*
X010981Y006751D03*
X011374Y006751D03*
X011768Y006751D03*
X012162Y006751D03*
D22*
X010502Y005395D03*
X009833Y005395D03*
X009837Y004560D03*
X010506Y004560D03*
X010498Y003702D03*
X009829Y003702D03*
X009825Y002816D03*
X010494Y002816D03*
X017538Y018044D03*
X018207Y018044D03*
D23*
X018495Y016127D02*
X019235Y016127D01*
X019235Y015127D02*
X018495Y015127D01*
D24*
X017635Y012479D03*
X017635Y011479D03*
X017635Y010479D03*
X017635Y009479D03*
X017635Y008479D03*
X017635Y007479D03*
X017635Y006479D03*
X017635Y005479D03*
X014095Y005479D03*
X014095Y006479D03*
X014095Y007479D03*
X014095Y008479D03*
X014095Y009479D03*
X014095Y010479D03*
X014095Y011479D03*
X014095Y012479D03*
D25*
X013943Y014481D03*
X013195Y014481D03*
D26*
X012853Y015182D03*
X012183Y015477D03*
X012183Y016009D03*
X013069Y016796D03*
X014054Y016304D03*
X014113Y015261D03*
X013699Y013706D03*
X012479Y013371D03*
X012164Y013785D03*
X010963Y013529D03*
X010609Y013194D03*
X011416Y011954D03*
X011928Y012308D03*
X012853Y012308D03*
X013325Y012446D03*
X013168Y011895D03*
X012164Y010399D03*
X011396Y010832D03*
X010727Y011147D03*
X010215Y010438D03*
X009703Y011521D03*
X010077Y011914D03*
X007872Y013273D03*
X007695Y012761D03*
X007892Y013785D03*
X007380Y014060D03*
X007754Y015812D03*
X008837Y016324D03*
X008620Y016777D03*
X009152Y015891D03*
X009565Y016265D03*
X009998Y015635D03*
X009487Y015241D03*
X010668Y016540D03*
X010136Y016974D03*
X009723Y017387D03*
X009211Y017643D03*
X008640Y017702D03*
X007518Y017722D03*
X006219Y017702D03*
X004939Y017328D03*
X004861Y016855D03*
X004388Y016993D03*
X003916Y017269D03*
X004369Y017840D03*
X006298Y016344D03*
X004782Y015674D03*
X004250Y015674D03*
X003758Y015635D03*
X004034Y013863D03*
X004762Y013863D03*
X004782Y012033D03*
X004782Y011540D03*
X005589Y011048D03*
X005589Y009946D03*
X004998Y009926D03*
X004428Y009946D03*
X003935Y010379D03*
X003680Y009178D03*
X002085Y008470D03*
X006613Y004395D03*
X007124Y004316D03*
X007006Y003489D03*
X006435Y003184D03*
X005983Y002918D03*
X006613Y002249D03*
X005491Y003804D03*
X008148Y006442D03*
X009231Y007761D03*
X008640Y009375D03*
X008069Y009690D03*
X007557Y009178D03*
X007676Y010950D03*
X010963Y008981D03*
X013168Y008686D03*
X014683Y008962D03*
X015392Y008371D03*
X015412Y007584D03*
X015431Y006816D03*
X016632Y006698D03*
X016632Y006107D03*
X015786Y004789D03*
X015766Y004237D03*
X013660Y003765D03*
X013719Y003194D03*
X013094Y002461D03*
X012321Y003371D03*
X011888Y003726D03*
X012321Y004690D03*
X011908Y005320D03*
X011101Y005674D03*
X016908Y011481D03*
X016554Y012682D03*
X017459Y013607D03*
X017931Y014296D03*
X019132Y012702D03*
X018404Y010989D03*
X016534Y016462D03*
X001947Y015989D03*
D27*
X001199Y015989D01*
X000943Y015733D01*
X000943Y009178D01*
X001298Y008824D01*
X004447Y008824D01*
X005018Y008253D01*
X010195Y008253D01*
X010924Y008981D01*
X010963Y008981D01*
X010949Y009479D02*
X014095Y009479D01*
X014089Y009474D01*
X013561Y008962D02*
X014683Y008962D01*
X015038Y008745D02*
X014772Y008479D01*
X014095Y008479D01*
X013561Y008962D02*
X013443Y009080D01*
X012735Y009080D01*
X012162Y008507D01*
X012162Y006751D01*
X012162Y007153D01*
X012006Y007308D01*
X010766Y007308D01*
X010587Y007129D01*
X010587Y006751D01*
X010981Y006751D02*
X010981Y006263D01*
X011101Y006143D01*
X011101Y005674D01*
X010865Y006147D02*
X010981Y006263D01*
X010865Y006147D02*
X008384Y006147D01*
X008148Y006383D01*
X008148Y006442D01*
X008384Y006147D02*
X008057Y005820D01*
X008057Y005391D01*
X008057Y004556D01*
X008038Y004537D01*
X008038Y003737D01*
X008038Y002871D01*
X007928Y002761D01*
X006475Y002761D01*
X006101Y002387D01*
X006101Y002190D01*
X006798Y001493D01*
X007126Y001493D01*
X006613Y002249D02*
X009370Y002249D01*
X010126Y001493D01*
X011126Y001493D02*
X012735Y003101D01*
X012735Y005694D01*
X013520Y006479D01*
X014095Y006479D01*
X014703Y006875D02*
X013365Y006875D01*
X012420Y005930D01*
X011652Y005930D01*
X011376Y006206D01*
X011376Y006749D01*
X011374Y006751D01*
X011768Y006751D02*
X011768Y006346D01*
X011987Y006127D01*
X012302Y006127D01*
X013266Y007092D01*
X014664Y007092D01*
X014782Y007210D01*
X014782Y007761D01*
X015392Y008371D01*
X015038Y008745D02*
X015038Y010694D01*
X014743Y010989D01*
X015057Y011304D01*
X015057Y012092D01*
X014670Y012479D01*
X014095Y012479D01*
X013325Y012446D02*
X013325Y012525D01*
X012479Y013371D01*
X012124Y013037D02*
X012853Y012308D01*
X013168Y011895D02*
X013168Y011519D01*
X013128Y011479D01*
X014095Y011479D01*
X014743Y010989D02*
X012380Y010989D01*
X011416Y011954D01*
X011508Y012440D02*
X009192Y012440D01*
X009192Y012760D02*
X011414Y012760D01*
X011593Y012938D01*
X011593Y019178D01*
X011276Y019495D01*
X011829Y019048D02*
X011829Y012761D01*
X011508Y012440D01*
X011928Y012308D02*
X012756Y011479D01*
X013128Y011479D01*
X013229Y010479D02*
X014095Y010479D01*
X013229Y010479D02*
X012498Y009749D01*
X010904Y009749D01*
X009900Y008745D01*
X005530Y008745D01*
X004998Y009277D01*
X004998Y009926D01*
X004723Y010340D02*
X006081Y010340D01*
X006827Y011086D01*
X006827Y011970D01*
X007142Y011970D02*
X007144Y011972D01*
X007144Y012584D01*
X006987Y012741D01*
X006987Y014296D01*
X007457Y014766D01*
X007457Y015118D01*
X007457Y015657D01*
X007400Y015714D01*
X007400Y017603D01*
X007518Y017722D01*
X007457Y017660D01*
X007144Y017505D02*
X007144Y015120D01*
X007142Y015118D01*
X006827Y015118D02*
X006827Y015421D01*
X006435Y015812D01*
X005569Y015812D01*
X005038Y015281D01*
X003424Y015281D01*
X003345Y015359D01*
X003345Y016454D01*
X002428Y017470D01*
X002276Y018318D02*
X001428Y017470D01*
X000924Y017229D02*
X000924Y018137D01*
X001276Y018489D01*
X002276Y018489D02*
X002276Y018318D01*
X002268Y019495D02*
X003561Y018202D01*
X003561Y015832D01*
X003758Y015635D01*
X003837Y016088D02*
X004250Y015674D01*
X003837Y016088D02*
X003837Y016324D01*
X004388Y016993D01*
X004506Y017426D02*
X004861Y017800D01*
X006219Y017702D01*
X006209Y017702D01*
X006465Y017037D01*
X006298Y016344D02*
X005412Y016344D01*
X005313Y016442D01*
X005313Y016934D01*
X005565Y017037D01*
X004939Y017328D01*
X004506Y017426D02*
X003916Y017269D01*
X004369Y017840D02*
X004054Y018135D01*
X004054Y018434D01*
X004954Y018434D02*
X006219Y017702D01*
X006298Y018351D02*
X005884Y018351D01*
X005268Y018968D01*
X005268Y019495D01*
X006268Y019495D02*
X006276Y019495D01*
X008089Y017682D01*
X008089Y015120D01*
X008086Y015118D01*
X008401Y015118D02*
X008401Y014491D01*
X008168Y014257D01*
X007577Y014257D01*
X007380Y014060D01*
X007380Y013076D01*
X007695Y012761D01*
X007696Y012761D02*
X007667Y012762D01*
X007638Y012759D01*
X007610Y012752D01*
X007584Y012742D01*
X007558Y012728D01*
X007535Y012711D01*
X007514Y012691D01*
X007496Y012669D01*
X007481Y012644D01*
X007469Y012618D01*
X007461Y012590D01*
X007457Y012562D01*
X007457Y011970D01*
X007771Y011970D02*
X007676Y010950D01*
X007676Y010458D01*
X007872Y010222D01*
X008719Y010222D01*
X008798Y010300D01*
X008798Y010745D01*
X009191Y010745D02*
X009191Y011494D01*
X008716Y011970D01*
X008401Y011970D02*
X008401Y010748D01*
X008404Y010745D01*
X007676Y010950D02*
X007632Y010952D01*
X007588Y010957D01*
X007545Y010966D01*
X007503Y010979D01*
X007461Y010995D01*
X007422Y011014D01*
X007384Y011037D01*
X007348Y011063D01*
X007314Y011091D01*
X007283Y011122D01*
X007255Y011156D01*
X007229Y011192D01*
X007206Y011230D01*
X007187Y011269D01*
X007171Y011311D01*
X007158Y011353D01*
X007149Y011396D01*
X007144Y011440D01*
X007142Y011484D01*
X007142Y011970D01*
X007696Y012761D02*
X007733Y012757D01*
X007771Y012750D01*
X007807Y012739D01*
X007843Y012726D01*
X007877Y012709D01*
X007909Y012689D01*
X007939Y012666D01*
X007967Y012640D01*
X007993Y012612D01*
X008015Y012582D01*
X008035Y012549D01*
X008052Y012515D01*
X008066Y012480D01*
X008076Y012443D01*
X008083Y012406D01*
X008087Y012368D01*
X008087Y012330D01*
X008086Y012330D02*
X008086Y011970D01*
X009192Y013070D02*
X010346Y013070D01*
X010609Y013194D01*
X010746Y013588D02*
X010254Y013588D01*
X010056Y013390D01*
X009192Y013390D01*
X009192Y013700D02*
X009795Y013700D01*
X009959Y013863D01*
X011199Y013863D01*
X011376Y014040D01*
X011376Y018395D01*
X010276Y019495D01*
X009276Y019495D02*
X011160Y017611D01*
X011160Y014218D01*
X011022Y014080D01*
X009841Y014080D01*
X009771Y014010D01*
X009192Y014010D01*
X009179Y014316D02*
X009192Y014330D01*
X009179Y014316D02*
X008798Y014316D01*
X008522Y014040D01*
X008522Y013391D01*
X008424Y013273D01*
X007872Y013273D01*
X007892Y013785D02*
X008010Y013785D01*
X008874Y014648D01*
X009196Y014648D01*
X008712Y015120D02*
X008712Y015819D01*
X008483Y016048D01*
X008483Y016659D01*
X008620Y016777D01*
X008994Y017072D02*
X008640Y017446D01*
X008640Y017702D01*
X009211Y017643D02*
X009211Y015950D01*
X009152Y015891D01*
X009487Y015674D02*
X010136Y016324D01*
X010136Y016974D01*
X009723Y017387D02*
X009526Y017190D01*
X009526Y016304D01*
X009565Y016265D01*
X009998Y015871D02*
X010668Y016540D01*
X009998Y015871D02*
X009998Y015635D01*
X009487Y015674D02*
X009487Y015241D01*
X008837Y016324D02*
X008994Y016481D01*
X008994Y017072D01*
X007754Y015812D02*
X007774Y015120D01*
X007771Y015118D01*
X006512Y015118D02*
X006494Y015136D01*
X006494Y015458D01*
X006376Y015576D01*
X005648Y015576D01*
X005136Y015064D01*
X003266Y015064D01*
X003109Y015222D01*
X003109Y015690D01*
X002428Y016470D01*
X001428Y016470D02*
X001428Y016726D01*
X000924Y017229D01*
X001428Y015470D02*
X001428Y014470D01*
X001955Y012997D02*
X002833Y012997D01*
X002912Y013076D01*
X002912Y014257D01*
X003502Y014848D01*
X005235Y014848D01*
X005433Y014650D01*
X005786Y014650D01*
X005588Y014650D01*
X005786Y014650D02*
X006042Y014650D01*
X006042Y014330D02*
X005418Y014330D01*
X005117Y014631D01*
X003581Y014631D01*
X003109Y014159D01*
X003109Y012092D01*
X003010Y011993D01*
X001951Y011993D01*
X001428Y011470D01*
X001967Y011009D02*
X003128Y011009D01*
X003306Y011186D01*
X003306Y014060D01*
X003660Y014414D01*
X005018Y014414D01*
X005423Y014010D01*
X006042Y014010D01*
X006042Y013700D02*
X005438Y013700D01*
X004939Y014198D01*
X003719Y014198D01*
X003502Y013981D01*
X003502Y010261D01*
X003227Y009985D01*
X001963Y009985D01*
X001428Y009470D01*
X001428Y010470D02*
X001967Y011009D01*
X001428Y012470D02*
X001955Y012997D01*
X003719Y013548D02*
X003719Y011344D01*
X004723Y010340D01*
X004802Y010596D02*
X005727Y010596D01*
X006042Y010911D01*
X006042Y012439D01*
X006042Y012440D01*
X006042Y012760D02*
X005922Y012760D01*
X005904Y012741D01*
X004821Y012741D01*
X004723Y012643D01*
X004723Y012092D01*
X004782Y012033D01*
X004782Y011540D02*
X004565Y011540D01*
X004428Y011678D01*
X004428Y012820D01*
X004683Y013076D01*
X006036Y013076D01*
X006042Y013070D01*
X006042Y013390D02*
X004623Y013390D01*
X004152Y012918D01*
X004152Y011600D01*
X004880Y010871D01*
X005412Y010871D01*
X005589Y011048D01*
X004802Y010596D02*
X003935Y011462D01*
X003935Y013037D01*
X004762Y013863D01*
X004034Y013863D02*
X003719Y013548D01*
X004782Y015674D02*
X004782Y016540D01*
X004861Y016855D01*
X006298Y018351D02*
X007144Y017505D01*
X010746Y013588D02*
X010963Y013529D01*
X012164Y013785D02*
X012124Y013037D01*
X013384Y013037D02*
X012065Y014355D01*
X012065Y015359D01*
X012183Y015477D01*
X012557Y015399D02*
X012282Y014867D01*
X012282Y014474D01*
X013502Y013253D01*
X015077Y013253D01*
X016140Y012190D01*
X016140Y006659D01*
X016180Y006698D01*
X016632Y006698D01*
X017004Y006479D02*
X017635Y006479D01*
X017635Y005479D01*
X017635Y006479D02*
X018134Y006479D01*
X019113Y005501D01*
X019113Y004592D01*
X018227Y004336D02*
X019065Y003497D01*
X019113Y003497D01*
X019113Y002509D01*
X019111Y002507D02*
X019111Y001540D01*
X018111Y001540D02*
X018111Y002507D01*
X018113Y002509D02*
X018113Y003497D01*
X017451Y004159D01*
X017065Y004159D01*
X015904Y005320D01*
X015904Y012092D01*
X014959Y013037D01*
X013384Y013037D01*
X013758Y013470D02*
X013699Y013529D01*
X013699Y013706D01*
X013758Y013470D02*
X015294Y013470D01*
X016731Y012033D01*
X019085Y012033D01*
X019109Y012009D01*
X019109Y011370D01*
X019109Y012009D02*
X019136Y012037D01*
X019136Y012698D01*
X019132Y012702D01*
X019132Y013607D02*
X019136Y013612D01*
X017463Y013612D01*
X017459Y013607D01*
X016101Y013607D01*
X015841Y013867D01*
X015841Y014300D01*
X014876Y014477D02*
X016534Y016135D01*
X016741Y015928D01*
X016741Y014300D01*
X016745Y014296D01*
X017931Y014296D01*
X016554Y012682D02*
X016756Y012479D01*
X017635Y012479D01*
X017633Y011481D02*
X016908Y011481D01*
X016928Y010950D02*
X018365Y010950D01*
X018404Y010989D01*
X019109Y010470D02*
X019113Y010466D01*
X019113Y009501D01*
X018365Y009749D02*
X018365Y008883D01*
X017961Y008479D01*
X017635Y008479D01*
X019091Y008479D01*
X019113Y008501D01*
X019113Y007501D02*
X017030Y007501D01*
X016908Y007623D01*
X017052Y007479D01*
X017635Y007479D01*
X017656Y007501D01*
X016908Y007623D02*
X016908Y009237D01*
X017150Y009479D01*
X017635Y009479D01*
X018365Y009749D02*
X017635Y010479D01*
X016928Y010950D02*
X016514Y010537D01*
X016514Y007446D01*
X017006Y006954D01*
X018660Y006954D01*
X019113Y006501D01*
X017004Y006479D02*
X016632Y006107D01*
X016140Y006659D02*
X016140Y005359D01*
X017164Y004336D01*
X018227Y004336D01*
X017111Y002507D02*
X016365Y003253D01*
X015018Y003253D01*
X014142Y002377D01*
X013719Y003194D02*
X015313Y004789D01*
X015786Y004789D01*
X015766Y004237D02*
X015392Y004237D01*
X013126Y001972D01*
X013126Y001493D01*
X013094Y002461D02*
X013148Y002515D01*
X013148Y005222D01*
X013406Y005479D01*
X014095Y005479D01*
X015431Y005537D02*
X013660Y003765D01*
X012321Y003371D02*
X011530Y002816D01*
X010494Y002816D01*
X009825Y002816D02*
X008993Y002816D01*
X008938Y002871D01*
X008973Y003702D02*
X008938Y003737D01*
X008973Y003702D02*
X009829Y003702D01*
X010498Y003702D02*
X010522Y003726D01*
X011888Y003726D01*
X012191Y004560D02*
X010506Y004560D01*
X010715Y005182D02*
X010502Y005395D01*
X010715Y005182D02*
X011770Y005182D01*
X011908Y005320D01*
X012321Y004690D02*
X012191Y004560D01*
X013094Y002461D02*
X012126Y001493D01*
X015142Y001539D02*
X016111Y002507D01*
X017109Y001509D01*
X015431Y005537D02*
X015431Y006816D01*
X014703Y006875D02*
X015412Y007584D01*
X014095Y007479D02*
X013528Y007479D01*
X013168Y007840D01*
X013168Y008686D01*
X012164Y010399D02*
X011258Y010399D01*
X009900Y009040D01*
X009329Y009040D01*
X007695Y009040D01*
X007557Y009178D01*
X008069Y009690D02*
X008077Y009704D01*
X008089Y009717D01*
X008103Y009726D01*
X008118Y009732D01*
X008135Y009735D01*
X008151Y009734D01*
X008167Y009729D01*
X008168Y009729D02*
X009959Y009729D01*
X010727Y010497D01*
X010727Y011147D01*
X011396Y010832D02*
X011396Y010812D01*
X009920Y009375D01*
X008640Y009375D01*
X009644Y010025D02*
X005668Y010025D01*
X005589Y009946D01*
X004428Y009946D02*
X004428Y009533D01*
X005451Y008509D01*
X009979Y008509D01*
X010949Y009479D01*
X010215Y010438D02*
X010215Y011777D01*
X010077Y011914D01*
X009703Y011521D02*
X009703Y010084D01*
X009644Y010025D01*
X008994Y007997D02*
X009231Y007761D01*
X008994Y007997D02*
X004920Y007997D01*
X004309Y008607D01*
X002223Y008607D01*
X002085Y008470D01*
X003680Y009178D02*
X003680Y010005D01*
X003935Y010379D01*
X008957Y005391D02*
X008961Y005395D01*
X009833Y005395D01*
X009837Y004560D02*
X008961Y004560D01*
X008957Y004556D01*
X008993Y004592D01*
X008994Y004592D01*
X007124Y004316D02*
X007006Y004198D01*
X007006Y003489D01*
X006435Y003184D02*
X006435Y004218D01*
X006613Y004395D01*
X005491Y003804D02*
X005491Y003411D01*
X005530Y003371D01*
X005983Y002918D01*
X013195Y014481D02*
X012853Y014824D01*
X012853Y015182D01*
X012557Y015399D02*
X012557Y015635D01*
X012183Y016009D01*
X013069Y016796D02*
X013168Y016698D01*
X014211Y016698D01*
X014876Y016033D01*
X014876Y015377D01*
X014113Y015261D02*
X014054Y015832D01*
X014054Y016304D01*
X015061Y017044D02*
X015089Y017072D01*
X015068Y017938D02*
X015061Y017944D01*
X015066Y018839D02*
X015063Y018840D01*
X015062Y018842D01*
X015061Y018844D01*
X016534Y016462D02*
X016534Y016135D01*
X014876Y014477D02*
X013947Y014477D01*
X013943Y014481D01*
X017633Y011481D02*
X017635Y011479D01*
X018857Y017889D02*
X018865Y018059D01*
X018850Y018044D01*
X012276Y019495D02*
X011829Y019048D01*
D28*
X008276Y019495D02*
X008276Y015842D01*
X008404Y015714D01*
X008404Y015121D01*
X008401Y015118D01*
X017262Y018320D02*
X017538Y018044D01*
X017262Y018320D02*
X017262Y018840D01*
X018207Y018044D02*
X018850Y018044D01*
X019113Y004592D02*
X019132Y004572D01*
X019132Y004521D01*
X019113Y004501D01*
X019113Y002509D02*
X019111Y002507D01*
X019111Y001540D02*
X019142Y001509D01*
X018142Y001509D02*
X018111Y001540D01*
X017142Y001509D02*
X017109Y001509D01*
X018111Y002507D02*
X018113Y002509D01*
X015142Y001539D02*
X015142Y001509D01*
X014142Y001509D02*
X014142Y002377D01*
D29*
X018865Y016127D02*
X018865Y017159D01*
X016262Y018840D02*
X015066Y018840D01*
X015061Y017944D02*
X012461Y017944D01*
X012717Y017463D01*
X013069Y016796D01*
D30*
X013248Y016288D02*
X013176Y016258D01*
X012962Y016258D01*
X012764Y016340D01*
X012613Y016492D01*
X012531Y016689D01*
X012531Y016834D01*
X012239Y016834D01*
X012239Y016547D01*
X012291Y016547D01*
X012488Y016465D01*
X012640Y016314D01*
X012722Y016116D01*
X012722Y016051D01*
X012790Y015983D01*
X012905Y015867D01*
X012967Y015717D01*
X013158Y015638D01*
X013309Y015487D01*
X013391Y015289D01*
X013391Y015156D01*
X013523Y015156D01*
X013569Y015137D01*
X013580Y015141D01*
X013574Y015154D01*
X013574Y015368D01*
X013656Y015566D01*
X013668Y015577D01*
X013652Y015730D01*
X013644Y015750D01*
X013644Y015811D01*
X013637Y015871D01*
X013644Y015892D01*
X013644Y015953D01*
X013597Y015999D01*
X013515Y016197D01*
X013515Y016288D01*
X013249Y016288D01*
X013248Y016288D01*
X013539Y016140D02*
X012711Y016140D01*
X012726Y016379D02*
X012575Y016379D01*
X012561Y016617D02*
X012239Y016617D01*
X012870Y015902D02*
X013644Y015902D01*
X013659Y015663D02*
X013098Y015663D01*
X013335Y015425D02*
X013598Y015425D01*
X013574Y015186D02*
X013391Y015186D01*
X015104Y016384D02*
X015533Y016384D01*
X015665Y016439D01*
X015767Y016540D01*
X015780Y016572D01*
X015997Y016572D01*
X015996Y016569D01*
X015996Y016355D01*
X016048Y016229D01*
X015536Y015717D01*
X015536Y015749D01*
X015482Y015881D01*
X015380Y015983D01*
X015286Y016022D01*
X015286Y016114D01*
X015224Y016265D01*
X015104Y016384D01*
X015110Y016379D02*
X015996Y016379D01*
X015959Y016140D02*
X015276Y016140D01*
X015461Y015902D02*
X015721Y015902D01*
X016331Y015352D02*
X016331Y014944D01*
X016291Y014928D01*
X016213Y014960D01*
X015939Y014960D01*
X016331Y015352D01*
X016331Y015186D02*
X016165Y015186D01*
X016243Y014948D02*
X016331Y014948D01*
X017151Y014948D02*
X017389Y014948D01*
X017481Y014855D02*
X017605Y014731D01*
X017580Y014706D01*
X017387Y014706D01*
X017346Y014804D01*
X017245Y014905D01*
X017151Y014944D01*
X017151Y015186D01*
X017481Y014855D01*
X017386Y014709D02*
X017583Y014709D01*
X017888Y015127D02*
X018865Y015127D01*
X018470Y014397D02*
X019380Y014397D01*
X019648Y014508D01*
X019678Y014538D01*
X019678Y014138D01*
X019598Y014171D01*
X018675Y014171D01*
X018542Y014117D01*
X018447Y014021D01*
X018400Y014021D01*
X018470Y014189D01*
X018470Y014397D01*
X018470Y014232D02*
X019678Y014232D01*
X019678Y014470D02*
X019557Y014470D01*
X018447Y013202D02*
X018542Y013106D01*
X018675Y013052D01*
X018721Y013052D01*
X018676Y013007D01*
X018594Y012809D01*
X018594Y012595D01*
X018605Y012568D01*
X018542Y012542D01*
X018443Y012443D01*
X018390Y012443D01*
X018390Y012766D01*
X018335Y012898D01*
X018233Y013000D01*
X018101Y013054D01*
X017168Y013054D01*
X017036Y013000D01*
X017014Y012978D01*
X017010Y012987D01*
X016858Y013138D01*
X016716Y013197D01*
X017108Y013197D01*
X017154Y013151D01*
X017352Y013069D01*
X017566Y013069D01*
X017764Y013151D01*
X017814Y013202D01*
X018447Y013202D01*
X018709Y013039D02*
X018138Y013039D01*
X018375Y012801D02*
X018594Y012801D01*
X018592Y012562D02*
X018390Y012562D01*
X018390Y011623D02*
X018449Y011623D01*
X018449Y011527D01*
X018390Y011527D01*
X018390Y011623D01*
X018390Y011608D02*
X018449Y011608D01*
X018449Y010451D02*
X018449Y010245D01*
X018390Y010304D01*
X018390Y010451D01*
X018449Y010451D01*
X018449Y010415D02*
X018390Y010415D01*
X017015Y009979D02*
X016934Y009898D01*
X016924Y009874D01*
X016924Y010085D01*
X016934Y010061D01*
X017015Y009979D01*
X016974Y009938D02*
X016924Y009938D01*
X015494Y009938D02*
X015448Y009938D01*
X015448Y009700D02*
X015494Y009700D01*
X015494Y009461D02*
X015448Y009461D01*
X015448Y009223D02*
X015494Y009223D01*
X015494Y008984D02*
X015448Y008984D01*
X015448Y008909D02*
X015448Y010776D01*
X015385Y010926D01*
X015322Y010989D01*
X015405Y011072D01*
X015467Y011223D01*
X015467Y011948D01*
X015494Y011922D01*
X015494Y008909D01*
X015448Y008909D01*
X015448Y010177D02*
X015494Y010177D01*
X015494Y010415D02*
X015448Y010415D01*
X015448Y010654D02*
X015494Y010654D01*
X015494Y010892D02*
X015399Y010892D01*
X015429Y011131D02*
X015494Y011131D01*
X015494Y011369D02*
X015467Y011369D01*
X015467Y011608D02*
X015494Y011608D01*
X015494Y011846D02*
X015467Y011846D01*
X016227Y013116D02*
X016146Y013197D01*
X016391Y013197D01*
X016249Y013138D01*
X016227Y013116D01*
X016957Y013039D02*
X017131Y013039D01*
X017888Y015127D02*
X017085Y015930D01*
X017085Y016659D01*
X016691Y017052D01*
X015069Y017052D01*
X015061Y017044D01*
X014301Y017104D02*
X014293Y017108D01*
X013519Y017108D01*
X013374Y017253D01*
X013313Y017278D01*
X013221Y017451D01*
X013221Y017504D01*
X014330Y017504D01*
X014334Y017494D01*
X014301Y017416D01*
X014301Y017104D01*
X014301Y017333D02*
X013284Y017333D01*
X013221Y018384D02*
X013221Y018766D01*
X013167Y018898D01*
X013065Y019000D01*
X012933Y019054D01*
X012867Y019054D01*
X012895Y019082D01*
X013006Y019350D01*
X013006Y019640D01*
X012895Y019909D01*
X012843Y019960D01*
X018136Y019960D01*
X018057Y019824D01*
X017982Y019541D01*
X017982Y019248D01*
X018057Y018966D01*
X018204Y018713D01*
X018307Y018610D01*
X018298Y018601D01*
X017954Y018601D01*
X017992Y018694D01*
X017992Y018985D01*
X017881Y019253D01*
X017676Y019459D01*
X017407Y019570D01*
X017117Y019570D01*
X016849Y019459D01*
X016762Y019372D01*
X016676Y019459D01*
X016407Y019570D01*
X016117Y019570D01*
X015849Y019459D01*
X015753Y019362D01*
X015665Y019450D01*
X015533Y019504D01*
X014590Y019504D01*
X014457Y019450D01*
X014356Y019348D01*
X014301Y019216D01*
X014301Y018473D01*
X014334Y018394D01*
X014330Y018384D01*
X013221Y018384D01*
X013221Y018526D02*
X014301Y018526D01*
X014301Y018764D02*
X013221Y018764D01*
X013058Y019003D02*
X014301Y019003D01*
X014312Y019241D02*
X012961Y019241D01*
X013006Y019480D02*
X014531Y019480D01*
X015592Y019480D02*
X015900Y019480D01*
X016624Y019480D02*
X016900Y019480D01*
X017624Y019480D02*
X017982Y019480D01*
X017984Y019241D02*
X017886Y019241D01*
X017985Y019003D02*
X018048Y019003D01*
X017992Y018764D02*
X018174Y018764D01*
X018029Y019718D02*
X012974Y019718D01*
X012847Y019957D02*
X018134Y019957D01*
X019525Y018361D02*
X019678Y018449D01*
X019678Y016716D01*
X019648Y016746D01*
X019525Y016797D01*
X019525Y017530D01*
X019492Y017609D01*
X019525Y017687D01*
X019525Y018361D01*
X019525Y018287D02*
X019678Y018287D01*
X019678Y018049D02*
X019525Y018049D01*
X019525Y017810D02*
X019678Y017810D01*
X019678Y017572D02*
X019507Y017572D01*
X019525Y017333D02*
X019678Y017333D01*
X019678Y017094D02*
X019525Y017094D01*
X019525Y016856D02*
X019678Y016856D01*
X018865Y016127D02*
X018306Y016127D01*
X017912Y016521D01*
X017912Y016836D01*
X016829Y017918D01*
X015087Y017918D01*
X015061Y017944D01*
X017565Y016189D02*
X017765Y015989D01*
X017765Y015982D01*
X017802Y015892D01*
X017565Y016129D01*
X017565Y016189D01*
X017565Y016140D02*
X017613Y016140D01*
X017792Y015902D02*
X017798Y015902D01*
X018205Y017222D02*
X018184Y017243D01*
X017939Y017488D01*
X018205Y017488D01*
X018205Y017222D01*
X018205Y017333D02*
X018093Y017333D01*
X019544Y013052D02*
X019598Y013052D01*
X019678Y013085D01*
X019678Y012563D01*
X019660Y012571D01*
X019670Y012595D01*
X019670Y012809D01*
X019588Y013007D01*
X019544Y013052D01*
X019556Y013039D02*
X019678Y013039D01*
X019670Y012801D02*
X019678Y012801D01*
X019678Y009034D02*
X019645Y009001D01*
X019678Y008968D01*
X019678Y009034D01*
X019678Y008984D02*
X019662Y008984D01*
X019678Y008034D02*
X019645Y008001D01*
X019678Y007968D01*
X019678Y008034D01*
X019678Y008030D02*
X019674Y008030D01*
X019678Y007034D02*
X019645Y007001D01*
X019678Y006968D01*
X019678Y007034D01*
X019678Y006034D02*
X019645Y006001D01*
X019678Y005968D01*
X019678Y006034D01*
X019678Y005034D02*
X019645Y005001D01*
X019678Y004968D01*
X019678Y005034D01*
X019678Y004034D02*
X019643Y003999D01*
X019678Y003964D01*
X019678Y004034D01*
X019678Y003975D02*
X019667Y003975D01*
X019678Y003030D02*
X019678Y002972D01*
X019649Y003001D01*
X019678Y003030D01*
X019678Y003020D02*
X019668Y003020D01*
X019678Y002042D02*
X019678Y002006D01*
X019660Y002024D01*
X019678Y002042D01*
X019678Y001012D02*
X019678Y000995D01*
X019660Y000995D01*
X019678Y001012D01*
X017466Y003150D02*
X017256Y003237D01*
X016965Y003237D01*
X016962Y003235D01*
X016597Y003601D01*
X016446Y003663D01*
X016283Y003663D01*
X015398Y003663D01*
X015500Y003765D01*
X015659Y003699D01*
X015873Y003699D01*
X016071Y003781D01*
X016222Y003932D01*
X016304Y004130D01*
X016304Y004340D01*
X016718Y003926D01*
X016833Y003811D01*
X016984Y003749D01*
X017281Y003749D01*
X017384Y003646D01*
X017383Y003642D01*
X017383Y003352D01*
X017466Y003150D01*
X017421Y003259D02*
X016938Y003259D01*
X016700Y003497D02*
X017383Y003497D01*
X017294Y003736D02*
X015962Y003736D01*
X016240Y003975D02*
X016670Y003975D01*
X016431Y004213D02*
X016304Y004213D01*
X015570Y003736D02*
X015471Y003736D01*
X015381Y002843D02*
X015188Y002843D01*
X014562Y002217D01*
X014562Y002121D01*
X014642Y002041D01*
X014729Y002128D01*
X014997Y002239D01*
X015263Y002239D01*
X015381Y002357D01*
X015381Y002843D01*
X015381Y002782D02*
X015127Y002782D01*
X014888Y002543D02*
X015381Y002543D01*
X015329Y002305D02*
X014650Y002305D01*
X014667Y002066D02*
X014617Y002066D01*
X013618Y004303D02*
X013558Y004303D01*
X013558Y004933D01*
X013628Y004904D01*
X014220Y004904D01*
X013618Y004303D01*
X013558Y004452D02*
X013767Y004452D01*
X013558Y004690D02*
X014005Y004690D01*
X013569Y004929D02*
X013558Y004929D01*
X012325Y004152D02*
X012325Y004050D01*
X012224Y004150D01*
X012273Y004150D01*
X012277Y004152D01*
X012325Y004152D01*
X011552Y004150D02*
X011537Y004135D01*
X011004Y004135D01*
X011019Y004150D01*
X011552Y004150D01*
X011528Y003316D02*
X011026Y003316D01*
X011020Y003301D01*
X010976Y003257D01*
X011007Y003226D01*
X011400Y003226D01*
X011528Y003316D01*
X011447Y003259D02*
X010978Y003259D01*
X011007Y002406D02*
X010915Y002314D01*
X010783Y002259D01*
X010206Y002259D01*
X010160Y002279D01*
X010113Y002259D01*
X009940Y002259D01*
X010046Y002153D01*
X010400Y002153D01*
X010626Y001927D01*
X010853Y002153D01*
X011207Y002153D01*
X011459Y002406D01*
X011007Y002406D01*
X010893Y002305D02*
X011358Y002305D01*
X010766Y002066D02*
X010487Y002066D01*
X010626Y001060D02*
X010691Y000995D01*
X010561Y000995D01*
X010626Y001060D01*
X009691Y000995D02*
X009626Y001060D01*
X009561Y000995D01*
X009691Y000995D01*
X008691Y000995D02*
X008626Y001060D01*
X008561Y000995D01*
X008691Y000995D01*
X007691Y000995D02*
X007626Y001060D01*
X007561Y000995D01*
X007691Y000995D01*
X006691Y000995D02*
X006626Y001060D01*
X006561Y000995D01*
X006691Y000995D01*
X005691Y000995D02*
X002263Y000995D01*
X002353Y001151D01*
X002428Y001434D01*
X002428Y001726D01*
X002353Y002009D01*
X002206Y002262D01*
X002000Y002469D01*
X001746Y002615D01*
X001464Y002691D01*
X001171Y002691D01*
X000888Y002615D01*
X000713Y002514D01*
X000713Y006405D01*
X000908Y006292D01*
X001191Y006217D01*
X001483Y006217D01*
X001766Y006292D01*
X002019Y006439D01*
X002226Y006646D01*
X002372Y006899D01*
X002448Y007182D01*
X002448Y007474D01*
X002372Y007757D01*
X002256Y007958D01*
X002390Y008013D01*
X002541Y008165D01*
X002555Y008197D01*
X004140Y008197D01*
X004572Y007765D01*
X004687Y007650D01*
X004838Y007587D01*
X008720Y007587D01*
X008775Y007456D01*
X008926Y007305D01*
X009124Y007223D01*
X009338Y007223D01*
X009479Y007281D01*
X009479Y007201D01*
X009534Y007069D01*
X009635Y006968D01*
X009767Y006913D01*
X010109Y006913D01*
X010109Y006557D01*
X008683Y006557D01*
X008604Y006747D01*
X008453Y006898D01*
X008255Y006980D01*
X008041Y006980D01*
X007843Y006898D01*
X007692Y006747D01*
X007610Y006549D01*
X007610Y006335D01*
X007692Y006137D01*
X007743Y006086D01*
X007710Y006052D01*
X007709Y006051D01*
X007686Y006051D01*
X007554Y005996D01*
X007452Y005895D01*
X007397Y005762D01*
X007397Y005019D01*
X007416Y004974D01*
X007397Y004928D01*
X007397Y004785D01*
X007231Y004854D01*
X007017Y004854D01*
X006944Y004824D01*
X006917Y004851D01*
X006720Y004933D01*
X006506Y004933D01*
X006308Y004851D01*
X006156Y004700D01*
X006074Y004502D01*
X006074Y004418D01*
X006025Y004299D01*
X006025Y003919D01*
X005947Y004109D01*
X005795Y004260D01*
X005598Y004342D01*
X005383Y004342D01*
X005186Y004260D01*
X005034Y004109D01*
X004952Y003911D01*
X004952Y003697D01*
X005034Y003499D01*
X005081Y003453D01*
X005081Y003329D01*
X005143Y003178D01*
X005298Y003024D01*
X005445Y002877D01*
X005445Y002811D01*
X005526Y002614D01*
X005678Y002462D01*
X005691Y002457D01*
X005691Y002272D01*
X005691Y002109D01*
X005725Y002025D01*
X005466Y001767D01*
X005466Y001220D01*
X005691Y000995D01*
X005574Y001112D02*
X002330Y001112D01*
X002406Y001351D02*
X005466Y001351D01*
X005466Y001589D02*
X002428Y001589D01*
X002401Y001828D02*
X005528Y001828D01*
X005708Y002066D02*
X002320Y002066D01*
X002164Y002305D02*
X005691Y002305D01*
X005597Y002543D02*
X001871Y002543D01*
X000764Y002543D02*
X000713Y002543D01*
X000713Y002782D02*
X005457Y002782D01*
X005301Y003020D02*
X000713Y003020D01*
X000713Y003259D02*
X005110Y003259D01*
X005036Y003497D02*
X000713Y003497D01*
X000713Y003736D02*
X004952Y003736D01*
X004979Y003975D02*
X000713Y003975D01*
X000713Y004213D02*
X005138Y004213D01*
X005843Y004213D02*
X006025Y004213D01*
X006025Y003975D02*
X006002Y003975D01*
X006025Y003690D02*
X005957Y003524D01*
X005986Y003495D01*
X006025Y003535D01*
X006025Y003690D01*
X005988Y003497D02*
X005983Y003497D01*
X006074Y004452D02*
X000713Y004452D01*
X000713Y004690D02*
X006153Y004690D01*
X006496Y004929D02*
X000713Y004929D01*
X000713Y005167D02*
X007397Y005167D01*
X007397Y005406D02*
X000713Y005406D01*
X000713Y005644D02*
X007397Y005644D01*
X007447Y005883D02*
X000713Y005883D01*
X000713Y006121D02*
X007708Y006121D01*
X007610Y006360D02*
X001883Y006360D01*
X002179Y006599D02*
X007630Y006599D01*
X007782Y006837D02*
X002337Y006837D01*
X002420Y007076D02*
X009531Y007076D01*
X010109Y006837D02*
X008514Y006837D01*
X008666Y006599D02*
X010109Y006599D01*
X010671Y007713D02*
X010671Y008053D01*
X010643Y008121D01*
X010965Y008443D01*
X011070Y008443D01*
X011268Y008525D01*
X011419Y008677D01*
X011501Y008874D01*
X011501Y009069D01*
X012144Y009069D01*
X011814Y008739D01*
X011752Y008589D01*
X011752Y008425D01*
X011752Y007718D01*
X010685Y007718D01*
X010671Y007713D01*
X010671Y007791D02*
X011752Y007791D01*
X011752Y008030D02*
X010671Y008030D01*
X010790Y008268D02*
X011752Y008268D01*
X011752Y008507D02*
X011224Y008507D01*
X011448Y008745D02*
X011820Y008745D01*
X012059Y008984D02*
X011501Y008984D01*
X012576Y008341D02*
X012751Y008341D01*
X012712Y008381D01*
X012684Y008449D01*
X012576Y008341D01*
X013218Y009889D02*
X013393Y010064D01*
X013394Y010061D01*
X013475Y009979D01*
X013394Y009898D01*
X013391Y009889D01*
X013218Y009889D01*
X013267Y009938D02*
X013434Y009938D01*
X012749Y010579D02*
X012694Y010525D01*
X012671Y010579D01*
X012749Y010579D01*
X011420Y011370D02*
X011289Y011370D01*
X011227Y011344D01*
X011183Y011452D01*
X011155Y011479D01*
X011309Y011416D01*
X011374Y011416D01*
X011420Y011370D01*
X011288Y011369D02*
X011217Y011369D01*
X010987Y011621D02*
X010834Y011685D01*
X010625Y011685D01*
X010625Y011858D01*
X010615Y011882D01*
X010615Y012022D01*
X010612Y012030D01*
X010878Y012030D01*
X010878Y011847D01*
X010960Y011649D01*
X010987Y011621D01*
X010878Y011846D02*
X010625Y011846D01*
X009441Y011995D02*
X009398Y011977D01*
X009343Y011922D01*
X009271Y011995D01*
X009441Y011995D01*
X008482Y012680D02*
X008482Y012848D01*
X008488Y012863D01*
X008442Y012863D01*
X008379Y012857D01*
X008361Y012863D01*
X008319Y012863D01*
X008393Y012781D01*
X008393Y012781D01*
X008430Y012680D01*
X008482Y012680D01*
X008482Y012801D02*
X008376Y012801D01*
X009877Y014490D02*
X009905Y014559D01*
X009905Y014736D01*
X009858Y014851D01*
X009943Y014936D01*
X010009Y015097D01*
X010105Y015097D01*
X010303Y015179D01*
X010455Y015330D01*
X010536Y015528D01*
X010536Y015742D01*
X010511Y015804D01*
X010709Y016002D01*
X010750Y016002D01*
X010750Y014490D01*
X009877Y014490D01*
X009905Y014709D02*
X010750Y014709D01*
X010750Y014948D02*
X009947Y014948D01*
X010311Y015186D02*
X010750Y015186D01*
X010750Y015425D02*
X010494Y015425D01*
X010536Y015663D02*
X010750Y015663D01*
X010750Y015902D02*
X010609Y015902D01*
X010674Y017079D02*
X010750Y017079D01*
X010750Y017441D01*
X009425Y018767D01*
X009421Y018765D01*
X009131Y018765D01*
X008862Y018876D01*
X008776Y018963D01*
X008696Y018883D01*
X008696Y018240D01*
X008747Y018240D01*
X008945Y018158D01*
X008975Y018128D01*
X009104Y018181D01*
X009318Y018181D01*
X009516Y018099D01*
X009667Y017948D01*
X009677Y017925D01*
X009830Y017925D01*
X010028Y017843D01*
X010179Y017692D01*
X010256Y017506D01*
X010441Y017430D01*
X010592Y017278D01*
X010674Y017081D01*
X010674Y017079D01*
X010669Y017094D02*
X010750Y017094D01*
X010750Y017333D02*
X010538Y017333D01*
X010620Y017572D02*
X010229Y017572D01*
X010381Y017810D02*
X010061Y017810D01*
X010143Y018049D02*
X009566Y018049D01*
X009904Y018287D02*
X008696Y018287D01*
X008696Y018526D02*
X009666Y018526D01*
X009427Y018764D02*
X008696Y018764D01*
X007856Y018764D02*
X007587Y018764D01*
X007538Y018813D02*
X007689Y018876D01*
X007776Y018963D01*
X007856Y018883D01*
X007856Y018495D01*
X007538Y018813D01*
X007825Y018526D02*
X007856Y018526D01*
X006466Y018726D02*
X006379Y018761D01*
X006216Y018761D01*
X006054Y018761D01*
X005999Y018817D01*
X006123Y018765D01*
X006413Y018765D01*
X006422Y018769D01*
X006466Y018726D01*
X006427Y018764D02*
X006051Y018764D01*
X004372Y016329D02*
X004372Y016206D01*
X004357Y016212D01*
X004292Y016212D01*
X004283Y016221D01*
X004372Y016329D01*
X003151Y017280D02*
X003088Y017351D01*
X003088Y017743D01*
X002825Y018006D01*
X002895Y018076D01*
X002957Y018226D01*
X003151Y018032D01*
X003151Y017280D01*
X003151Y017333D02*
X003103Y017333D01*
X003088Y017572D02*
X003151Y017572D01*
X003151Y017810D02*
X003020Y017810D01*
X003135Y018049D02*
X002868Y018049D01*
X001928Y017036D02*
X001994Y016970D01*
X001928Y016903D01*
X001861Y016970D01*
X001928Y017036D01*
X000799Y016774D02*
X000768Y016743D01*
X000768Y016196D01*
X000797Y016167D01*
X000713Y016083D01*
X000713Y016861D01*
X000799Y016774D01*
X000717Y016856D02*
X000713Y016856D01*
X000713Y016617D02*
X000768Y016617D01*
X000768Y016379D02*
X000713Y016379D01*
X000713Y016140D02*
X000770Y016140D01*
X001928Y015036D02*
X001994Y014970D01*
X001928Y014903D01*
X001861Y014970D01*
X001928Y015036D01*
X001883Y014948D02*
X001972Y014948D01*
X001928Y014036D02*
X001994Y013970D01*
X001928Y013903D01*
X001861Y013970D01*
X001928Y014036D01*
X001885Y013993D02*
X001970Y013993D01*
X005241Y012331D02*
X005320Y012140D01*
X005320Y011926D01*
X005262Y011786D01*
X005320Y011648D01*
X005320Y011519D01*
X005482Y011586D01*
X005632Y011586D01*
X005632Y012018D01*
X005525Y012062D01*
X005400Y012188D01*
X005340Y012331D01*
X005241Y012331D01*
X005244Y012324D02*
X005344Y012324D01*
X005320Y012085D02*
X005502Y012085D01*
X005632Y011846D02*
X005287Y011846D01*
X005320Y011608D02*
X005632Y011608D01*
X006756Y010435D02*
X007059Y010738D01*
X007075Y010754D01*
X007217Y010650D01*
X007219Y010645D01*
X007266Y010599D01*
X007266Y010477D01*
X007262Y010435D01*
X006756Y010435D01*
X006975Y010654D02*
X007212Y010654D01*
X007233Y009615D02*
X006019Y009615D01*
X005894Y009490D01*
X005696Y009408D01*
X005482Y009408D01*
X005422Y009433D01*
X005700Y009155D01*
X007019Y009155D01*
X007019Y009285D01*
X007101Y009483D01*
X007233Y009615D01*
X007092Y009461D02*
X005824Y009461D01*
X005632Y009223D02*
X007019Y009223D01*
X008734Y007553D02*
X002427Y007553D01*
X002448Y007314D02*
X008916Y007314D01*
X007398Y004929D02*
X006730Y004929D01*
X004546Y007791D02*
X002353Y007791D01*
X002406Y008030D02*
X004307Y008030D01*
X003141Y009234D02*
X003088Y009234D01*
X003088Y009575D01*
X003145Y009575D01*
X003270Y009575D01*
X003270Y009529D01*
X003223Y009483D01*
X003141Y009285D01*
X003141Y009234D01*
X003088Y009461D02*
X003214Y009461D01*
X003088Y010426D02*
X003088Y010599D01*
X003092Y010599D01*
X003092Y010431D01*
X003088Y010426D01*
X001169Y008433D02*
X000908Y008363D01*
X000713Y008250D01*
X000713Y008829D01*
X000950Y008592D01*
X001065Y008476D01*
X001169Y008433D01*
X001035Y008507D02*
X000713Y008507D01*
X000713Y008745D02*
X000796Y008745D01*
X000744Y008268D02*
X000713Y008268D01*
X000713Y006360D02*
X000791Y006360D01*
X005746Y015095D02*
X005818Y015166D01*
X006067Y015166D01*
X006067Y015095D01*
X005746Y015095D01*
X000743Y018988D02*
X000713Y018958D01*
X000713Y019018D01*
X000743Y018988D01*
X000728Y019003D02*
X000713Y019003D01*
X014850Y006193D02*
X014795Y006061D01*
X014714Y005979D01*
X014795Y005898D01*
X014850Y005766D01*
X014850Y005534D01*
X015021Y005706D01*
X015021Y006465D01*
X014975Y006511D01*
X014959Y006551D01*
X014935Y006528D01*
X014850Y006492D01*
X014850Y006193D01*
X014820Y006121D02*
X015021Y006121D01*
X015021Y005883D02*
X014801Y005883D01*
X014850Y005644D02*
X014960Y005644D01*
X015021Y006360D02*
X014850Y006360D01*
X016550Y005569D02*
X016550Y005529D01*
X016880Y005200D01*
X016880Y005627D01*
X016739Y005569D01*
X016550Y005569D01*
X016673Y005406D02*
X016880Y005406D01*
X017175Y004904D02*
X018101Y004904D01*
X018233Y004959D01*
X018335Y005061D01*
X018390Y005193D01*
X018390Y005339D01*
X018494Y005088D01*
X018580Y005001D01*
X018494Y004915D01*
X018407Y004705D01*
X018308Y004746D01*
X017334Y004746D01*
X017175Y004904D01*
X018160Y004929D02*
X018508Y004929D01*
X018461Y005167D02*
X018379Y005167D01*
X018322Y007911D02*
X018254Y007979D01*
X018335Y008061D01*
X018338Y008069D01*
X018512Y008069D01*
X018580Y008001D01*
X018494Y007915D01*
X018492Y007911D01*
X018322Y007911D01*
X018304Y008030D02*
X018552Y008030D01*
X011626Y001060D02*
X011691Y000995D01*
X011561Y000995D01*
X011626Y001060D01*
D31*
X001317Y001580D03*
X001337Y007328D03*
X019093Y019395D03*
M02*
