%
M48
M72
T01C0.0236
T02C0.0400
T03C0.0440
T04C0.1102
%
T01
X4409Y13228
X4035Y16358
X3898Y15039
X7402Y15177
X5945Y15709
X4587Y16693
X4016Y17205
X16280Y5472
X17106Y12972
X7323Y10315
X12717Y16161
X7165Y17087
X3563Y16634
X5866Y17067
X10748Y5039
X3583Y9744
X3327Y8543
X7795Y5807
X7343Y12126
X7028Y13425
X16181Y15827
X18051Y10354
X17579Y13661
X13760Y14626
X13701Y15669
X15413Y3602
X14331Y8327
X4429Y10906
X4075Y9311
X4429Y11398
X4646Y9291
X8484Y15689
X8287Y17067
X10374Y10512
X7717Y9055
X6260Y3760
X6083Y2549
X8799Y15256
X8858Y17008
X12126Y12736
X12972Y11811
X11043Y10197
X8287Y8740
X6772Y3681
X6654Y2854
X9213Y15630
X9370Y16752
X11811Y13150
X12500Y11673
X11811Y9764
X6260Y1614
X5630Y2283
X7205Y8543
X5138Y3169
X12741Y1826
X5236Y10413
X5236Y9311
X9350Y10886
X13346Y13071
X18780Y12067
X11575Y11673
X12815Y8051
X12815Y11260
X11063Y11319
X9134Y14606
X9783Y16339
X11831Y15374
X16280Y6063
X9646Y15000
X10315Y15906
X11831Y14843
X12500Y14547
X9724Y11280
X9862Y9803
X7520Y12638
X7539Y13150
X1732Y7835
X8878Y7126
X11555Y4685
X15433Y4154
X13366Y2559
X11969Y2736
X15079Y6181
X13307Y3130
X11535Y3091
X16555Y10846
X15059Y6949
X16201Y12047
X15039Y7736
X3406Y15000
X3681Y13228
X10256Y12559
X10610Y12894
X8268Y16142
X4508Y16220
X4429Y15039
X1594Y15354
X10610Y8346
X11969Y4055
T02
X5915Y18860
X4915Y18860
X3915Y18860
X2915Y18860
X1915Y18860
X915Y18860
X12774Y858
X11774Y858
X10774Y858
X9774Y858
X8774Y858
X7774Y858
X6774Y858
X5774Y858
X13789Y874
X14789Y874
X15789Y874
X16789Y874
X17789Y874
X18789Y874
X18760Y8866
X18760Y7866
X18760Y6866
X18760Y5866
X18760Y4866
X18760Y3866
X15758Y1872
X16758Y1872
X17758Y1872
X18758Y1872
X2075Y8835
X2075Y9835
X2075Y10835
X2075Y11835
X2075Y12835
X2075Y13835
X1075Y8835
X1075Y9835
X1075Y10835
X1075Y11835
X1075Y12835
X1075Y13835
X2075Y14835
X2075Y15835
X1075Y14835
X1075Y15835
X2075Y16835
X1075Y16835
X18760Y2862
X17760Y2862
X6923Y18860
X7923Y18860
X8923Y18860
X9923Y18860
X10923Y18860
X11923Y18860
X1923Y17854
X923Y17854
X15909Y18205
X16909Y18205
T03
X18512Y14492
X18512Y15492
T04
X18740Y18760
X965Y945
X984Y6693
M30
