G75*
G70*
%OFA0B0*%
%FSLAX24Y24*%
%IPPOS*%
%LPD*%
%AMOC8*
5,1,8,0,0,1.08239X$1,22.5*
%
%ADD10C,0.0000*%
%ADD11C,0.0210*%
%ADD12R,0.0640X0.0640*%
%ADD13R,0.0316X0.0827*%
%ADD14C,0.0780*%
%ADD15R,0.0820X0.0440*%
%ADD16OC8,0.0640*%
%ADD17R,0.0840X0.0640*%
%ADD18R,0.0840X0.1540*%
%ADD19R,0.0780X0.0780*%
%ADD20R,0.0512X0.0749*%
%ADD21R,0.0276X0.0650*%
%ADD22R,0.0473X0.0434*%
%ADD23C,0.0780*%
%ADD24R,0.0830X0.0470*%
%ADD25R,0.0552X0.0670*%
%ADD26C,0.1542*%
D10*
X000353Y000635D02*
X000353Y020320D01*
X020038Y020320D01*
X020038Y000635D01*
X000353Y000635D01*
D11*
X006512Y011705D02*
X006512Y012235D01*
X006827Y012235D02*
X006827Y011705D01*
X007142Y011705D02*
X007142Y012235D01*
X007457Y012235D02*
X007457Y011705D01*
X007771Y011705D02*
X007771Y012235D01*
X008086Y012235D02*
X008086Y011705D01*
X008401Y011705D02*
X008401Y012235D01*
X008716Y012235D02*
X008716Y011705D01*
X008927Y012440D02*
X009457Y012440D01*
X009457Y012760D02*
X008927Y012760D01*
X008927Y013070D02*
X009457Y013070D01*
X009457Y013390D02*
X008927Y013390D01*
X008927Y013700D02*
X009457Y013700D01*
X009457Y014010D02*
X008927Y014010D01*
X008927Y014330D02*
X009457Y014330D01*
X009461Y014648D02*
X008931Y014648D01*
X008712Y014855D02*
X008712Y015385D01*
X008401Y015383D02*
X008401Y014853D01*
X008086Y014853D02*
X008086Y015383D01*
X007771Y015383D02*
X007771Y014853D01*
X007457Y014853D02*
X007457Y015383D01*
X007142Y015383D02*
X007142Y014853D01*
X006827Y014853D02*
X006827Y015383D01*
X006512Y015383D02*
X006512Y014853D01*
X006307Y014650D02*
X005777Y014650D01*
X005777Y014330D02*
X006307Y014330D01*
X006307Y014010D02*
X005777Y014010D01*
X005777Y013700D02*
X006307Y013700D01*
X006307Y013390D02*
X005777Y013390D01*
X005777Y013070D02*
X006307Y013070D01*
X006307Y012760D02*
X005777Y012760D01*
X005777Y012440D02*
X006307Y012440D01*
D12*
X006465Y017037D03*
X005565Y017037D03*
X004954Y018434D03*
X004054Y018434D03*
X014876Y015377D03*
X014876Y014477D03*
X015841Y014300D03*
X016741Y014300D03*
X018865Y017159D03*
X018865Y018059D03*
X019109Y011370D03*
X019109Y010470D03*
X013126Y001493D03*
X008938Y002871D03*
X008938Y003737D03*
X008957Y004556D03*
X008957Y005391D03*
X008057Y005391D03*
X008057Y004556D03*
X008038Y003737D03*
X008038Y002871D03*
D13*
X008404Y010745D03*
X008798Y010745D03*
X009191Y010745D03*
D14*
X002276Y018489D03*
X001276Y018489D03*
X001268Y019495D03*
X002268Y019495D03*
X003268Y019495D03*
X004268Y019495D03*
X005268Y019495D03*
X006268Y019495D03*
X007276Y019495D03*
X008276Y019495D03*
X009276Y019495D03*
X010276Y019495D03*
X011276Y019495D03*
X012276Y019495D03*
X016262Y018840D03*
X017262Y018840D03*
X019113Y009501D03*
X019113Y008501D03*
X019113Y007501D03*
X019113Y006501D03*
X019113Y005501D03*
X019113Y004501D03*
X019113Y003497D03*
X019111Y002507D03*
X019142Y001509D03*
X018142Y001509D03*
X018111Y002507D03*
X017111Y002507D03*
X017142Y001509D03*
X016142Y001509D03*
X015142Y001509D03*
X014142Y001509D03*
X018113Y003497D03*
D15*
X019136Y012037D03*
X019136Y013612D03*
D16*
X012126Y001493D03*
X011126Y001493D03*
X010126Y001493D03*
X009126Y001493D03*
X008126Y001493D03*
X007126Y001493D03*
X006126Y001493D03*
X002428Y009470D03*
X002428Y010470D03*
X002428Y011470D03*
X002428Y012470D03*
X002428Y013470D03*
X002428Y014470D03*
X002428Y015470D03*
X002428Y016470D03*
X002428Y017470D03*
X001428Y017470D03*
X001428Y016470D03*
X001428Y015470D03*
X001428Y014470D03*
X001428Y013470D03*
X001428Y012470D03*
X001428Y011470D03*
X001428Y010470D03*
X001428Y009470D03*
D17*
X015061Y017044D03*
X015061Y017944D03*
X015061Y018844D03*
D18*
X012461Y017944D03*
D19*
X016111Y002507D03*
D20*
X012674Y007627D03*
X010075Y007627D03*
D21*
X010587Y006751D03*
X010981Y006751D03*
X011374Y006751D03*
X011768Y006751D03*
X012162Y006751D03*
D22*
X010502Y005395D03*
X009833Y005395D03*
X009837Y004560D03*
X010506Y004560D03*
X010498Y003702D03*
X009829Y003702D03*
X009825Y002816D03*
X010494Y002816D03*
X017538Y018044D03*
X018207Y018044D03*
D23*
X018495Y016127D02*
X019235Y016127D01*
X019235Y015127D02*
X018495Y015127D01*
D24*
X017635Y012479D03*
X017635Y011479D03*
X017635Y010479D03*
X017635Y009479D03*
X017635Y008479D03*
X017635Y007479D03*
X017635Y006479D03*
X017635Y005479D03*
X014095Y005479D03*
X014095Y006479D03*
X014095Y007479D03*
X014095Y008479D03*
X014095Y009479D03*
X014095Y010479D03*
X014095Y011479D03*
X014095Y012479D03*
D25*
X013943Y014481D03*
X013195Y014481D03*
D26*
X019093Y019395D03*
X001337Y007328D03*
X001317Y001580D03*
M02*
